<?xml version="1.0" encoding="UTF-8"?>
<svg id="Layer_2" data-name="Layer 2" xmlns="http://www.w3.org/2000/svg" viewBox="0 0 47.93 38.48">
  <defs>
    <style>
      .cls-1 {
        fill: #a01f53;
      }

      .cls-1, .cls-2 {
        stroke-width: 0px;
      }

      .cls-2 {
        fill: #820032;
      }
    </style>
  </defs>
  <g id="OBJECTS">
    <g>
      <path class="cls-2" d="M40.53,20.86s-.03.04-.04.04c-1.46,1.41-3.44,2.12-5.38,2.75-4.11,1.35-8.29,2.51-12.51,3.48,1.44.01,2.93.03,4.24.6,2.05.88,3.64,3.44,1.08,5.72-.68.6-1.53,1-2.42,1.22-7.26,1.84-14.66,3.11-22.11,3.8-.66.07-1.32-.08-1.9-.42-.1-.06-.19-.12-.28-.18-.56-.42-.93-1.02-1.11-1.68-.12-.49-.14-1-.04-1.51,1.35-6.84,3.99-17.18,7.49-21.34.49-.58,1.05-1.18,1.8-1.31,1.45-.25,2.54,1.38,2.76,2.84.23,1.45.04,3.04.82,4.3,1.16-3.35,2.92-6.5,5.19-9.23,1.43-1.73,3.28-3.41,5.53-3.52s4.6,2.18,3.72,4.25C30.84,4.76,37.25.64,44.1.02c.96-.09,1.95.08,2.73.65,1.54,1.14,1.16,2.87.58,4.3-1.87,4.56-5.73,8.27-10.35,9.96,3.44-.95,6.01,3.42,3.46,5.93Z"/>
      <path class="cls-1" d="M41.46,10.35c-.93-.05-1.87-.1-2.81-.15-.44-.02-.89-.04-1.34-.06-.29-.02-.58-.03-.85-.07-1.17.89-2.35,1.77-3.52,2.65-2.99,2.21-6.02,4.41-9.03,6.62,2.9.11,5.82-.39,8.72-.35.54,0,.94.6.89,1.08-.06.57-.55.89-1.08.89-3.63-.04-7.28.73-10.89.13-3.79,2.8-7.54,5.65-11.18,8.63,1.94.27,3.91.3,5.84.52.53.06.94.55.88,1.09-.06.52-.56.94-1.09.88-2.54-.29-5.1-.34-7.61-.85-2.47,2.09-4.88,4.25-7.19,6.5-.56-.42-.93-1.02-1.11-1.68,2.24-2.17,4.57-4.25,6.97-6.27.01-.01.03-.03.05-.04.51-2.54.33-5.18.56-7.74.04-.54.55-.94,1.08-.89.54.05.93.56.88,1.09-.16,1.88-.11,3.81-.27,5.7,3.49-2.85,7.05-5.58,10.66-8.26.01-.05,0-.09.02-.14.83-2.7,1.5-5.45,2.33-8.16.38-1.22,2.23-.51,1.85.7-.58,1.89-1.08,3.8-1.61,5.7,4.22-3.11,8.46-6.2,12.63-9.36.03-.47.17-.96.25-1.38.17-.9.35-1.8.53-2.69.1-.53.51-.94,1.08-.89.49.05.99.56.89,1.08-.14.69-.28,1.38-.42,2.08,1.22-.94,2.43-1.89,3.63-2.85.99-.8,2.22.75,1.23,1.54-1.19.96-2.41,1.9-3.61,2.84.95.05,1.88.09,2.83.13.53.03.93.57.88,1.09-.06.54-.56.91-1.09.88Z"/>
    </g>
  </g>
</svg>