<?xml version="1.0" encoding="UTF-8"?>
<svg id="Layer_2" data-name="Layer 2" xmlns="http://www.w3.org/2000/svg" viewBox="0 0 70.18 30.48">
  <defs>
    <style>
      .cls-1 {
        fill: #e4f6c4;
      }

      .cls-1, .cls-2, .cls-3 {
        stroke-width: 0px;
      }

      .cls-2 {
        fill: #a8d070;
      }

      .cls-3 {
        fill: #006937;
      }
    </style>
  </defs>
  <g id="OBJECTS">
    <g>
      <path class="cls-3" d="M2.13.42l68.06,25.67-2.38,4.37s-15.8.72-36.56-8.18C10.49,13.38,0,4.33,0,4.33L2.13.42Z"/>
      <path class="cls-2" d="M2.13.42c1.27,3.11,27.54,16.17,41.28,20.23,6.03,1.78,20.48,5.5,26.77,5.44-1-1.84-12.89-11.85-28.76-18.66C28.38,1.83,12.04-1.16,2.13.42Z"/>
      <path class="cls-1" d="M8.16,2.7c.93,2.93,23.31,12.66,35.22,15.73,5.23,1.35,16.54,5.56,22.11,5.11-.77-1.72-11.93-9.35-25.56-14.95C28.73,3.99,17.04.55,8.16,2.7Z"/>
      <path class="cls-2" d="M28.96,7.01S11.72,2.14,11.45,3.7c-.27,1.56,14.17,4.37,17.51,3.31Z"/>
      <path class="cls-2" d="M44.9,13.84s16.71,6.67,17.13,7.82c.41,1.14-10.44-1.31-17.13-7.82Z"/>
      <path class="cls-2" d="M32.69,9.04s-7.97-.08-6.81,1.59c1.16,1.67,5.26-.03,6.81-1.59Z"/>
      <path class="cls-2" d="M39.99,12.29s4.19,7.23,4.87,5.31c.68-1.91-1.87-3.68-4.87-5.31Z"/>
      <path class="cls-2" d="M36.45,10.37s-4.03.02-4.43,1.59c-.39,1.57,5.96,3.59,6.52,3,.56-.59-2.09-4.59-2.09-4.59Z"/>
    </g>
  </g>
</svg>