<?xml version="1.0" encoding="UTF-8"?>
<svg id="Layer_2" data-name="Layer 2" xmlns="http://www.w3.org/2000/svg" viewBox="0 0 16.11 23.51">
  <defs>
    <style>
      .cls-1 {
        fill: #006937;
        stroke-width: 0px;
      }
    </style>
  </defs>
  <g id="OBJECTS">
    <path class="cls-1" d="M14.2,11.9c-1.11-.65-2.92.02-2.91,1.3-.62-3.87-1.32-7.92-3.74-11C6.48.85,4.8-.34,3.13.09,1.77.45.86,1.82.67,3.22c-.19,1.39.22,2.8.73,4.11.77,1.97,1.8,3.85,3.04,5.56-.67-.75-1.41-1.53-2.4-1.73S-.02,11.7,0,12.71c.08,4.08,8.41,11.98,12.44,10.65,3.8-1.25,5.08-9.24,1.75-11.46Z"/>
  </g>
</svg>