<?xml version="1.0" encoding="UTF-8"?>
<svg id="Layer_2" data-name="Layer 2" xmlns="http://www.w3.org/2000/svg" viewBox="0 0 61.47 53.81">
  <defs>
    <style>
      .cls-1 {
        fill: #e4f6c4;
      }

      .cls-1, .cls-2, .cls-3 {
        stroke-width: 0px;
      }

      .cls-2 {
        fill: #a8d070;
      }

      .cls-3 {
        fill: #006937;
      }
    </style>
  </defs>
  <g id="OBJECTS">
    <g>
      <path class="cls-3" d="M.23,30.15c1.61,10.26,9.78,18.93,19.66,22.13,9.88,3.19,21.07,1.21,29.87-4.3,4.62-2.9,8.78-6.9,10.65-12.03,3.05-8.39-.79-18.02-7.04-24.4C44.81,2.8,29.43-2.33,17.31,1.05,6.19,4.15-1.45,19.39.23,30.15Z"/>
      <path class="cls-2" d="M2.21,29.94c1.5,9.6,9.14,17.71,18.39,20.7,9.24,2.99,19.7,1.14,27.94-4.02,4.32-2.71,8.21-6.46,9.96-11.25,2.85-7.85-.74-16.85-6.58-22.82C43.9,4.36,29.52-.44,18.18,2.72,7.78,5.62.63,19.88,2.21,29.94Z"/>
      <path class="cls-1" d="M8.53,29.27c1.17,7.47,7.12,13.79,14.31,16.11,7.2,2.33,15.34.88,21.75-3.13,3.37-2.11,6.4-5.03,7.75-8.76,2.22-6.11-.58-13.12-5.12-17.77-6.23-6.37-17.43-10.11-26.26-7.65-8.09,2.26-13.66,13.35-12.43,21.19Z"/>
      <path class="cls-2" d="M29.02,32.22s-7.17,11.82-1.43,12.18c5.73.36,1.43-12.18,1.43-12.18Z"/>
      <path class="cls-2" d="M34.06,31.04s1.27,12.87,7.05,10.55c5.78-2.32-7.05-10.55-7.05-10.55Z"/>
      <path class="cls-2" d="M35.89,26.23s12.6-5.91,14.53.67c1.92,6.59-14.53-.67-14.53-.67Z"/>
      <path class="cls-2" d="M33.35,23.79s9.73-7.38,6.77-9.91c-2.96-2.54-6.77,9.91-6.77,9.91Z"/>
      <path class="cls-2" d="M29.97,23.79s1.5-13.16-2-13.02c-3.5.14,2,13.02,2,13.02Z"/>
      <path class="cls-2" d="M25.36,24.88s-7.1-13.12-10.07-10.16,10.07,10.16,10.07,10.16Z"/>
      <path class="cls-2" d="M24.47,27.92s-12.42-3.89-11.78.91c.64,4.8,11.78-.91,11.78-.91Z"/>
      <path class="cls-2" d="M25.36,31.04s-12.32,3.19-9.22,6.41c3.1,3.22,9.22-6.41,9.22-6.41Z"/>
    </g>
  </g>
</svg>