<?xml version="1.0" encoding="UTF-8"?>
<svg xmlns="http://www.w3.org/2000/svg" viewBox="0 0 364.61 337.44">
  <defs>
    <style>
      .cls-1 {
        fill: #e9d5de;
      }

      .cls-1, .cls-2, .cls-3, .cls-4, .cls-5, .cls-6, .cls-7, .cls-8, .cls-9, .cls-10, .cls-11, .cls-12, .cls-13, .cls-14, .cls-15, .cls-16, .cls-17 {
        stroke-width: 0px;
      }

      .cls-2 {
        fill: #ff9292;
      }

      .cls-3 {
        fill: #e4f6c4;
      }

      .cls-18 {
        isolation: isolate;
      }

      .cls-4 {
        fill: #a01f53;
      }

      .cls-5 {
        fill: #a8d070;
      }

      .cls-6 {
        fill: #8fdde5;
      }

      .cls-7 {
        fill: #ffed85;
      }

      .cls-8 {
        fill: #fff;
        mix-blend-mode: soft-light;
      }

      .cls-9 {
        fill: #ef4545;
      }

      .cls-10 {
        fill: #f48d1c;
      }

      .cls-11 {
        opacity: .25;
      }

      .cls-11, .cls-15 {
        fill: #d87512;
      }

      .cls-12 {
        fill: #96ed5d;
      }

      .cls-13 {
        fill: #889920;
      }

      .cls-14 {
        fill: #5cbc1e;
      }

      .cls-16 {
        fill: #006937;
      }

      .cls-17 {
        fill: #820032;
      }
    </style>
  </defs>
  <g class="cls-18">
    <g id="Layer_2" data-name="Layer 2">
      <g id="OBJECTS">
        <g>
          <circle class="cls-6" cx="307.3" cy="226.1" r="4.21"/>
          <circle class="cls-6" cx="330.34" cy="84.92" r="7.79" transform="translate(193.49 397.34) rotate(-80.76)"/>
          <circle class="cls-6" cx="43.52" cy="116.23" r="7.57" transform="translate(-79.55 132.3) rotate(-76.91)"/>
          <path class="cls-6" d="M58.4,85.59c0,2.02-1.64,3.66-3.66,3.66s-3.66-1.64-3.66-3.66,1.64-3.66,3.66-3.66,3.66,1.64,3.66,3.66Z"/>
          <circle class="cls-6" cx="66.7" cy="43.72" r="8.3" transform="translate(-11.38 59.97) rotate(-45)"/>
          <path class="cls-6" d="M44.28,225.02c0,2.3-1.87,4.17-4.17,4.17s-4.17-1.87-4.17-4.17,1.87-4.17,4.17-4.17,4.17,1.87,4.17,4.17Z"/>
          <circle class="cls-6" cx="15.3" cy="205.99" r="8.42" transform="translate(-141.18 71.15) rotate(-45)"/>
          <circle class="cls-6" cx="331.32" cy="221.27" r="6.26"/>
          <path class="cls-6" d="M172.41,39.54c0,2.98-2.42,5.4-5.4,5.4s-5.4-2.42-5.4-5.4,2.42-5.4,5.4-5.4,5.4,2.42,5.4,5.4Z"/>
          <ellipse class="cls-6" cx="184.58" cy="321.34" rx="166.93" ry="16.1"/>
          <path class="cls-9" d="M210.87,238.36c-1.43-10.46,2.94-21.52,11.13-28.17,8.19-6.65,19.92-8.66,29.86-5.12,9.83,3.51,17.9,13.4,16.56,23.75"/>
          <path class="cls-16" d="M199.31,214.4c1.46-.67,3.63.37,3.46,1.97,1.24-4.73,2.6-9.68,5.98-13.22,1.49-1.56,3.72-2.84,5.75-2.1,1.65.61,2.62,2.43,2.68,4.18.06,1.76-.61,3.45-1.41,5.02-1.2,2.36-2.7,4.56-4.45,6.55.92-.85,1.94-1.74,3.19-1.86s2.5.93,2.35,2.18c-.59,5.06-11.9,13.88-16.76,11.75-4.57-2.01-5.2-12.1-.8-14.46Z"/>
          <path class="cls-16" d="M101.03,234.95c-2.65-3.19-5.03-6.71-6.15-10.7-.59-2.09-.79-4.32-.52-6.47.42-3.34,3.97-5.43,7.05-4.07,2.29,1.01,4.37,2.48,6.06,4.32-.22-3.18-.19-6.96,2.79-8.59,1.8-.98,4-.73,5.75.34,3.67,2.24,4.95,6.28,7.2,9.62,1.32-1.52,2.64-3.04,3.96-4.57.36-.42.77-.86,1.32-.94.63-.09,1.21.35,1.69.78,5.07,4.52,8.76,10.59,10.43,17.18"/>
          <g>
            <path class="cls-17" d="M254.79,207.15s0,.04-.01.06c-.51,1.96-1.83,3.6-3.15,5.15-2.81,3.29-5.76,6.46-8.85,9.5,1.23-.74,2.51-1.5,3.93-1.7,2.2-.32,4.9,1.03,3.91,4.31-.26.87-.79,1.65-1.43,2.3-5.23,5.36-10.88,10.3-16.88,14.78-.53.4-1.17.62-1.84.64-.11,0-.22,0-.33,0-.69-.06-1.33-.38-1.82-.85-.36-.36-.64-.78-.82-1.27-2.41-6.54-5.56-16.74-4.74-22.11.11-.75.28-1.56.85-2.06,1.11-.97,2.89-.15,3.84.98.95,1.12,1.62,2.57,2.94,3.24-.76-3.47-.9-7.07-.38-10.58.32-2.22,1.02-4.62,2.88-5.89,1.86-1.27,5.06-.54,5.4,1.69-.15-6.86,3.17-13.72,8.69-17.82.77-.57,1.71-.95,2.67-.87,1.91.16,2.49,1.84,2.74,3.36.78,4.87-.57,10.05-3.63,13.9,2.44-2.61,6.91-.22,6.05,3.25Z"/>
            <path class="cls-4" d="M250.09,197.7c-.82.45-1.64.89-2.47,1.34-.39.22-.78.43-1.17.65-.26.14-.51.28-.76.38-.53,1.37-1.08,2.74-1.62,4.1-1.4,3.45-2.83,6.9-4.25,10.36,2.53-1.42,4.76-3.37,7.25-4.85.46-.27,1.11.02,1.32.46.25.51,0,1.05-.46,1.32-3.12,1.86-5.83,4.42-9.23,5.8-1.77,4.37-3.48,8.75-5.03,13.2,1.79-.78,3.49-1.78,5.26-2.6.49-.23,1.09-.02,1.32.47.23.48.02,1.1-.47,1.32-2.32,1.08-4.52,2.37-6.93,3.25-1.01,3.07-1.94,6.17-2.74,9.3-.69-.06-1.33-.38-1.82-.85.78-3.02,1.68-6.01,2.67-8.99,0-.02.01-.04.02-.06-.89-2.44-2.42-4.59-3.57-6.89-.24-.48-.02-1.09.46-1.32.49-.23,1.09,0,1.32.47.84,1.69,1.9,3.3,2.75,5,1.49-4.25,3.1-8.44,4.78-12.61-.01-.05-.05-.07-.06-.13-.7-2.74-1.57-5.44-2.27-8.18-.31-1.24,1.64-1.6,1.94-.37.49,1.91,1.06,3.8,1.6,5.7,1.98-4.85,3.98-9.7,5.89-14.58-.22-.41-.36-.91-.5-1.31-.32-.85-.64-1.72-.95-2.57-.19-.5-.05-1.07.46-1.32.45-.21,1.14-.04,1.32.46.25.66.48,1.33.73,1.99.55-1.44,1.09-2.88,1.61-4.33.42-1.2,2.28-.52,1.85.68-.51,1.44-1.06,2.88-1.6,4.31.83-.45,1.65-.91,2.48-1.36.47-.25,1.09,0,1.32.47.23.5,0,1.07-.47,1.32Z"/>
          </g>
          <g>
            <path class="cls-14" d="M86.66,219.23c.25-.28.48-.57.66-.9.28-.48.45-.98.5-1.47.3-2.76-2.62-5.55-3.82-7.94-1.89-3.76-3.16-7.84-3.71-12.02-.41-3.08-1.09-7.02-4.13-7.69-3.06-.67-5.34,2.68-6.66,5.52.8-7.94.79-15.95-.05-23.87-.25-2.35-.61-4.81-2.02-6.7-1.91-2.58-5.72-3.54-8.63-2.18-2.48,1.17-4.08,3.9-4.03,6.63-.67-5.57-1.48-11.18-3.74-16.3-1.63-3.7-4.54-7.38-8.57-7.74-3.31-.29-6.41,1.82-8.51,4.39-3.82,4.72-5.17,11.17-4.24,17.17.92,6,3.97,11.54,8.03,16.06-4.28-.59-8.03,3.8-8.08,8.11-.04,4.32,2.6,8.23,5.71,11.22,6.58,6.33,15.74,9.87,24.86,9.63-2.41.35-3.39,3.68-2.24,5.84,1.16,2.15,3.6,3.26,5.95,3.94,4.87,1.41,18.36,3.08,22.74-1.7Z"/>
            <path class="cls-12" d="M86.66,219.23c.25-.28.48-.57.66-.9.28-.48.45-.98.5-1.47-2.92-1.75-5.76-3.62-8.5-5.64-.36-2.13-.71-4.25-1.06-6.38-.12-.73-.92-1.1-1.59-.98-.74.14-1.09.91-.98,1.59.19,1.15.38,2.3.57,3.45-5.98-4.71-11.46-10.06-16.34-15.92.65-4.19,1.31-8.36,1.96-12.55.1-.71-.63-1.34-1.27-1.37-.77-.02-1.26.57-1.37,1.27-.51,3.29-1.02,6.6-1.54,9.89-4.36-5.59-8.2-11.59-11.41-17.92,1.78-1.9,2.84-4.41,2.95-7.01.07-1.71-2.57-1.8-2.64-.1-.07,1.64-.63,3.19-1.57,4.5-1.26-2.67-2.42-5.37-3.45-8.13-.58-1.58-3.16-.98-2.57.61.88,2.34,1.85,4.64,2.87,6.92-1.31-.63-2.62-1.25-3.92-1.88-.65-.31-1.41-.24-1.82.43-.35.56-.21,1.51.43,1.81,2.37,1.13,4.74,2.27,7.1,3.4.95,1.93,1.94,3.82,3.01,5.69,2.76,4.82,5.89,9.43,9.34,13.79-2.66.53-5.34.94-8.04,1.2-.72.07-1.34.48-1.37,1.27-.02.64.56,1.43,1.27,1.36,3.37-.32,6.7-.83,10-1.54,4.96,5.94,10.53,11.37,16.59,16.18-1.55.19-3.09.26-4.69.22-.71-.03-1.33.55-1.36,1.26-.02.71.55,1.35,1.27,1.37,2.57.08,5.14-.14,7.67-.64,2.99,2.23,6.1,4.3,9.31,6.21Z"/>
          </g>
          <g>
            <path class="cls-14" d="M219.38,110.2c.35.14.7.25,1.07.31.55.1,1.08.08,1.56-.04,2.7-.67,4.31-4.37,6.14-6.33,2.88-3.07,6.26-5.67,9.99-7.64,2.75-1.45,6.21-3.45,5.78-6.54-.43-3.1-4.36-4.08-7.48-4.35,7.72-1.99,15.24-4.77,22.38-8.3,2.12-1.05,4.3-2.24,5.59-4.21,1.76-2.69,1.35-6.59-.93-8.86-1.95-1.92-5.07-2.48-7.62-1.49,5-2.55,9.98-5.25,14-9.15,2.9-2.81,5.36-6.81,4.3-10.71-.87-3.21-3.92-5.39-7.06-6.47-5.75-1.95-12.27-.99-17.58,1.96-5.31,2.94-9.46,7.71-12.3,13.08-.92-4.22-6.34-6.22-10.41-4.78-4.07,1.45-6.83,5.28-8.55,9.24-3.67,8.36-3.82,18.18-.45,26.65-1.16-2.14-4.62-1.91-6.25-.09-1.61,1.83-1.81,4.51-1.64,6.94.36,5.06,3.46,18.29,9.45,20.75Z"/>
            <path class="cls-12" d="M219.38,110.2c.35.14.7.25,1.07.31.55.1,1.08.08,1.56-.04.63-3.34,1.41-6.65,2.35-9.93,1.87-1.07,3.74-2.13,5.62-3.2.64-.36.72-1.24.37-1.83-.38-.64-1.23-.71-1.83-.37-1.01.58-2.03,1.16-3.04,1.73,2.35-7.24,5.48-14.23,9.29-20.84,4.15-.83,8.3-1.66,12.45-2.5.7-.15,1.04-1.05.85-1.67-.24-.73-.97-.98-1.67-.85-3.27.66-6.54,1.32-9.81,1.97,3.74-6.02,8.04-11.71,12.87-16.9,2.39,1.02,5.12,1.14,7.59.35,1.62-.53.8-3.03-.82-2.51-1.57.5-3.21.52-4.77.08,2.07-2.1,4.21-4.13,6.43-6.05,1.28-1.09-.17-3.3-1.46-2.2-1.89,1.63-3.72,3.34-5.5,5.08.14-1.44.27-2.89.41-4.33.06-.72-.27-1.41-1.03-1.56-.65-.13-1.49.32-1.55,1.03-.24,2.62-.49,5.23-.73,7.84-1.48,1.56-2.92,3.14-4.29,4.79-3.57,4.26-6.81,8.79-9.71,13.53-1.42-2.31-2.73-4.69-3.9-7.13-.31-.65-.91-1.09-1.67-.85-.61.2-1.15,1.02-.84,1.66,1.46,3.05,3.09,6,4.9,8.85-3.86,6.7-7.03,13.81-9.45,21.16-.71-1.39-1.31-2.81-1.83-4.33-.22-.68-.98-1.06-1.66-.84-.67.23-1.08.99-.85,1.67.81,2.44,1.91,4.78,3.25,6.97-1.06,3.58-1.93,7.21-2.61,10.88Z"/>
          </g>
          <g>
            <path class="cls-14" d="M117.08,135.8c-.37.05-.74.07-1.12.04-.56-.04-1.06-.18-1.5-.42-2.46-1.31-3.12-5.29-4.42-7.62-2.05-3.68-4.7-7.02-7.84-9.83-2.32-2.08-5.19-4.85-4.03-7.74,1.17-2.9,5.22-2.9,8.31-2.4-7.01-3.8-13.63-8.32-19.71-13.48-1.8-1.53-3.63-3.21-4.4-5.44-1.06-3.04.29-6.72,3.05-8.37,2.36-1.39,5.52-1.18,7.75.4-4.23-3.69-8.41-7.52-11.37-12.27-2.14-3.43-3.55-7.91-1.58-11.44,1.62-2.9,5.11-4.28,8.42-4.56,6.05-.5,12.15,2.01,16.58,6.16,4.44,4.14,7.3,9.78,8.76,15.67,1.92-3.87,7.66-4.5,11.25-2.12,3.6,2.4,5.34,6.78,6.06,11.03,1.53,9-.7,18.57-6.03,25.97,1.64-1.8,4.95-.74,6.09,1.43,1.12,2.17.67,4.81-.09,7.14-1.57,4.82-7.79,16.91-14.2,17.84Z"/>
            <path class="cls-12" d="M117.08,135.8c-.37.05-.74.07-1.12.04-.56-.04-1.06-.18-1.5-.42.2-3.4.24-6.8.12-10.2-1.56-1.5-3.12-2.98-4.68-4.47-.54-.51-.39-1.38.08-1.86.53-.53,1.37-.39,1.86.08.84.8,1.69,1.61,2.53,2.42-.53-7.59-1.87-15.13-3.97-22.47-3.83-1.81-7.65-3.62-11.48-5.44-.65-.32-.76-1.27-.42-1.82.42-.65,1.18-.72,1.82-.42,3.01,1.43,6.03,2.87,9.04,4.29-2.17-6.75-4.97-13.31-8.39-19.52-2.57.41-5.24-.13-7.45-1.5-1.45-.91-.04-3.13,1.4-2.23,1.4.87,2.99,1.28,4.61,1.23-1.5-2.54-3.08-5.02-4.78-7.43-.98-1.37.97-3.16,1.95-1.78,1.44,2.04,2.8,4.14,4.11,6.27.21-1.43.44-2.87.65-4.3.11-.71.6-1.3,1.38-1.26.66.03,1.36.67,1.26,1.38-.4,2.6-.79,5.19-1.19,7.78,1.06,1.87,2.07,3.75,3.01,5.69,2.43,5,4.48,10.18,6.15,15.48,1.93-1.9,3.78-3.89,5.51-5.97.46-.55,1.15-.84,1.82-.42.54.34.86,1.27.41,1.82-2.16,2.6-4.45,5.07-6.9,7.4,2.12,7.44,3.47,15.1,4.04,22.82,1.02-1.17,1.96-2.41,2.82-3.76.38-.61,1.21-.79,1.81-.42.6.38.8,1.22.42,1.82-1.38,2.17-3.01,4.17-4.84,5.98.16,3.73.13,7.46-.1,11.19Z"/>
          </g>
          <g>
            <path class="cls-14" d="M268.96,229.54c.31.2.64.38.99.51.52.2,1.04.28,1.53.26,2.78-.14,5.06-3.47,7.23-5.03,3.42-2.46,7.23-4.37,11.27-5.58,2.98-.9,6.75-2.2,6.93-5.31.17-3.13-3.5-4.84-6.51-5.7,7.96-.47,15.87-1.76,23.56-3.85,2.28-.62,4.65-1.37,6.29-3.06,2.25-2.3,2.59-6.21.78-8.87-1.55-2.26-4.5-3.41-7.19-2.92,5.39-1.55,10.8-3.24,15.5-6.29,3.39-2.2,6.57-5.66,6.28-9.69-.24-3.32-2.81-6.04-5.69-7.7-5.27-3.02-11.86-3.32-17.63-1.45-5.77,1.87-10.76,5.76-14.58,10.48-.09-4.32-5.03-7.32-9.3-6.69-4.27.65-7.71,3.88-10.16,7.43-5.2,7.5-7.24,17.11-5.55,26.07-.73-2.33-4.17-2.77-6.12-1.28-1.94,1.49-2.64,4.07-2.94,6.5-.62,5.03-.12,18.62,5.3,22.18Z"/>
            <path class="cls-12" d="M268.96,229.54c.31.2.64.38.99.51.52.2,1.04.28,1.53.26,1.26-3.16,2.66-6.26,4.21-9.29,2.04-.69,4.08-1.38,6.13-2.06.7-.23.94-1.08.71-1.72-.25-.7-1.07-.94-1.72-.71-1.1.37-2.21.75-3.32,1.12,3.7-6.65,8.11-12.91,13.11-18.67,4.24-.02,8.46-.04,12.7-.06.72-.01,1.23-.83,1.15-1.48-.1-.77-.76-1.15-1.48-1.15-3.33.02-6.67.04-10.01.05,4.83-5.2,10.14-9.95,15.87-14.12,2.16,1.46,4.8,2.1,7.39,1.8,1.69-.21,1.36-2.82-.32-2.62-1.63.19-3.25-.11-4.7-.83,2.43-1.66,4.92-3.25,7.47-4.7,1.47-.83.46-3.27-1.01-2.44-2.17,1.24-4.29,2.57-6.38,3.93.41-1.39.82-2.78,1.23-4.17.2-.69,0-1.43-.72-1.73-.61-.25-1.52.03-1.72.71-.74,2.52-1.48,5.04-2.22,7.55-1.75,1.25-3.47,2.52-5.13,3.88-4.32,3.49-8.37,7.32-12.13,11.42-.95-2.54-1.78-5.13-2.46-7.75-.18-.7-.69-1.25-1.48-1.15-.63.08-1.32.79-1.14,1.47.85,3.27,1.88,6.48,3.11,9.63-5.07,5.84-9.55,12.2-13.33,18.96-.43-1.5-.75-3.01-.96-4.6-.08-.71-.76-1.23-1.46-1.15-.7.09-1.24.76-1.15,1.48.33,2.55.96,5.06,1.85,7.47-1.72,3.31-3.28,6.71-4.65,10.18Z"/>
          </g>
          <g>
            <path class="cls-9" d="M281.15,76.57c-1.51-2.11-3.86-3.36-6.45-3.45-2.58-.08-5.01,1.02-6.65,3.02h0c-10.44,12.75-34.64,42.17-44.56,54.23-1.61,1.96-2.23,4.5-1.69,6.98.54,2.49,2.16,4.56,4.46,5.68,5.78,2.82,14.83,6.01,25.15,5.13,6.68-.57,12.98-2.74,18.84-6.48,4.84-3.09,9.4-7.25,13.63-12.46,16.17-19.93,5.23-41.54-2.73-52.65Z"/>
            <path class="cls-2" d="M268.97,79.31c-9.85,12.03-32.72,39.83-42.36,51.56-2.45,2.98-1.47,7.46,2,9.16,10.7,5.23,32.93,11.49,52.49-12.63,14.71-18.13,4.29-38.07-2.66-47.77-2.29-3.2-6.98-3.35-9.47-.31Z"/>
            <path class="cls-9" d="M266.85,92.41l-29.61,34.03c-2.5,2.88-1.16,7.27,2.5,8.1,8.56,1.93,22.59,2.84,32.24-8.1,9.64-10.93,6.67-24.61,3.46-32.78-1.37-3.48-6.06-4.15-8.59-1.24Z"/>
            <path class="cls-2" d="M260.95,127.61c-2.44-3.92-7.34-11.5-7.25-9.11.12,3.13,1.84,8.19,2.97,11.22.51,1.35,2.09,1.95,3.37,1.27,1.23-.65,1.65-2.21.91-3.39Z"/>
            <path class="cls-2" d="M273.38,106.47c-4.56.72-13.46,2.27-11.21,3.13,2.92,1.11,8.26,1.5,11.49,1.64,1.45.06,2.61-1.16,2.48-2.61-.12-1.38-1.39-2.38-2.76-2.16Z"/>
            <path class="cls-2" d="M269,95.4c-3.45,3.06-10.11,9.17-7.76,8.68,3.06-.64,7.77-3.19,10.56-4.82,1.25-.73,1.57-2.39.68-3.53-.85-1.1-2.45-1.26-3.49-.33Z"/>
            <path class="cls-2" d="M269.86,120c-3.84-2.56-11.44-7.43-10.37-5.29,1.4,2.8,5.06,6.7,7.35,8.99,1.02,1.02,2.71.91,3.59-.24.85-1.1.59-2.69-.57-3.46Z"/>
            <path class="cls-2" d="M247.63,131.42c.54-4.58,1.45-13.57.02-11.64-1.86,2.51-3.68,7.54-4.69,10.62-.45,1.37.42,2.82,1.84,3.09,1.37.26,2.67-.69,2.83-2.07Z"/>
          </g>
          <g>
            <path class="cls-9" d="M128.43,201.91c2.19-.79,3.85-2.52,4.56-4.73.7-2.22.34-4.58-.99-6.49h0c-8.47-12.15-28.01-40.29-36.02-51.82-1.3-1.87-3.35-3.03-5.63-3.17-2.28-.14-4.47.76-6,2.47-3.86,4.31-8.82,11.36-10.59,20.5-1.14,5.92-.81,11.9.99,17.89,1.49,4.95,3.97,9.9,7.45,14.84,13.29,18.86,34.66,14.69,46.21,10.52Z"/>
            <path class="cls-2" d="M129.03,190.7c-8-11.47-26.46-38.05-34.24-49.26-1.98-2.85-6.09-3.09-8.41-.51-7.14,7.97-17.99,25.67-1.91,48.5,12.09,17.16,31.88,13.02,41.98,9.38,3.32-1.2,4.61-5.22,2.59-8.12Z"/>
            <path class="cls-9" d="M118.22,185.66l-22.19-33.94c-1.88-2.87-6-2.78-7.62.18-3.77,6.93-7.98,18.85-.88,29.87,7.1,11.01,19.66,11.79,27.51,11.01,3.35-.33,5.08-4.22,3.18-7.13Z"/>
            <path class="cls-2" d="M89.21,171.94c3.99-1.15,11.75-3.54,9.65-4.05-2.73-.66-7.53-.42-10.44-.18-1.3.11-2.19,1.33-1.92,2.6.26,1.22,1.5,1.97,2.7,1.62Z"/>
            <path class="cls-2" d="M104.46,187.87c.49-4.12,1.33-12.2.04-10.47-1.68,2.26-3.32,6.78-4.23,9.54-.41,1.24.37,2.54,1.65,2.78,1.23.23,2.4-.62,2.55-1.86Z"/>
            <path class="cls-2" d="M115.11,186.79c-1.81-3.73-5.46-10.99-5.61-8.83-.19,2.81.86,7.5,1.58,10.32.32,1.26,1.68,1.94,2.89,1.46,1.16-.46,1.69-1.81,1.14-2.94Z"/>
            <path class="cls-2" d="M93.61,181.51c3.15-2.7,9.23-8.08,7.11-7.68-2.76.53-7.03,2.74-9.57,4.16-1.14.63-1.45,2.12-.67,3.16.74,1,2.18,1.17,3.13.35Z"/>
            <path class="cls-2" d="M89.18,159.49c3.83,1.59,11.38,4.57,10.07,2.87-1.72-2.23-5.63-5.03-8.04-6.65-1.08-.73-2.55-.33-3.13.83-.56,1.12-.05,2.48,1.1,2.95Z"/>
          </g>
          <g>
            <path class="cls-13" d="M85.83,129.01c3.91.12,7.45-2.97,8.68-6.68,1.23-3.72.5-7.85-1.1-11.43-3.52-7.86-16.98-16.08-22.05-4.93-3.58,7.87,5.91,22.77,14.47,23.04Z"/>
            <path class="cls-9" d="M77.34,104.48c-.68.25-1.22.79-1.73,1.31l-1,.98c-.75.6-1.56,1.42-1.38,2.37.13.71.83,1.22,1.55,1.31s1.44-.18,2.05-.56c1.15-.7,2.06-1.8,2.52-3.07.22-.61.33-1.33-.03-1.87-.41-.6-1.29-.72-1.98-.47Z"/>
          </g>
          <g>
            <path class="cls-13" d="M284.76,76.98c.32,3.41,3.38,6.14,6.74,6.81,3.36.66,6.87-.42,9.79-2.2,6.44-3.91,12.1-16.48,1.88-19.66-7.22-2.25-19.11,7.6-18.41,15.06Z"/>
            <path class="cls-9" d="M305.12,66.95c-.29-.57-.82-.97-1.33-1.36l-.96-.76c-.61-.58-1.4-1.2-2.2-.94-.6.19-.97.85-.97,1.48,0,.63.31,1.23.71,1.72.73.92,1.79,1.59,2.94,1.85.55.13,1.19.14,1.62-.23.48-.42.49-1.2.19-1.77Z"/>
          </g>
          <g>
            <path class="cls-13" d="M135.47,33.36c-9.09,7.89-14.82-3.2-15.69-6.62-1.92-7.52,2.96-20.86,12.79-15.84,6.94,3.55,8.73,17.4,2.9,22.46Z"/>
            <path class="cls-9" d="M127.51,13.19c.63-.2,1.3-.12,1.96-.04l1.25.13c.87,0,1.89.13,2.3.89.31.57.1,1.33-.36,1.79-.46.46-1.12.68-1.76.76-1.21.15-2.46-.12-3.5-.76-.5-.3-.98-.76-1.02-1.34-.05-.66.51-1.23,1.13-1.44Z"/>
          </g>
          <g>
            <path class="cls-13" d="M297.39,154.34c-10.83,5.26-13.48-6.94-13.44-10.47.1-7.76,8.28-19.37,16.47-11.97,5.78,5.23,3.91,19.07-3.03,22.44Z"/>
            <path class="cls-9" d="M294.95,132.8c.66-.04,1.29.22,1.9.47l1.17.45c.84.23,1.8.62,1.99,1.46.15.63-.25,1.31-.81,1.64-.56.33-1.25.36-1.9.27-1.2-.17-2.35-.76-3.18-1.64-.4-.42-.75-.98-.64-1.56.12-.65.81-1.06,1.47-1.1Z"/>
          </g>
          <g>
            <path class="cls-13" d="M185.56,162.81c-5.56,10.67-14.96,2.46-17.03-.4-4.55-6.29-4.9-20.49,6.08-19.43,7.75.75,14.51,12.98,10.95,19.83Z"/>
            <path class="cls-9" d="M170.76,146.97c.51-.42,1.17-.59,1.8-.76l1.21-.34c.81-.31,1.81-.58,2.47-.01.5.42.58,1.2.32,1.8-.26.6-.79,1.04-1.36,1.35-1.07.58-2.33.79-3.53.58-.57-.1-1.19-.34-1.44-.87-.29-.59.02-1.33.52-1.75Z"/>
          </g>
          <g>
            <path class="cls-16" d="M194.98,148.67l68.06,25.67-2.38,4.37s-15.8.72-36.56-8.18c-20.75-8.9-31.25-17.95-31.25-17.95l2.13-3.91Z"/>
            <path class="cls-5" d="M194.98,148.67c1.27,3.11,27.54,16.17,41.28,20.23,6.03,1.78,20.48,5.5,26.77,5.44-1-1.84-12.89-11.85-28.76-18.66-13.04-5.6-29.38-8.6-39.3-7.01Z"/>
            <path class="cls-3" d="M201.01,150.95c.93,2.93,23.31,12.66,35.22,15.73,5.23,1.35,16.54,5.56,22.11,5.11-.77-1.72-11.93-9.35-25.56-14.95-11.2-4.6-22.89-8.05-31.78-5.9Z"/>
            <path class="cls-5" d="M221.81,155.26s-17.24-4.87-17.51-3.31c-.27,1.56,14.17,4.37,17.51,3.31Z"/>
            <path class="cls-5" d="M237.75,162.09s16.71,6.67,17.13,7.82c.41,1.14-10.44-1.31-17.13-7.82Z"/>
            <path class="cls-5" d="M225.54,157.29s-7.97-.08-6.81,1.59c1.16,1.67,5.26-.03,6.81-1.59Z"/>
            <path class="cls-5" d="M232.84,160.54s4.19,7.23,4.87,5.31c.68-1.91-1.87-3.68-4.87-5.31Z"/>
            <path class="cls-5" d="M229.3,158.62s-4.03.02-4.43,1.59c-.39,1.57,5.96,3.59,6.52,3,.56-.59-2.09-4.59-2.09-4.59Z"/>
          </g>
          <g>
            <path class="cls-16" d="M179.43,62.52l45.41-52.2,3.11,3.57s-4.59,14.33-19.39,29.89c-14.8,15.56-26.34,21.93-26.34,21.93l-2.78-3.19Z"/>
            <path class="cls-5" d="M179.43,62.52c3.2-.11,23.53-19.21,31.7-30.12,3.59-4.79,11.68-16.45,13.71-22.08-1.97.28-14.83,7.58-26.15,19.47-9.31,9.78-17.39,23.36-19.25,32.73Z"/>
            <path class="cls-3" d="M183.45,57.9c2.92.14,19-16.59,25.68-26.2,2.93-4.22,10.43-12.91,11.87-18.03-1.79.12-12.28,7.55-21.78,17.85-7.81,8.47-14.75,17.75-15.77,26.39Z"/>
            <path class="cls-5" d="M194.18,40.78s-10.05,13.76-8.74,14.52c1.3.75,8.59-11.19,8.74-14.52Z"/>
            <path class="cls-5" d="M205.54,28.82s11.48-12.7,12.64-12.69c1.16.01-4.62,8.87-12.64,12.69Z"/>
            <path class="cls-5" d="M197.22,38.12s-2.71,7.08-.84,6.6c1.87-.49,1.72-4.7.84-6.6Z"/>
            <path class="cls-5" d="M202.53,32.69s7.83-1.34,6.35-2.59c-1.48-1.24-3.9.45-6.35,2.59Z"/>
            <path class="cls-5" d="M199.65,35.21s-1.32,3.6-.05,4.47c1.27.87,5.17-4.13,4.83-4.82s-4.78.35-4.78.35Z"/>
          </g>
          <path class="cls-9" d="M7.41,167.94c.72,1.6,2.19,2.68,3.72,3.31,2.17.89,4.59,1.03,6.83.4,2.67-.76,5.13-2.72,6.22-5.46,2.59-6.49-3.32-11.01-8.81-10.87-4.78.12-10.25,7.56-7.97,12.62Z"/>
          <path class="cls-9" d="M138.96,44.41c-1.75.17-3.23,1.22-4.33,2.47-1.54,1.77-2.44,4.02-2.56,6.35-.13,2.78.94,5.72,3.19,7.64,5.33,4.53,11.5.37,13.11-4.88,1.41-4.57-3.9-12.13-9.42-11.58Z"/>
          <path class="cls-9" d="M245.32,13.78c-1.75.17-3.23,1.22-4.33,2.47-1.54,1.77-2.44,4.02-2.56,6.35-.13,2.78.94,5.72,3.19,7.64,5.33,4.53,11.5.37,13.11-4.88,1.41-4.57-3.9-12.13-9.42-11.58Z"/>
          <path class="cls-9" d="M66.56,124.95c-1.75.17-3.23,1.22-4.33,2.47-1.54,1.77-2.44,4.02-2.56,6.35-.13,2.78.94,5.72,3.19,7.64,5.33,4.53,11.5.37,13.11-4.88,1.41-4.57-3.9-12.13-9.42-11.58Z"/>
          <path class="cls-9" d="M271.61,149.92c-1.75.17-3.23,1.22-4.33,2.47-1.54,1.77-2.44,4.02-2.56,6.35-.13,2.78.94,5.72,3.19,7.64,5.33,4.53,11.5.37,13.11-4.88,1.41-4.57-3.9-12.13-9.42-11.58Z"/>
          <path class="cls-9" d="M185.16,186.54c-1.75.17-3.23,1.22-4.33,2.47-1.54,1.77-2.44,4.02-2.56,6.35-.13,2.78.94,5.72,3.19,7.64,5.33,4.53,11.5.37,13.11-4.88,1.41-4.57-3.9-12.13-9.42-11.58Z"/>
          <g>
            <path class="cls-16" d="M137.71,112.08c1.61,10.26,9.78,18.93,19.66,22.13,9.88,3.19,21.07,1.21,29.87-4.3,4.62-2.9,8.78-6.9,10.65-12.03,3.05-8.39-.79-18.02-7.04-24.4-8.56-8.75-23.94-13.88-36.06-10.5-11.12,3.1-18.76,18.34-17.08,29.1Z"/>
            <path class="cls-5" d="M139.68,111.87c1.5,9.6,9.14,17.71,18.39,20.7,9.24,2.99,19.7,1.14,27.94-4.02,4.32-2.71,8.21-6.46,9.96-11.25,2.85-7.85-.74-16.85-6.58-22.82-8.01-8.19-22.39-12.98-33.73-9.82-10.4,2.9-17.55,17.15-15.97,27.22Z"/>
            <path class="cls-3" d="M146,111.2c1.17,7.47,7.12,13.79,14.31,16.11,7.2,2.33,15.34.88,21.75-3.13,3.37-2.11,6.4-5.03,7.75-8.76,2.22-6.11-.58-13.12-5.12-17.77-6.23-6.37-17.43-10.11-26.26-7.65-8.09,2.26-13.66,13.35-12.43,21.19Z"/>
            <path class="cls-5" d="M166.49,114.15s-7.17,11.82-1.43,12.18c5.73.36,1.43-12.18,1.43-12.18Z"/>
            <path class="cls-5" d="M171.53,112.97s1.27,12.87,7.05,10.55c5.78-2.32-7.05-10.55-7.05-10.55Z"/>
            <path class="cls-5" d="M173.36,108.17s12.6-5.91,14.53.67c1.92,6.59-14.53-.67-14.53-.67Z"/>
            <path class="cls-5" d="M170.83,105.73s9.73-7.38,6.77-9.91c-2.96-2.54-6.77,9.91-6.77,9.91Z"/>
            <path class="cls-5" d="M167.44,105.73s1.5-13.16-2-13.02c-3.5.14,2,13.02,2,13.02Z"/>
            <path class="cls-5" d="M162.84,106.81s-7.1-13.12-10.07-10.16,10.07,10.16,10.07,10.16Z"/>
            <path class="cls-5" d="M161.94,109.86s-12.42-3.89-11.78.91c.64,4.8,11.78-.91,11.78-.91Z"/>
            <path class="cls-5" d="M162.84,112.97s-12.32,3.19-9.22,6.41c3.1,3.22,9.22-6.41,9.22-6.41Z"/>
          </g>
          <g>
            <path class="cls-17" d="M178.24,176.59c3.08,0,6.12.32,9.01.97,7.69,1.72,14.94,8.11,14.91,15.99-.02,3.79-1.67,7.38-3.6,10.63-4.38,7.38-10.47,13.82-17.92,18.07-5.89,3.35-12.65,5.28-19.41,5.28-1.79,0-3.59-.14-5.37-.42-3.73-.59-7.44-1.84-10.42-4.17-7.44-5.81-8.52-17.33-4.38-25.81,6.45-13.22,22.37-20.54,37.18-20.54M178.24,173.07c-14.61,0-32.75,6.96-40.34,22.51-5.23,10.7-2.92,23.66,5.37,30.13,3.16,2.47,7.21,4.11,12.04,4.87,1.93.3,3.92.46,5.92.46,7.25,0,14.56-1.98,21.16-5.74,7.64-4.35,14.29-11.04,19.21-19.33,1.89-3.19,4.07-7.49,4.09-12.42.02-4.6-1.96-9.14-5.58-12.8-3.23-3.26-7.52-5.62-12.08-6.64-3.11-.7-6.4-1.05-9.78-1.05h0Z"/>
            <path class="cls-1" d="M161.26,229.29c-1.91,0-3.8-.15-5.67-.44-4.53-.71-8.3-2.23-11.23-4.52-8.71-6.81-9.02-19.49-4.88-27.97h0c8.51-17.43,31.62-24.22,48.16-20.52,7.92,1.78,16.33,8.59,16.29,17.71-.02,4.5-2.07,8.52-3.85,11.52-4.77,8.03-11.19,14.5-18.57,18.7-6.36,3.62-13.38,5.51-20.26,5.51ZM178.27,178.36c-13.77,0-29.24,6.48-35.62,19.54h0c-3.58,7.34-3.11,18.19,3.88,23.65,2.45,1.91,5.68,3.19,9.61,3.81,7.81,1.23,16.2-.42,23.64-4.65,6.85-3.9,12.82-9.93,17.28-17.44,1.55-2.62,3.34-6.09,3.35-9.74.03-7.28-6.95-12.78-13.53-14.26-2.71-.61-5.62-.91-8.6-.91Z"/>
          </g>
          <g>
            <path class="cls-10" d="M290.05,223.33c0,3.25-.17,6.46-.48,9.63-.6,5.72-1.69,11.29-3.26,16.65-.13.47-.27.93-.41,1.39-.73,2.38-1.56,4.73-2.48,7.03-.14.36-.29.73-.44,1.09-1.36,3.32-2.92,6.55-4.65,9.67-1.33,2.39-2.75,4.73-4.29,6.99-2.23,3.33-4.68,6.51-7.32,9.51-.79.92-1.61,1.82-2.45,2.7-.57.61-1.16,1.21-1.75,1.81-4.54,4.54-9.54,8.61-14.93,12.15-14.8,9.73-32.51,15.38-51.54,15.38h-34.11c-19.03,0-36.74-5.65-51.54-15.38-7.12-4.67-13.56-10.29-19.15-16.66-2.64-3.01-5.08-6.19-7.32-9.51-1.53-2.26-2.95-4.59-4.28-6.99-1.72-3.12-3.28-6.35-4.65-9.67-.15-.36-.3-.73-.44-1.09-.92-2.31-1.75-4.65-2.47-7.03-.14-.46-.28-.92-.41-1.39-1.57-5.36-2.67-10.93-3.26-16.65-.31-3.17-.48-6.38-.48-9.63h222.11Z"/>
            <path class="cls-8" d="M289.57,232.96c-.6,5.72-1.69,11.29-3.26,16.65H71.68c-1.57-5.36-2.67-10.93-3.26-16.65h221.15Z"/>
            <path class="cls-8" d="M282.98,259.12c-1.36,3.32-2.92,6.55-4.65,9.67-1.33,2.39-2.75,4.73-4.29,6.99H83.93c-1.53-2.26-2.95-4.59-4.28-6.99-1.72-3.12-3.28-6.35-4.65-9.67h207.98Z"/>
            <path class="cls-8" d="M266.72,285.29c-.79.92-1.61,1.82-2.45,2.7-.57.61-1.16,1.21-1.75,1.81-4.54,4.54-9.54,8.61-14.93,12.15H110.4c-7.12-4.67-13.56-10.29-19.15-16.66h175.47Z"/>
            <path class="cls-11" d="M264.27,287.98c-.56.62-1.15,1.21-1.75,1.81-17.01,17.02-40.5,27.53-66.46,27.53h-34.12c-51.91,0-94-42.09-94-94h36.79c2.94,10.87,8.11,20.93,15.98,29.12,19.11,19.9,45.67,34.75,73.22,36.27,22.59,1.25,42.44-1.38,70.34-.73Z"/>
            <path class="cls-15" d="M223.4,326.68h-88.8c-3.48,0-6.29-2.82-6.29-6.29h0c0-3.48,2.82-6.29,6.29-6.29h88.8c3.48,0,6.29,2.82,6.29,6.29h0c0,3.48-2.82,6.29-6.29,6.29Z"/>
          </g>
          <path class="cls-16" d="M93.97,33.72c.66-1.28,2.77-1.74,3.53-.52-1.74-4.03-3.52-8.27-3.1-12.64.19-1.93,1.05-4.07,2.9-4.66,1.5-.49,3.19.26,4.21,1.47,1.02,1.2,1.48,2.78,1.78,4.32.46,2.33.62,4.72.48,7.08.18-1.11.41-2.3,1.22-3.08.81-.78,2.28-.73,2.87.23,2.39,3.9-.72,16.39-5.33,17.57-4.34,1.11-10.37-5.66-8.57-9.77Z"/>
          <path class="cls-16" d="M155.77,211.82c.54-1.04,2.25-1.42,2.87-.42-1.42-3.27-2.86-6.72-2.52-10.27.15-1.57.86-3.3,2.36-3.79,1.22-.39,2.59.22,3.42,1.19.83.98,1.2,2.26,1.45,3.51.37,1.89.51,3.83.39,5.76.15-.9.33-1.87.99-2.5.66-.63,1.85-.59,2.33.19,1.94,3.17-.58,13.31-4.33,14.27-3.53.9-8.42-4.6-6.96-7.94Z"/>
          <path class="cls-16" d="M26.33,132.69c-1.11-.65-2.92.02-2.91,1.3-.62-3.87-1.32-7.92-3.74-11-1.07-1.36-2.74-2.55-4.42-2.12-1.36.35-2.27,1.73-2.46,3.12-.19,1.39.22,2.8.73,4.11.77,1.97,1.8,3.85,3.04,5.56-.67-.75-1.41-1.53-2.4-1.73s-2.06.55-2.04,1.55c.08,4.08,8.41,11.98,12.44,10.65,3.8-1.25,5.08-9.24,1.75-11.46Z"/>
          <path class="cls-10" d="M118.66,140.02c-5.49-.63-6.39,5.74-.89,12.28,1.29,1.53,3.81.85,4.11-1.13.67-4.41.89-10.67-3.22-11.14Z"/>
          <path class="cls-10" d="M310.39,110.24c-3.54-4.24-8.59-.24-9.11,8.28-.12,2,2.17,3.24,3.76,2.01,3.53-2.73,8-7.12,5.35-10.29Z"/>
          <path class="cls-10" d="M364.59,137.38c.39-5.51-6.02-6.13-12.3-.35-1.47,1.36-.68,3.84,1.31,4.06,4.43.48,10.7.41,10.99-3.71Z"/>
          <path class="cls-10" d="M191.4,71.23c-5.44-.97-6.73,5.34-1.64,12.2,1.19,1.61,3.75,1.08,4.17-.88.94-4.36,1.54-10.6-2.53-11.32Z"/>
          <path class="cls-10" d="M124.01,46.68c-4.22-2.04-6.72,2.82-4.14,9.58.61,1.59,2.81,1.74,3.61.24,1.77-3.34,3.69-8.3.53-9.82Z"/>
          <path class="cls-10" d="M205.19,0c-5.52.14-5.52,6.58.83,12.28,1.49,1.34,3.89.31,3.91-1.7.05-4.46-.61-10.69-4.74-10.58Z"/>
          <path class="cls-10" d="M213.31,123.97c-3.47-4.29-8.58-.38-9.24,8.13-.15,2,2.12,3.27,3.73,2.07,3.57-2.67,8.11-6.99,5.51-10.21Z"/>
          <path class="cls-10" d="M258.05,184.69c-5.52.14-5.52,6.58.83,12.28,1.49,1.34,3.89.31,3.91-1.7.05-4.46-.61-10.69-4.74-10.58Z"/>
          <path class="cls-10" d="M2.79,136.95c-5.15,2-2.97,8.06,4.94,11.27,1.86.75,3.76-1.03,3.11-2.92-1.46-4.21-4.2-9.85-8.05-8.35Z"/>
          <g>
            <path class="cls-17" d="M348.09,130.05s-.03.04-.04.04c-1.46,1.41-3.44,2.12-5.38,2.75-4.11,1.35-8.29,2.51-12.51,3.48,1.44.01,2.93.03,4.24.6,2.05.88,3.64,3.44,1.08,5.72-.68.6-1.53,1-2.42,1.22-7.26,1.84-14.66,3.11-22.11,3.8-.66.07-1.32-.08-1.9-.42-.1-.06-.19-.12-.28-.18-.56-.42-.93-1.02-1.11-1.68-.12-.49-.14-1-.04-1.51,1.35-6.84,3.99-17.18,7.49-21.34.49-.58,1.05-1.18,1.8-1.31,1.45-.25,2.54,1.38,2.76,2.84.23,1.45.04,3.04.82,4.3,1.16-3.35,2.92-6.5,5.19-9.23,1.43-1.73,3.28-3.41,5.53-3.52s4.6,2.18,3.72,4.25c3.45-5.93,9.86-10.05,16.71-10.66.96-.09,1.95.08,2.73.65,1.54,1.14,1.16,2.87.58,4.3-1.87,4.56-5.73,8.27-10.35,9.96,3.44-.95,6.01,3.42,3.46,5.93Z"/>
            <path class="cls-4" d="M349.02,119.54c-.93-.05-1.87-.1-2.81-.15-.44-.02-.89-.04-1.34-.06-.29-.02-.58-.03-.85-.07-1.17.89-2.35,1.77-3.52,2.65-2.99,2.21-6.02,4.41-9.03,6.62,2.9.11,5.82-.39,8.72-.35.54,0,.94.6.89,1.08-.06.57-.55.89-1.08.89-3.63-.04-7.28.73-10.89.13-3.79,2.8-7.54,5.65-11.18,8.63,1.94.27,3.91.3,5.84.52.53.06.94.55.88,1.09-.06.52-.56.94-1.09.88-2.54-.29-5.1-.34-7.61-.85-2.47,2.09-4.88,4.25-7.19,6.5-.56-.42-.93-1.02-1.11-1.68,2.24-2.17,4.57-4.25,6.97-6.27.01-.01.03-.03.05-.04.51-2.54.33-5.18.56-7.74.04-.54.55-.94,1.08-.89.54.05.93.56.88,1.09-.16,1.88-.11,3.81-.27,5.7,3.49-2.85,7.05-5.58,10.66-8.26.01-.05,0-.09.02-.14.83-2.7,1.5-5.45,2.33-8.16.38-1.22,2.23-.51,1.85.7-.58,1.89-1.08,3.8-1.61,5.7,4.22-3.11,8.46-6.2,12.63-9.36.03-.47.17-.96.25-1.38.17-.9.35-1.8.53-2.69.1-.53.51-.94,1.08-.89.49.05.99.56.89,1.08-.14.69-.28,1.38-.42,2.08,1.22-.94,2.43-1.89,3.63-2.85.99-.8,2.22.75,1.23,1.54-1.19.96-2.41,1.9-3.61,2.84.95.05,1.88.09,2.83.13.53.03.93.57.88,1.09-.06.54-.56.91-1.09.88Z"/>
          </g>
          <g>
            <path class="cls-17" d="M148.31,143.94s.01.04.01.05c.35,1.8-.08,3.65-.55,5.43-1,3.78-2.16,7.51-3.49,11.19.71-1.08,1.46-2.2,2.53-2.92,1.67-1.12,4.39-1.08,4.86,1.98.13.81,0,1.65-.26,2.43-2.16,6.41-4.83,12.64-7.96,18.63-.27.53-.71.96-1.25,1.24-.09.04-.18.09-.28.12-.59.22-1.23.21-1.81.02-.43-.15-.83-.39-1.16-.71-4.52-4.38-11.07-11.45-12.51-16.14-.2-.65-.38-1.38-.11-2.01.52-1.22,2.29-1.25,3.51-.7,1.21.54,2.32,1.46,3.66,1.49-1.98-2.52-3.49-5.4-4.45-8.46-.61-1.94-.97-4.16.04-5.92,1.02-1.76,3.91-2.42,5.05-.74-2.8-5.53-2.79-12.41.11-17.9.4-.77,1.02-1.44,1.84-1.75,1.62-.61,2.75.53,3.54,1.66,2.54,3.66,3.46,8.4,2.48,12.74.97-3.08,5.54-2.88,6.19.28Z"/>
            <path class="cls-4" d="M140.8,138.09c-.49.68-.99,1.37-1.49,2.05-.23.33-.47.66-.7.98-.16.21-.3.42-.47.61.1,1.32.19,2.65.28,3.97.21,3.36.39,6.72.59,10.09,1.51-2.15,2.56-4.6,4.01-6.79.27-.4.91-.42,1.26-.14.4.32.41.86.14,1.26-1.82,2.73-3.02,5.88-5.24,8.33.27,4.25.59,8.49,1.07,12.71,1.15-1.34,2.14-2.82,3.26-4.17.31-.37.88-.44,1.26-.14.37.3.44.88.14,1.26-1.47,1.78-2.75,3.7-4.37,5.35.37,2.89.83,5.78,1.4,8.64-.59.22-1.23.21-1.81.02-.55-2.77-.98-5.55-1.34-8.36,0-.01,0-.04,0-.06-1.68-1.64-3.76-2.79-5.6-4.22-.39-.29-.44-.88-.14-1.26.3-.38.88-.43,1.26-.14,1.35,1.05,2.83,1.95,4.19,3-.45-4.04-.77-8.08-1.04-12.13-.03-.03-.07-.04-.1-.08-1.64-1.96-3.4-3.81-5.05-5.77-.74-.89.71-1.94,1.44-1.06,1.15,1.36,2.35,2.68,3.53,4.02-.29-4.72-.55-9.45-.9-14.17-.34-.25-.65-.6-.92-.87-.59-.57-1.19-1.15-1.78-1.72-.35-.33-.46-.85-.14-1.26.28-.35.91-.48,1.26-.14.46.44.91.89,1.37,1.33-.12-1.38-.24-2.77-.38-4.15-.13-1.14,1.65-1.32,1.77-.17.15,1.37.26,2.76.38,4.13.5-.69.99-1.39,1.49-2.08.28-.39.89-.43,1.26-.14.38.31.42.87.14,1.26Z"/>
          </g>
          <path class="cls-7" d="M231.43,183.38c-1.05-2.41-2.74-4.54-3.4-7.08l-4.07.96c-3.79.78-7.48,2.04-10.96,3.73-.67.33-1.37.71-1.74,1.36-.54.98-.14,2.19.27,3.23.98,2.5,1.96,5,2.94,7.49,3.63-.22,7.26-.44,10.9-.66,1.95-.12,4.08-.31,5.49-1.67,1.89-1.82,1.63-4.96.58-7.37Z"/>
          <path class="cls-7" d="M69.41,70.52c-1.87.98-3.48,2.45-5.47,3.12l1,3.2c.84,2.99,2.05,5.87,3.6,8.55.3.52.64,1.06,1.19,1.31.81.38,1.76-.01,2.57-.4,1.94-.92,3.88-1.85,5.83-2.77-.38-2.89-.76-5.78-1.14-8.68-.2-1.55-.48-3.25-1.64-4.29-1.56-1.41-4.06-1.03-5.93-.05Z"/>
          <path class="cls-7" d="M208.36,56.35c-2.1-.11-4.24.34-6.3-.1l-.77,3.26c-.8,3-1.22,6.09-1.25,9.2,0,.6.01,1.24.35,1.73.51.74,1.52.89,2.41.97,2.14.19,4.28.39,6.43.58,1.14-2.68,2.29-5.37,3.43-8.05.61-1.44,1.24-3.04.77-4.53-.63-2.01-2.97-2.95-5.08-3.06Z"/>
          <path class="cls-7" d="M340.88,149.59c-1.81-1.07-3.91-1.66-5.54-3l-2.19,2.54c-2.1,2.29-3.9,4.84-5.37,7.57-.28.53-.56,1.1-.49,1.7.11.89.94,1.49,1.69,1.97l5.43,3.49,6.77-5.55c1.21-.99,2.5-2.12,2.78-3.66.37-2.07-1.27-3.99-3.08-5.06Z"/>
        </g>
      </g>
    </g>
  </g>
</svg>