<?xml version="1.0" encoding="UTF-8"?>
<svg xmlns="http://www.w3.org/2000/svg" viewBox="0 0 472.28 333.52">
  <defs>
    <style>
      .cls-1, .cls-2, .cls-3, .cls-4, .cls-5, .cls-6, .cls-7, .cls-8, .cls-9, .cls-10, .cls-11, .cls-12, .cls-13 {
        mix-blend-mode: multiply;
      }

      .cls-1, .cls-14, .cls-5, .cls-6, .cls-15, .cls-7, .cls-16, .cls-8, .cls-17, .cls-18, .cls-19, .cls-9, .cls-10, .cls-20, .cls-11, .cls-21, .cls-22, .cls-23, .cls-24, .cls-12, .cls-13 {
        stroke-width: 0px;
      }

      .cls-1, .cls-4 {
        opacity: .2;
      }

      .cls-1, .cls-25, .cls-24, .cls-12, .cls-13 {
        fill: #79874e;
      }

      .cls-2 {
        opacity: .28;
      }

      .cls-14, .cls-17 {
        fill: #cb7433;
      }

      .cls-3 {
        opacity: .32;
      }

      .cls-26 {
        isolation: isolate;
      }

      .cls-5 {
        fill: #537b9e;
      }

      .cls-5, .cls-6, .cls-7 {
        opacity: .49;
      }

      .cls-6, .cls-8, .cls-19, .cls-10, .cls-11 {
        fill: #233a2b;
      }

      .cls-15, .cls-18 {
        fill: #eec130;
      }

      .cls-7, .cls-21 {
        fill: #e9e4be;
      }

      .cls-25 {
        stroke: #79874e;
        stroke-linecap: round;
        stroke-linejoin: round;
        stroke-width: 1.42px;
      }

      .cls-16, .cls-9 {
        fill: #1a3549;
      }

      .cls-8 {
        opacity: .19;
      }

      .cls-17 {
        mix-blend-mode: screen;
        opacity: .4;
      }

      .cls-18 {
        opacity: .54;
      }

      .cls-9 {
        opacity: .1;
      }

      .cls-10, .cls-13 {
        opacity: .24;
      }

      .cls-20 {
        fill: #df6f4f;
      }

      .cls-11 {
        opacity: .22;
      }

      .cls-22 {
        fill: #bc5037;
      }

      .cls-23 {
        fill: #fcfcfc;
      }

      .cls-12 {
        opacity: .3;
      }
    </style>
  </defs>
  <g class="cls-26">
    <g id="Layer_2" data-name="Layer 2">
      <g id="PRINT">
        <g>
          <path class="cls-7" d="M384.68,308.48c8.88-.16,17.77-.49,26.65-.43,6.07.04,12.14-.14,18.21-.39,8.28-.33,16.54.18,24.8,1.01,4.21.42,8.4,1.29,12.54,2.57,1.03.32,2.04.75,3.06,1.16.78.32,1.45.91,1.97,1.77.36.58.55,1.25.16,1.98-.46.87-.82,1.82-1.45,2.54-.95,1.08-1.97,1.97-3.07,2.76-3.91,2.85-8.14,4.41-12.41,5.78-5.3,1.7-10.68,2.7-16.11,3.34-11.3,1.33-22.63,1.67-33.97,2.15-9.4.4-18.81.7-28.22.79-5.36.05-10.73-.05-16.09-.06-4.66-.01-9.32.19-13.98-.06-4.83-.26-9.67-.14-14.5-.8-2.27-.31-4.56-.33-6.85-.61-5.8-.7-11.49-2.28-17.12-4.31-2.39-.86-4.68-2.19-6.89-3.73-1.51-1.05-2.9-2.35-3.8-4.43-.44-1.01-.38-1.76.23-2.58.77-1.05,1.75-1.55,2.77-1.96,3.62-1.46,7.33-2.45,11.07-3.13,10.64-1.95,21.35-2.66,32.1-2.52,4.66.06,9.32-.13,13.98-.29,8.97-.32,17.94-.37,26.92-.54h0Z"/>
          <g>
            <path class="cls-22" d="M229.55,207.89c-.25-.75.23-1.07.58-1.44,2.28-2.46,4.92-4.52,7.47-6.67,7.75-6.51,15.95-12.42,24.36-18.03,6.81-4.54,13.79-8.8,20.87-12.89,9.9-5.72,19.83-11.42,30.02-16.61,9.25-4.71,18.62-9.21,28.18-13.3,5.58-2.39,11.16-4.81,16.8-7.05,5.89-2.34,11.82-4.56,17.84-6.55,4.43-1.46,8.79-3.11,13.22-4.58,5.42-1.81,10.86-3.58,16.34-5.22,6.58-1.96,13.2-3.73,19.88-5.29,9.08-2.12,18.23-3.85,27.5-4.91.96-.11,1.93-.18,2.89-.21.57-.02,1.41-.33,1.56.44.11.57-.96.39-1.16.79-.47.97-1.55,1.07-2.2,1.78-1.43,1.54-3.02,2.94-4.42,4.52-4.91,5.52-10.17,10.7-15.65,15.63-4.38,3.94-9.1,7.48-13.88,10.91-4.07,2.92-8.16,5.82-12.32,8.61-3.72,2.49-7.56,4.83-11.35,7.22-.66.41-1.36.66-1.47,1.67-.07.67-.77,1.14-1.37,1.53-1.62,1.06-3.18,2.22-4.88,3.14-5.09,2.79-10.19,5.58-15.37,8.19-6.13,3.09-12.47,5.71-18.81,8.35-3.16,1.32-6.21,2.92-9.31,4.39-8.19,3.9-16.6,7.26-25.19,10.16-2.67.9-5.31,1.87-8.06,2.49-.93.21-1.87.5-2.77-.17-.38-.29-.84-.09-1.26.05-6.71,2.14-13.49,4.02-20.33,5.64-4.53,1.07-9.11,1.95-13.66,2.94-6.63,1.45-13.35,2.24-20.1,2.71-5.17.36-10.36.4-15.54.58-2.85.1-5.68.28-8.41,1.17Z"/>
            <g>
              <g>
                <path class="cls-15" d="M375.14,145.55c-2.62-8.62-8.19-14.69-16.54-17.99-4.72-1.87-9.72-2.19-14.78-1.57-1.5.19-2.89.67-4.33,1.05-2.92.77-5.62,2.04-8.08,3.76-5.67,3.97-9.54,9.28-11.55,15.91-.19.59-.39,1.17-.56,1.76-3.36,11.64,1.02,24.66,10.73,31.37,4.49,3.1,9.45,4.77,14.82,4.72,6.68-.06,12.99-1.68,18.56-5.64,5.04-3.58,8.58-8.28,10.79-14,2.45-6.35,2.91-12.84.93-19.39Z"/>
                <path class="cls-23" d="M371.92,153.83c.12-5.83-1.48-11.1-5.07-15.75-1.61-2.08-3.74-3.4-5.97-4.67-4.29-2.47-8.82-3.92-13.83-3.48-5.18.45-10,1.89-14.19,5.11-4.47,3.43-7.51,7.83-8.89,12.6-.81,2.48-1.42,4.31-1.59,6.26-.52,6.05,1.13,11.5,4.55,16.43,1.72,2.49,3.97,4.42,6.68,5.84,2.2,1.15,4.5,1.96,6.86,2.69,2.85.89,5.71.96,8.6.39,4.12-.8,7.92-2.39,11.31-4.86,6.98-5.08,11.37-11.65,11.55-20.56Z"/>
                <path class="cls-9" d="M360.89,133.41c2.22,1.28,4.36,2.59,5.97,4.67,3.59,4.65,5.19,9.92,5.07,15.75-.18,8.91-4.57,15.49-11.55,20.56-3.39,2.47-7.19,4.06-11.31,4.86-2.89.57-5.75.5-8.6-.39-2.36-.74-4.66-1.54-6.86-2.69-2.72-1.42-4.96-3.36-6.68-5.84-3.06-4.42-4.7-9.25-4.64-14.55,0,0,15.17.07,24.82-9.41,9.65-9.47,13.78-12.96,13.78-12.96Z"/>
              </g>
              <g>
                <path class="cls-24" d="M340.07,134.39c-.96.02-1.84-.31-2.74-.54-7.01-1.8-13.74-4.31-20.31-7.24-3.71-1.65-7.42-3.3-10.86-5.47-4.29-2.71-8.43-5.62-11.8-9.48-1.12-1.28-1.98-2.74-2.69-4.3-.57-1.25-.89-2.58-1.03-3.96-.53-5.3,3.82-9.87,9.02-9.41,2.96.26,5.62,1.29,8.16,2.66,2.44,1.31,4.79,2.76,7.19,4.16.28-.61-.16-.99-.39-1.4-1.37-2.45-2.48-5.03-3.52-7.65-2.04-5.13-3.11-10.48-2.91-16.12.07-2.09.43-4.15,1.07-6.16,1.06-3.35,3.18-5.8,6.38-7.29.96-.45,1.94-.68,3-.68,2.38.01,4.55.72,6.52,1.9,1.74,1.04,3.29,2.35,4.66,3.87,3.5,3.86,6.16,8.25,7.86,13.25.58,1.7,1.07,3.42,1.63,5.13.07.21.27.46.46.51.29.08.4-.22.48-.47.34-1.09.65-2.18,1.02-3.25.83-2.38,2.29-4.35,4.19-5.98,2.56-2.19,5.44-2.76,8.44-1.5,4.11,1.74,7.23,4.55,8.96,8.83,2.16,5.33,2.22,10.86,1.06,16.53-.97,4.75-3.03,9.11-5.27,13.37-3.78,7.17-8.32,13.85-13.62,20.01-.11.13-.25.24-.38.37-.69-1.95-1.01-3.98-1.1-6.06-.07-1.63-.15-3.27-.09-4.91.21-5.64.8-11.25,2.66-16.68,1.05-3.05,1.96-6.14,3.4-9.07,1.34-2.74,2.36-5.64,3.54-8.46.24-.57.46-1.15.38-1.76-.03-.21-.23-.48-.42-.56-.19-.08-.57-.05-.71.09-1.1,1.14-2.23,2.32-2.85,3.77-1.61,3.78-3.44,7.46-4.76,11.36-1.52,4.49-2.89,8.98-3.24,13.7-.06.86-.31,1.71-.5,2.56-.03.14-.19.3-.32.37-.3.15-.49-.06-.61-.29-.2-.37-.39-.76-.51-1.17-1.46-5.11-3.59-9.94-5.6-14.8-1.92-4.64-3.92-9.26-6.4-13.62-1.17-2.06-2.37-4.11-3.53-6.17-.42-.76-.95-1.39-1.68-1.86-.63-.4-1.63-.22-2.06.42-.34.52-.17,1.03.22,1.39.96.9,1.25,2.2,1.89,3.29,2.85,4.84,4.71,10.18,6.88,15.36,1.97,4.7,3.59,9.56,5.34,14.36.99,2.72,1.93,5.46,2.88,8.19.04.12-.05.36-.15.45-.08.06-.36.01-.42-.08-.86-1.41-2.25-2.26-3.47-3.28-.51-.43-.99-.92-1.43-1.42-1.29-1.47-2.77-2.7-4.58-3.5-.38-.17-.76-.37-1.1-.62-2.55-1.8-5.36-3.14-8.18-4.43-2.91-1.33-5.9-2.5-8.85-3.74-.54-.23-1.06-.52-1.62-.71-.96-.33-1.67-.07-1.96.67-.22.56.09,1.12.98,1.56,2.56,1.26,5.17,2.44,7.71,3.74,2.92,1.49,5.88,2.89,8.79,4.39,1.72.89,3.3,2,5.01,2.9,1.92,1,3.68,2.41,5.13,4.07.62.7,1.21,1.42,1.98,1.93,1.37.9,2.29,2.25,3.29,3.47,1.06,1.31,1.51,3.02,1.73,4.74.03.22-.18.48-.29.72Z"/>
                <path class="cls-12" d="M362.86,83.81c2.16,5.33,2.22,10.86,1.06,16.53-.97,4.75-3.03,9.11-5.27,13.37-3.78,7.17-8.32,13.85-13.62,20.01-.11.13-.25.24-.38.37-.69-1.95-1.01-3.98-1.1-6.06-.07-1.63-.15-3.27-.09-4.91.21-5.64.8-11.25,2.66-16.68,1.05-3.05,1.96-6.14,3.4-9.07,1.34-2.74,2.36-5.64,3.54-8.46.24-.57.46-1.15.38-1.76-.03-.21-.23-.48-.42-.56-.19-.08-.57-.05-.71.09-1.1,1.14-2.23,2.32-2.85,3.77-1.61,3.78-3.44,7.46-4.76,11.36-1.52,4.49-2.89,8.98-3.24,13.7-.06.86-.31,1.71-.5,2.56-.03.14-.19.3-.32.37-.3.15-.49-.06-.61-.29-.2-.37-.39-.76-.51-1.17-1.46-5.11-3.59-9.94-5.6-14.8-1.92-4.64-3.92-9.26-6.4-13.62-1.17-2.06-2.37-4.11-3.53-6.17-.42-.76-.95-1.39-1.68-1.86-.63-.4-1.63-.22-2.06.42-.34.52-.17,1.03.22,1.39.96.9,1.25,2.2,1.89,3.29,2.85,4.84,4.71,10.18,6.88,15.36,1.97,4.7,3.59,9.56,5.34,14.36.99,2.72,1.93,5.46,2.88,8.19.04.12-.05.36-.15.45-.08.06-.36.01-.42-.08-.86-1.41-2.25-2.26-3.47-3.28-.51-.43-.99-.92-1.43-1.42-1.29-1.47-2.77-2.7-4.58-3.5-.38-.17-.76-.37-1.1-.62-2.55-1.8-5.36-3.14-8.18-4.43-2.91-1.33-5.9-2.5-8.85-3.74-.54-.23-1.06-.52-1.62-.71-.96-.33-1.67-.07-1.96.67-.22.56.09,1.12.98,1.56,2.56,1.26,5.17,2.44,7.71,3.74,2.92,1.49,5.88,2.89,8.79,4.39,1.72.89,3.3,2,5.01,2.9,1.92,1,3.68,2.41,5.13,4.07.62.7,1.21,1.42,1.98,1.93,1.37.9,2.29,2.25,3.29,3.47,1.06,1.31,1.51,3.02,1.73,4.74.03.22-.18.48-.29.72-.96.02-1.84-.31-2.74-.54-7.01-1.8-13.74-4.31-20.31-7.24-3.71-1.65-7.42-3.3-10.86-5.47-4.29-2.71-8.43-5.62-11.8-9.48,0,0,18.4,10.16,44.35-4.31,25.95-14.47,24.15-23.55,24.15-23.55Z"/>
                <path class="cls-19" d="M340.07,134.39c.1-.24.31-.5.29-.72-.22-1.72-.67-3.44-1.73-4.74-.99-1.23-1.92-2.57-3.29-3.47-.77-.51-1.36-1.23-1.98-1.93-1.46-1.65-3.21-3.07-5.13-4.07-1.72-.89-3.29-2.01-5.01-2.9-2.91-1.5-5.88-2.9-8.79-4.39-2.54-1.3-5.15-2.48-7.71-3.74-.89-.43-1.2-1-.98-1.56.29-.74.99-1.01,1.96-.67.56.19,1.08.48,1.62.71,2.95,1.24,5.94,2.41,8.85,3.74,2.83,1.29,5.64,2.63,8.18,4.43.34.24.72.45,1.1.62,1.81.8,3.28,2.03,4.58,3.5.44.5.92.99,1.43,1.42,1.22,1.03,2.61,1.87,3.47,3.28.06.09.34.14.42.08.11-.09.2-.33.15-.45-.95-2.74-1.89-5.47-2.88-8.19-1.75-4.8-3.37-9.66-5.34-14.36-2.16-5.18-4.03-10.51-6.88-15.36-.64-1.09-.93-2.39-1.89-3.29-.39-.36-.57-.88-.22-1.39.43-.65,1.43-.83,2.06-.42.73.46,1.26,1.1,1.68,1.86,1.16,2.07,2.35,4.11,3.53,6.17,2.48,4.36,4.48,8.98,6.4,13.62,2.02,4.87,4.14,9.7,5.6,14.8.12.41.31.79.51,1.17.12.22.31.43.61.29.14-.07.29-.23.32-.37.19-.85.44-1.7.5-2.56.35-4.72,1.72-9.21,3.24-13.7,1.32-3.9,3.16-7.58,4.76-11.36.62-1.45,1.75-2.63,2.85-3.77.13-.14.51-.17.71-.09.19.08.4.35.42.56.08.61-.14,1.19-.38,1.76-1.18,2.82-2.19,5.72-3.54,8.46-1.44,2.93-2.35,6.02-3.4,9.07-1.87,5.43-2.45,11.04-2.66,16.68-.06,1.64.02,3.28.09,4.91.08,2.08.41,4.11,1.1,6.06.66,3.09,1.35,6.18,1.98,9.28.48,2.35.7,4.75.77,7.16,0,.34-.02.68-.07,1.02-.05.3-.3.42-.56.46-.15.02-.36-.01-.47-.11-.46-.4-.66-.97-.83-1.54-.55-1.88-1.08-3.77-1.62-5.66-.85-2.95-1.72-5.9-2.57-8.85-.2-.68-.46-1.28-1.22-1.46Z"/>
              </g>
              <g>
                <path class="cls-23" d="M346.33.82c2.31,1.15,3.45,3.02,4.14,5.19.9,2.83,1.06,5.74.58,8.66-.42,2.53-.88,5.06-1.53,7.53-1.99,7.5-2.15,14.96.12,22.43.13.44.23.93.17,1.37-.04.28-.35.64-.62.75-.26.11-.69.03-.95-.13-.28-.17-.47-.51-.65-.8-2.31-3.79-4.68-7.53-6.88-11.38-2.91-5.09-5.24-10.43-6.04-16.32-.58-4.24-.24-8.38,1.42-12.35,1.32-3.18,3.96-4.78,7.1-5.66,1.18-.33,2.3.16,3.15.71Z"/>
                <path class="cls-23" d="M321.13,18.84c2.48,1.38,4.56,3.23,6.27,5.48,2.47,3.26,4.55,6.76,6.13,10.54,1.53,3.65,3.11,7.28,4.67,10.92.18.43.41.85.5,1.3.08.46-.04.95-.5,1.2-.46.26-.9.18-1.17-.3-1.83-3.26-5.09-4.68-8.21-6.19-3.56-1.73-7.25-3.19-10.83-4.88-2.63-1.25-5.24-2.58-7.26-4.77-2.76-2.99-3.68-6.39-2.26-10.31.98-2.7,3.45-4.55,6.35-4.71,2.14-.12,3.82.34,6.31,1.72Z"/>
              </g>
              <g>
                <path class="cls-23" d="M278.67,56.5c-1.34-.89-2.7-1.77-3.94-2.79-2.29-1.9-4.65-3.71-6.9-5.66-4.8-4.17-9.78-8.13-14.69-12.18-4.1-3.39-8.3-6.63-12.63-9.72-1-.71-2.08-1.22-3.15-1.77-.38-.19-.77-.21-1.17-.05-1.17,3.2-1.54,6.55-1.7,9.93-.2,4.13.29,8.2,1.23,12.21.46,1.95,1.37,3.76,2.23,5.59.97,2.07,2.13,3.96,3.56,5.72,2.79,3.44,6.17,6.13,10.26,7.87,2.41,1.02,5,1.19,7.57,1.41,2.59.23,5.14-.16,7.67-.63,1.34-.25,2.69-.43,4.01-.84,2.89-.89,5.39-2.52,7.96-3.99.98-.56,2.07-.9,2.95-1.63-.85-1.38-1.89-2.56-3.26-3.46Z"/>
                <path class="cls-15" d="M236.18,24.32c-1.17,3.2-1.54,6.55-1.7,9.93-.2,4.13.29,8.2,1.23,12.21.46,1.95,1.37,3.76,2.23,5.59.97,2.07,2.13,3.96,3.56,5.72,2.79,3.44,6.17,6.13,10.26,7.87,2.41,1.02,5,1.19,7.57,1.41,2.59.23,5.14-.16,7.67-.63,1.34-.25,2.69-.43,4.01-.84,2.89-.89,5.39-2.52,7.96-3.99.98-.56,2.07-.9,2.95-1.63.46.31.96.58,1.38.95,1.2,1.06,1.28,2.28.01,3.28-2.02,1.59-3.88,3.39-6.04,4.8-4.59,3-9.61,4.85-15,5.72-2.73.44-5.45.23-8.14-.44-8.99-2.23-15.78-7.45-20.6-15.27-2.61-4.24-4.09-8.92-4.74-13.84-.59-4.42-.4-8.81.51-13.17.53-2.52,1-5.05,1.49-7.58.11-.56.21-1.1.64-1.52.5-.49,1.04-.78,1.73-.47,1.09.5,2.23.94,3.04,1.89Z"/>
                <path class="cls-18" d="M252.61,47.82c.42-.1.65-.17.89-.2.73-.11,1.27.51.96,1.2-.89,1.97-1.77,3.96-2.8,5.87-.53.98-1.4,1.71-2.69,1.72-1.69.01-2.7-1.17-2.3-2.81.11-.46.31-.93.58-1.31,1.43-2,3.39-3.37,5.35-4.47Z"/>
                <path class="cls-18" d="M259.69,51.04c.57-.15.97-.11,1.2.3.15.27.31.59.31.89.01,2.45-.42,4.8-1.73,6.91-.72,1.15-2.2,1.48-3.38.8-.37-.21-.58-.54-.72-.93-.34-.98-.24-1.94.33-2.77,1.08-1.59,2.24-3.13,3.38-4.68.18-.24.48-.41.61-.52Z"/>
                <path class="cls-18" d="M268.96,55.37c.07,1.58.65,3.58-.4,5.49-.23.42-.48.89-.85,1.14-.73.48-1.58.92-2.48.45-.9-.47-1.09-1.4-1.05-2.28.03-.79.25-1.6.54-2.33.45-1.12,1.02-2.19,1.56-3.26.26-.53.61-.92,1.31-.83.74.1.99.31,1.37,1.63Z"/>
                <path class="cls-18" d="M245.71,41.57c.7-.17,1.4-.37,2.11-.49.49-.08.93.5.78.96-.13.38-.27.77-.49,1.1-1.13,1.71-2.78,2.89-4.37,4.13-.24.19-.59.26-.91.31-1.33.22-2.42-.93-2.08-2.22.23-.87.59-1.67,1.48-2.11.5-.25.94-.63,1.45-.86.66-.29,1.37-.49,2.05-.73,0-.03-.02-.06-.02-.08Z"/>
                <path class="cls-18" d="M242.23,38.12c-.76.26-1.5.57-2.27.78-.73.19-1.27-.11-1.59-.74-.39-.76-.3-1.43.22-1.99.46-.5,1.05-.79,1.69-.84,1.67-.13,3.35-.18,5.03-.26.35-.02.64.12.78.44.2.44-.03.79-.38,1.02-.46.31-.93.62-1.44.84-.66.29-1.36.49-2.04.72,0,0,0,.02,0,.03Z"/>
              </g>
              <g>
                <path class="cls-24" d="M405.15,139.84c-.22-.22-.46-.41-.65-.65-5-6.06-11.31-10.58-17.71-14.98-3.03-2.08-6.04-4.19-9.05-6.3-1.61-1.13-2.9-2.57-3.98-4.2-.45-.68-.97-1.32-1.42-2-.56-.85-1.18-1.68-1.61-2.6-1.72-3.65-1.17-4.74,1.4-7.31,1.13-1.13,2.65-1.89,4.01-2.78.68-.45,1.43-.79,2.12-1.22,1.07-.67,1.24-1.55.45-2.54-.95-1.21-2.11-2.21-3.31-3.17-3.57-2.83-6.45-6.25-8.39-10.4-.96-2.05-1.68-4.17-1.73-6.47-.07-2.85.86-5.16,3.43-6.72,1.02-.62,2.07-.89,3.18-.89,1.42,0,2.85.19,4.27.27.59.03,1.16.44,1.85,0,.11-.77-.61-1.16-.92-1.73-.34-.63-.77-1.2-1.13-1.82-4.92-8.45-6.46-17.31-3.28-26.76,1.02-3.05,2.72-5.7,4.91-8,1.83-1.92,4.09-3.35,6.61-4.22,2.05-.71,4.19-.69,6.32-.21,2.95.67,5.57,2.03,7.82,4.02,2.3,2.03,4.32,4.3,5.87,7.01,3.26,5.73,5.62,11.78,7.02,18.22.17.79.43,1.56.66,2.33.02.08.15.12.34.26,1.49-1.78,3.15-3.43,5.28-4.42,2.7-1.25,5.45-2.33,8.53-1.51,2.78.74,4.67,2.4,5.58,5.16.62,1.88.71,3.79.48,5.75-.49,4.28-1.87,8.33-3.1,12.43-.15.49-.39.94-.21,1.49.28.06.57.16.88.2,3.62.41,5.89,2.57,7.39,5.71,1.41,2.97,1.69,6.14,1.03,9.29-.6,2.88-1.6,5.66-2.87,8.36-3.23,6.86-7.57,13.04-11.66,19.38-1.83,2.83-3.54,5.72-5.08,8.71-1.55,2.99-3.05,5.99-4.52,9.02-.53,1.1-.8,2.32-1.34,3.41-.66,1.32-.9,2.99-2.61,3.55-.1-3.35.09-6.75-.38-10.05-.56-3.92.72-7.2,2.53-10.44.44-.8.96-1.56,1.46-2.33,3.59-5.58,7.89-10.61,12.19-15.63,1.26-1.47,2.55-2.91,3.81-4.38.17-.2.37-.47.05-.75-.29-.24-.58-.14-.84,0-.26.15-.51.35-.72.56-1.34,1.39-2.69,2.78-4,4.2-2.7,2.9-5.06,6.12-7.97,8.83-.14-.02-.27-.03-.4-.05.06-.29.07-.61.19-.88,1.9-4.18,3.84-8.35,6.08-12.36,2.79-4.99,5.81-9.84,8.95-14.62.41-.62,1.17-1.25.64-2.19-.27-.48-.96-.06-1.97,1.37-3.54,5-6.96,10.08-9.87,15.48-.47.87-.71,1.93-1.77,2.59.05-.51.04-.92.14-1.31,1.7-6.65,2.6-13.44,3.59-20.21.1-.7.14-1.42.16-2.13,0-.31-.18-.6-.51-.63-.32-.04-.62.13-.69.46-.44,2.41-.88,4.82-1.3,7.24-2.17,12.39-4.72,24.68-9.53,36.38-.1.24-.1.65-.58.54-.51-.58-.37-1.32-.43-2.01-.55-6.71-.96-13.45-2.28-20.06-.62-3.14-.38-6.07.62-9.02.23-.68.46-1.36.64-2.05,1.22-4.82,3.98-8.69,7.48-12.08,3.01-2.91,6.11-5.73,9.17-8.59.22-.21.48-.39.67-.63.28-.35.97-.67.43-1.2-.45-.44-.93.02-1.35.27-1.51.88-2.83,2.01-4.11,3.19-1.86,1.72-3.71,3.45-5.86,5.46.12-1.34.61-2.08,1.08-2.83,2.14-3.35,4.28-6.71,6.43-10.06.39-.6.83-1.17.93-1.9.02-.15-.11-.39-.24-.49-.13-.1-.43-.16-.53-.08-.4.3-.83.61-1.1,1.01-3.24,4.83-6.74,9.49-9.38,14.7-.26.52-.37,1.18-1.25,1.32.18-1.45.37-2.86.53-4.26.25-2.13.5-4.26.7-6.4.06-.7,0-1.43-.1-2.13-.03-.23-.34-.51-.59-.61-.38-.16-.55.2-.61.49-.08.39-.07.81-.11,1.21-.68,6.92-1.55,13.81-3.32,20.56-.28,1.08-.5,2.19-1.08,3.17-.29-.03-.58-.06-.87-.1-.08-.19-.2-.36-.25-.56-1.14-4.45-2.28-8.91-3.4-13.36-.17-.69-.29-1.4-.34-2.11-.26-3.67-.48-7.34-.33-11.03.21-5.11.65-10.2,1.17-15.29.06-.59.38-1.22-.16-1.74-.3-.3-.95.55-1.16,1.56-.08.4-.13.81-.19,1.21-.76,5.37-1.36,10.75-1.31,16.18,0,.58.21,1.22-.41,1.75-.79-.44-.89-1.3-1.15-2.04-2.03-5.57-4.3-11.04-6.7-16.46-.66-1.49-1.28-3.02-2.34-4.29-.25-.3-.61-.6-1.02-.21-.23.22-.31.51-.16.83.22.46.42.93.63,1.39,2.29,4.91,4.17,9.99,6.02,15.08.3.82.8,1.66.54,2.74-.31-.25-.58-.37-.72-.58-2.26-3.43-5.18-6.32-7.72-9.52-1.46-1.84-3.12-3.51-4.7-5.26-.55-.61-1.15-1.18-1.97-1.41-.27-.08-.63-.08-.76.29-.06.16-.06.38,0,.54.07.18.21.35.35.49,5.26,5.45,9.86,11.46,14.54,17.4,2.24,2.84,3.93,5.86,4.8,9.45,1.68,6.97,2.75,14.03,3.71,21.12.05.4.06.82.11,1.22.07.45-.05.86-.48.98-.18.05-.54-.22-.7-.43-1.07-1.49-2.07-3.04-3.18-4.49-1.36-1.78-2.53-3.58-3.24-5.79-2.27-7.1-5.16-13.99-7.31-21.13-.06-.2-.12-.39-.19-.58-.16-.41-.47-.76-.89-.59-.4.16-.43.64-.34,1.06.11.5.19,1.01.34,1.49.38,1.27.75,2.55,1.18,3.8,1.46,4.25,2.95,8.49,4.39,12.75.16.49.73,1.08-.11,1.64-2.22-2.38-4.47-4.76-6.68-7.17-2.24-2.43-4.93-4.26-7.78-5.89-.53-.3-1.11-.52-1.67-.74-.31-.12-.58,0-.81.22-.28.28-.18.62.01.81.58.57,1.18,1.14,1.84,1.61,2.92,2.08,5.69,4.32,7.96,7.13,1.8,2.22,3.61,4.44,5.53,6.56,5.48,6.06,9.46,13.03,12.8,20.43.43.94.66,1.92.7,2.96.11,2.35.26,4.69.38,7.03.02.45.22,1.03-.68,1.31-1.26-1.35-2.56-2.78-3.91-4.17-.65-.68-1.04-1.49-1.41-2.34-3.23-7.31-7.39-14.1-11.84-20.71-.16-.24-.39-.47-.64-.62-.13-.08-.41-.05-.55.04-.15.09-.29.3-.31.47-.06.55.29.94.57,1.37,3.13,4.79,5.87,9.81,8.67,14.8.33.59.8,1.17.63,1.97-.18-.06-.37-.07-.48-.17-2.4-2.22-4.76-4.48-7.18-6.68-1.21-1.1-2.49-2.11-3.76-3.14-.34-.27-.76-.33-1.1,0-.43.41-.42.9-.09,1.36.18.25.39.47.61.69,1.53,1.5,3.03,3.04,4.62,4.48,2.74,2.47,5.25,5.15,7.77,7.83.21.23.2.36-.19.47-.19-.06-.47-.12-.72-.26-3.77-2.05-7.72-3.73-11.65-5.46-.46-.2-.95-.33-1.44-.43-.13-.02-.37.18-.45.33-.08.15-.09.45,0,.55.35.36.72.74,1.15.96,1.46.74,2.94,1.43,4.43,2.1,4.85,2.18,9.55,4.65,13.94,7.67,1.27.88,2.4,1.9,3.46,3.01.73.77,1.14,1.6,1.18,2.71.09,2.14.4,4.27.57,6.41.15,2.03.56,4.05.39,6.1Z"/>
                <path class="cls-19" d="M405.15,139.84c.17-2.05-.23-4.07-.39-6.1-.16-2.14-.47-4.27-.57-6.41-.05-1.12-.45-1.95-1.18-2.71-1.06-1.11-2.18-2.14-3.46-3.01-4.39-3.02-9.09-5.49-13.94-7.67-1.49-.67-2.97-1.36-4.43-2.1-.44-.22-.8-.6-1.15-.96-.1-.1-.08-.4,0-.55.08-.15.32-.36.45-.33.49.09.98.23,1.44.43,3.92,1.73,7.87,3.41,11.65,5.46.25.13.53.19.72.26.39-.12.4-.24.19-.47-2.52-2.68-5.03-5.36-7.77-7.83-1.59-1.44-3.09-2.98-4.62-4.48-.22-.21-.43-.44-.61-.69-.33-.47-.34-.95.09-1.36.35-.33.77-.27,1.1,0,1.27,1.03,2.55,2.04,3.76,3.14,2.42,2.2,4.78,4.46,7.18,6.68.11.1.3.11.48.17.17-.8-.3-1.38-.63-1.97-2.79-4.99-5.54-10.01-8.67-14.8-.28-.43-.63-.82-.57-1.37.02-.17.16-.38.31-.47.15-.09.42-.12.55-.04.25.15.48.37.64.62,4.46,6.61,8.62,13.39,11.84,20.71.38.85.76,1.66,1.41,2.34,1.34,1.4,2.65,2.83,3.91,4.17.9-.28.7-.85.68-1.31-.11-2.35-.27-4.69-.38-7.03-.05-1.04-.28-2.01-.7-2.96-3.33-7.39-7.32-14.37-12.8-20.43-1.92-2.12-3.73-4.34-5.53-6.56-2.28-2.81-5.04-5.05-7.96-7.13-.66-.47-1.26-1.04-1.84-1.61-.19-.19-.29-.53-.01-.81.23-.23.5-.35.81-.22.57.23,1.14.44,1.67.74,2.85,1.63,5.54,3.46,7.78,5.89,2.21,2.4,4.46,4.78,6.68,7.17.84-.55.28-1.15.11-1.64-1.44-4.26-2.94-8.49-4.39-12.75-.43-1.26-.8-2.53-1.18-3.8-.14-.49-.22-1-.34-1.49-.1-.43-.07-.9.34-1.06.42-.17.73.18.89.59.07.19.13.39.19.58,2.15,7.14,5.04,14.04,7.31,21.13.71,2.21,1.88,4.01,3.24,5.79,1.11,1.46,2.11,3.01,3.18,4.49.15.21.51.48.7.43.43-.12.54-.53.48-.98-.06-.4-.06-.82-.11-1.22-.96-7.09-2.02-14.15-3.71-21.12-.87-3.59-2.57-6.62-4.8-9.45-4.68-5.94-9.28-11.95-14.54-17.4-.14-.14-.29-.31-.35-.49-.06-.16-.05-.37,0-.54.13-.37.49-.37.76-.29.81.23,1.41.81,1.97,1.41,1.58,1.74,3.24,3.42,4.7,5.26,2.54,3.2,5.46,6.09,7.72,9.52.14.21.41.34.72.58.25-1.09-.24-1.92-.54-2.74-1.85-5.09-3.73-10.16-6.02-15.08-.22-.46-.42-.93-.63-1.39-.15-.32-.07-.61.16-.83.41-.39.77-.1,1.02.21,1.06,1.27,1.68,2.8,2.34,4.29,2.4,5.42,4.67,10.89,6.7,16.46.27.74.36,1.6,1.15,2.04.62-.53.42-1.17.41-1.75-.05-5.43.54-10.82,1.31-16.18.06-.4.11-.81.19-1.21.21-1.02.86-1.86,1.16-1.56.53.52.21,1.15.16,1.74-.51,5.09-.95,10.17-1.17,15.29-.15,3.69.07,7.36.33,11.03.05.71.17,1.42.34,2.11,1.12,4.46,2.26,8.91,3.4,13.36.05.19.16.37.25.56,0,.2-.04.4.01.58.08.25.19.65.35.68.32.06.47-.27.51-.57.03-.19,0-.39,0-.59.58-.98.8-2.09,1.08-3.17,1.77-6.75,2.64-13.64,3.32-20.56.04-.4.03-.82.11-1.21.06-.29.23-.64.61-.49.25.1.55.38.59.61.1.7.17,1.43.1,2.13-.2,2.14-.45,4.27-.7,6.4-.16,1.41-.35,2.81-.53,4.26.88-.15.99-.8,1.25-1.32,2.64-5.21,6.14-9.87,9.38-14.7.27-.41.71-.71,1.1-1.01.11-.08.4-.02.53.08.13.1.26.33.24.49-.1.73-.54,1.3-.93,1.9-2.15,3.35-4.29,6.71-6.43,10.06-.48.75-.96,1.48-1.08,2.83,2.15-2.01,4-3.75,5.86-5.46,1.28-1.18,2.6-2.31,4.11-3.19.42-.24.9-.71,1.35-.27.54.53-.14.85-.43,1.2-.19.24-.45.42-.67.63-3.06,2.86-6.17,5.68-9.17,8.59-3.5,3.39-6.26,7.26-7.48,12.08-.18.69-.41,1.37-.64,2.05-1,2.95-1.24,5.88-.62,9.02,1.31,6.61,1.73,13.35,2.28,20.06.06.69-.08,1.43.43,2.01.48.11.48-.3.58-.54,4.81-11.7,7.36-23.99,9.53-36.38.42-2.41.85-4.83,1.3-7.24.06-.34.36-.5.69-.46.34.04.52.32.51.63-.02.71-.05,1.43-.16,2.13-.99,6.77-1.89,13.57-3.59,20.21-.1.38-.09.79-.14,1.31,1.06-.66,1.3-1.72,1.77-2.59,2.91-5.4,6.33-10.48,9.87-15.48,1.01-1.43,1.7-1.85,1.97-1.37.53.93-.23,1.56-.64,2.19-3.13,4.78-6.15,9.63-8.95,14.62-2.24,4.01-4.19,8.18-6.08,12.36-.12.27-.13.58-.19.88-.17.24-.37.47-.52.72-.09.15-.1.34-.15.51.18-.06.4-.07.53-.18.31-.25.55-.57.54-1.01,2.92-2.71,5.27-5.93,7.97-8.83,1.32-1.42,2.66-2.81,4-4.2.21-.22.45-.42.72-.56.26-.14.56-.24.84,0,.33.28.12.55-.05.75-1.26,1.47-2.55,2.91-3.81,4.38-4.31,5.02-8.61,10.05-12.19,15.63-.49.77-1.01,1.53-1.46,2.33-1.8,3.24-3.08,6.52-2.53,10.44.47,3.3.28,6.7.38,10.05-.12,3.55-.24,7.11-.34,10.67-.01.51.05,1.06-.34,1.43-.17.16-.58.23-.81.15-.25-.1-.48-.39-.6-.65-.49-1.01-.86-2.06-1.01-3.19-.35-2.72-.71-5.45-1.1-8.17-.19-1.31-.44-2.6-.66-3.91ZM401.78,99.42c-.09-.02-.19-.04-.28-.05,0,.1-.04.22,0,.28.05.06.18.04.27.06,0-.09,0-.19,0-.28Z"/>
                <path class="cls-24" d="M416.11,113.53c.02.44-.22.76-.54,1.01-.14.11-.35.12-.53.18.05-.17.06-.36.15-.51.15-.26.34-.48.52-.72.13.02.27.03.4.05Z"/>
                <path class="cls-24" d="M405.58,90.21c0,.2.02.4,0,.59-.04.3-.19.63-.51.57-.16-.03-.27-.43-.35-.68-.05-.18-.01-.39-.01-.58.29.03.58.06.87.1Z"/>
                <path class="cls-24" d="M401.78,99.42c0,.09,0,.19,0,.28-.09-.02-.22,0-.27-.06-.05-.06,0-.18,0-.28.09.02.19.04.28.05Z"/>
              </g>
              <g>
                <path class="cls-24" d="M284.34,203.85c-.31.01-.61.05-.92.03-7.84-.49-15.45,1.04-23.04,2.71-3.59.79-7.18,1.55-10.78,2.31-1.92.41-3.85.36-5.79.04-.8-.14-1.62-.19-2.43-.33-1.01-.17-2.04-.28-3-.59-3.84-1.24-4.26-2.38-4.39-6.01-.06-1.6.43-3.22.7-4.83.14-.8.4-1.58.55-2.39.24-1.24-.28-1.96-1.55-2.07-1.53-.13-3.06.03-4.58.26-4.51.68-8.97.45-13.33-.97-2.15-.7-4.2-1.62-5.91-3.15-2.13-1.9-3.19-4.15-2.57-7.09.25-1.16.77-2.12,1.53-2.93.97-1.04,2.08-1.95,3.12-2.94.42-.4,1.11-.55,1.27-1.35-.48-.61-1.26-.34-1.89-.51-.69-.18-1.41-.25-2.1-.41-9.53-2.18-17.06-7.1-21.8-15.87-1.53-2.83-2.31-5.88-2.49-9.05-.15-2.65.35-5.28,1.43-7.71.88-1.98,2.36-3.54,4.16-4.76,2.51-1.7,5.29-2.69,8.28-2.97,3.05-.29,6.09-.23,9.13.5,6.41,1.53,12.45,3.94,18.1,7.31.69.41,1.43.75,2.15,1.1.07.03.19-.03.43-.07-.29-2.3-.36-4.64.38-6.88.92-2.83,2.02-5.57,4.73-7.27,2.44-1.53,4.94-1.78,7.58-.55,1.8.83,3.25,2.07,4.53,3.57,2.79,3.28,4.81,7.06,6.97,10.75.26.44.42.93.95,1.17.24-.16.51-.31.74-.5,2.77-2.37,5.9-2.55,9.21-1.5,3.14,1,5.64,2.96,7.49,5.59,1.69,2.41,3.05,5.03,4.15,7.8,2.81,7.05,4.36,14.44,6.2,21.75.82,3.27,1.77,6.49,2.89,9.66,1.13,3.17,2.29,6.32,3.51,9.46.44,1.13,1.15,2.17,1.57,3.31.51,1.38,1.57,2.7.81,4.33-2.52-2.21-4.87-4.67-7.6-6.58-3.24-2.27-4.77-5.44-5.9-8.97-.28-.87-.48-1.77-.7-2.65-1.63-6.43-2.37-13.01-3.1-19.58-.21-1.92-.38-3.85-.6-5.77-.03-.26-.09-.6-.52-.55-.37.04-.5.33-.57.62-.07.29-.09.61-.08.91.1,1.93.2,3.86.34,5.79.28,3.96,1.02,7.87,1.01,11.85-.1.09-.21.18-.31.26-.17-.25-.4-.47-.51-.74-1.76-4.24-3.48-8.5-4.88-12.88-1.74-5.45-3.22-10.96-4.57-16.52-.18-.72-.12-1.71-1.16-1.96-.53-.13-.7.66-.34,2.38,1.24,6,2.61,11.96,4.58,17.78.32.94.93,1.83.68,3.06-.34-.39-.65-.66-.86-.99-3.7-5.78-8.05-11.07-12.32-16.42-.44-.56-.94-1.07-1.45-1.57-.22-.22-.56-.28-.81-.06-.25.21-.33.54-.13.82,1.46,1.97,2.93,3.93,4.4,5.89,7.57,10.04,14.81,20.3,20.08,31.8.11.24.41.52,0,.79-.77-.02-1.22-.63-1.76-1.06-5.28-4.18-10.48-8.48-16.21-12.03-2.72-1.69-4.69-3.86-6.17-6.61-.34-.63-.67-1.26-1.06-1.86-2.69-4.18-3.63-8.85-3.72-13.72-.08-4.19-.01-8.38-.01-12.57,0-.31.04-.62,0-.92-.06-.45.17-1.16-.59-1.13-.63.02-.62.7-.73,1.17-.39,1.7-.47,3.44-.48,5.18-.02,2.53,0,5.07,0,8.01-.9-1.01-1.11-1.87-1.33-2.72-.99-3.86-1.99-7.71-2.96-11.57-.18-.69-.29-1.41-.75-1.98-.1-.12-.36-.19-.52-.16-.16.03-.41.2-.42.34-.05.5-.12,1.02-.01,1.5,1.31,5.66,2.33,11.4,4.34,16.89.2.55.61,1.07.11,1.82-.94-1.12-1.83-2.22-2.75-3.3-1.39-1.64-2.77-3.28-4.2-4.88-.47-.53-1.04-.98-1.63-1.38-.19-.13-.6-.1-.85.01-.37.17-.23.54-.06.78.23.33.54.6.81.91,4.59,5.22,9.03,10.56,12.75,16.46.6.95,1.25,1.86,1.58,2.96-.22.19-.44.38-.67.57-.19-.06-.4-.1-.58-.2-4.03-2.21-8.06-4.41-12.08-6.64-.62-.34-1.22-.75-1.77-1.19-2.86-2.32-5.69-4.66-8.28-7.29-3.59-3.64-7.01-7.44-10.37-11.29-.39-.44-.64-1.11-1.38-1.07-.42.02-.25,1.07.35,1.92.23.33.5.65.76.97,3.4,4.22,6.93,8.33,10.93,12,.43.39,1.03.68,1,1.5-.86.28-1.56-.24-2.28-.55-5.46-2.32-11-4.4-16.6-6.34-1.54-.53-3.08-1.13-4.73-1.22-.4-.02-.85.04-.85.61,0,.32.16.57.49.68.49.16.97.33,1.45.49,5.15,1.68,10.15,3.78,15.13,5.89.8.34,1.75.55,2.38,1.48-.39.06-.67.17-.92.13-4.05-.69-8.15-.53-12.23-.86-2.34-.19-4.7-.12-7.05-.15-.82-.01-1.65.03-2.38.47-.24.15-.49.41-.31.75.08.15.23.3.39.37.18.08.4.08.6.08,7.58-.12,15.11.63,22.64,1.26,3.6.3,6.97,1.13,10.19,2.95,6.24,3.53,12.13,7.57,17.96,11.71.33.24.64.52.97.75.37.26.6.62.39,1.02-.09.17-.53.25-.79.21-1.82-.23-3.63-.57-5.45-.74-2.23-.22-4.35-.6-6.44-1.59-6.74-3.18-13.74-5.78-20.43-9.09-.18-.09-.37-.18-.56-.26-.41-.16-.88-.17-1.04.25-.16.41.17.75.55.97.44.26.87.54,1.32.77,1.19.59,2.37,1.2,3.58,1.74,4.1,1.84,8.22,3.64,12.31,5.49.47.21,1.29.21,1.12,1.2-3.26,0-6.53.01-9.8-.01-3.31-.02-6.48.69-9.62,1.66-.58.18-1.13.46-1.68.71-.3.14-.4.42-.39.74.02.39.33.56.6.54.81-.03,1.63-.09,2.43-.25,3.52-.71,7.04-1.2,10.65-.95,2.85.2,5.71.39,8.57.44,8.17.13,15.98,1.98,23.66,4.6.98.33,1.85.83,2.64,1.51,1.79,1.52,3.61,3.01,5.4,4.53.35.29.9.54.49,1.39-1.84,0-3.78-.02-5.72,0-.94.01-1.79-.26-2.67-.57-7.55-2.63-15.34-4.23-23.22-5.48-.29-.05-.61-.03-.89.05-.15.04-.31.27-.35.43-.04.17.02.42.13.55.36.42.89.43,1.39.52,5.64.99,11.18,2.41,16.73,3.77.66.16,1.4.21,1.87.88-.16.09-.3.22-.45.23-3.26.23-6.53.42-9.79.68-1.63.13-3.24.38-4.86.6-.43.06-.76.33-.75.81,0,.59.37.92.94,1,.3.04.61.04.92.03,2.14-.1,4.29-.14,6.43-.32,3.67-.31,7.35-.33,11.03-.33.31,0,.4.09.22.46-.17.09-.41.26-.68.35-4.08,1.36-8,3.1-11.94,4.78-.46.2-.89.47-1.29.76-.11.08-.12.39-.06.55.06.16.27.37.41.37.5-.01,1.03-.02,1.49-.19,1.53-.56,3.05-1.17,4.56-1.8,4.91-2.06,9.91-3.8,15.12-4.95,1.51-.33,3.02-.45,4.56-.47,1.06-.01,1.94.26,2.79.99,1.63,1.39,3.4,2.62,5.07,3.96,1.59,1.27,3.34,2.35,4.72,3.88Z"/>
                <path class="cls-19" d="M284.34,203.85c-1.38-1.53-3.13-2.61-4.72-3.88-1.67-1.34-3.44-2.57-5.07-3.96-.85-.73-1.73-1-2.79-.99-1.54.02-3.05.14-4.56.47-5.21,1.15-10.21,2.9-15.12,4.95-1.51.63-3.03,1.24-4.56,1.8-.46.17-.99.18-1.49.19-.14,0-.35-.21-.41-.37-.06-.16-.04-.47.06-.55.4-.29.84-.56,1.29-.76,3.94-1.69,7.86-3.43,11.94-4.78.27-.09.51-.26.68-.35.18-.37.1-.46-.22-.46-3.68,0-7.35.02-11.03.33-2.14.18-4.29.22-6.43.32-.3.01-.61.02-.92-.03-.57-.08-.93-.41-.94-1,0-.48.32-.75.75-.81,1.62-.22,3.24-.47,4.86-.6,3.26-.26,6.52-.45,9.79-.68.15-.01.29-.14.45-.23-.46-.67-1.21-.72-1.87-.88-5.55-1.36-11.09-2.78-16.73-3.77-.5-.09-1.03-.1-1.39-.52-.11-.13-.17-.38-.13-.55.04-.17.2-.39.35-.43.28-.08.6-.09.89-.05,7.87,1.25,15.67,2.85,23.22,5.48.88.31,1.73.58,2.67.57,1.94-.03,3.87,0,5.72,0,.41-.84-.14-1.09-.49-1.39-1.79-1.52-3.61-3-5.4-4.53-.79-.67-1.66-1.17-2.64-1.51-7.68-2.61-15.5-4.46-23.66-4.6-2.86-.05-5.72-.24-8.57-.44-3.61-.25-7.13.24-10.65.95-.8.16-1.62.21-2.43.25-.27.01-.59-.15-.6-.54-.01-.33.09-.6.39-.74.55-.26,1.1-.53,1.68-.71,3.13-.97,6.31-1.69,9.62-1.66,3.27.02,6.54,0,9.8.01.17-.99-.65-.99-1.12-1.2-4.09-1.85-8.21-3.65-12.31-5.49-1.21-.54-2.4-1.14-3.58-1.74-.46-.23-.88-.52-1.32-.77-.38-.22-.71-.57-.55-.97.16-.42.63-.41,1.04-.25.19.08.37.17.56.26,6.69,3.3,13.69,5.9,20.43,9.09,2.1.99,4.21,1.37,6.44,1.59,1.82.18,3.63.51,5.45.74.26.03.7-.05.79-.21.21-.4-.01-.76-.39-1.02-.34-.23-.64-.51-.97-.75-5.83-4.14-11.72-8.18-17.96-11.71-3.22-1.82-6.59-2.64-10.19-2.95-7.54-.63-15.06-1.38-22.64-1.26-.2,0-.42,0-.6-.08-.16-.07-.31-.22-.39-.37-.18-.35.06-.61.31-.75.73-.44,1.55-.48,2.38-.47,2.35.03,4.71-.03,7.05.15,4.07.32,8.18.17,12.23.86.25.04.53-.07.92-.13-.62-.93-1.57-1.13-2.38-1.48-4.98-2.12-9.97-4.21-15.13-5.89-.49-.16-.97-.33-1.45-.49-.33-.11-.49-.36-.49-.68,0-.57.45-.63.85-.61,1.65.09,3.19.69,4.73,1.22,5.6,1.94,11.14,4.02,16.6,6.34.72.31,1.41.83,2.28.55.03-.81-.57-1.1-1-1.5-4.01-3.67-7.53-7.78-10.93-12-.26-.32-.52-.63-.76-.97-.6-.85-.77-1.9-.35-1.92.74-.04.99.63,1.38,1.07,3.37,3.85,6.78,7.64,10.37,11.29,2.59,2.63,5.42,4.97,8.28,7.29.55.45,1.15.85,1.77,1.19,4.02,2.23,8.05,4.43,12.08,6.64.18.1.38.13.58.2.14.13.27.31.44.39.23.11.6.3.73.21.26-.19.12-.53-.07-.76-.12-.15-.29-.27-.43-.41-.32-1.09-.98-2.01-1.58-2.96-3.72-5.9-8.16-11.24-12.75-16.46-.27-.31-.58-.58-.81-.91-.17-.24-.31-.61.06-.78.24-.11.65-.15.85-.01.58.4,1.16.85,1.63,1.38,1.43,1.6,2.81,3.24,4.2,4.88.92,1.08,1.82,2.18,2.75,3.3.5-.75.09-1.27-.11-1.82-2-5.49-3.02-11.23-4.34-16.89-.11-.48-.04-1,.01-1.5.01-.13.26-.3.42-.34.16-.03.42.04.52.16.46.57.58,1.28.75,1.98.98,3.86,1.98,7.71,2.96,11.57.22.86.43,1.72,1.33,2.72,0-2.95,0-5.48,0-8.01.01-1.74.09-3.48.48-5.18.11-.47.1-1.15.73-1.17.76-.03.52.69.59,1.13.04.3,0,.61,0,.92,0,4.19-.06,8.38.01,12.57.09,4.87,1.03,9.53,3.72,13.72.39.6.72,1.23,1.06,1.86,1.47,2.75,3.45,4.92,6.17,6.61,5.73,3.55,10.93,7.85,16.21,12.03.54.43.98,1.04,1.76,1.06.41-.28.11-.55,0-.79-5.27-11.5-12.5-21.76-20.08-31.8-1.48-1.96-2.94-3.92-4.4-5.89-.2-.27-.12-.61.13-.82.26-.22.59-.16.81.06.51.5,1.01,1.01,1.45,1.57,4.27,5.35,8.62,10.64,12.32,16.42.21.33.52.61.86.99.24-1.22-.37-2.12-.68-3.06-1.96-5.82-3.34-11.78-4.58-17.78-.35-1.71-.19-2.51.34-2.38,1.04.25.98,1.24,1.16,1.96,1.36,5.55,2.83,11.07,4.57,16.52,1.4,4.38,3.12,8.64,4.88,12.88.11.27.34.49.51.74.06.29.09.59.17.87.05.16.18.31.27.46.08-.17.22-.34.24-.51.03-.4-.04-.79-.37-1.08.01-3.98-.73-7.9-1.01-11.85-.14-1.93-.23-3.86-.34-5.79-.02-.3,0-.62.08-.91.07-.29.2-.57.57-.62.42-.05.49.29.52.55.21,1.92.39,3.85.6,5.77.73,6.57,1.47,13.15,3.1,19.58.23.89.42,1.78.7,2.65,1.14,3.53,2.66,6.7,5.9,8.97,2.73,1.91,5.08,4.37,7.6,6.58,2.52,2.51,5.03,5.03,7.56,7.53.36.36.81.68.81,1.23,0,.24-.23.59-.44.69-.24.12-.61.08-.89,0-1.07-.33-2.09-.78-3.02-1.44-2.23-1.6-4.47-3.2-6.72-4.77-1.08-.76-2.2-1.46-3.3-2.19ZM252.5,178.72c-.08.06-.15.11-.23.17.07.07.13.18.21.18.07,0,.15-.1.23-.16-.07-.07-.14-.13-.21-.2Z"/>
                <path class="cls-24" d="M272.6,177.88c.33.29.4.68.37,1.08-.01.18-.15.34-.24.51-.09-.15-.22-.29-.27-.46-.08-.28-.12-.58-.17-.87.1-.09.21-.17.31-.26Z"/>
                <path class="cls-24" d="M248.37,169.66c.14.13.31.25.43.41.19.24.33.57.07.76-.13.09-.5-.09-.73-.21-.17-.08-.29-.26-.44-.39.22-.19.44-.38.67-.57Z"/>
                <path class="cls-24" d="M252.5,178.72c.07.07.14.13.21.2-.08.06-.16.16-.23.16-.07,0-.14-.12-.21-.18.08-.06.15-.11.23-.17Z"/>
                <path class="cls-13" d="M237.77,193.48s17.03-1.39,20.04-23.22c3.01-21.84-4.04-27.34-4.04-27.34.24-.16.51-.31.74-.5,2.77-2.37,5.9-2.55,9.21-1.5,3.14,1,5.64,2.96,7.49,5.59,1.69,2.41,3.05,5.03,4.15,7.8,2.81,7.05,4.36,14.44,6.2,21.75.82,3.27,1.77,6.49,2.89,9.66,1.13,3.17,2.29,6.32,3.51,9.46.44,1.13,1.15,2.17,1.57,3.31.51,1.38,1.57,2.7.81,4.33-2.52-2.21-4.87-4.67-7.6-6.58-3.24-2.27-4.77-5.44-5.9-8.97-.28-.87-.48-1.77-.7-2.65-1.63-6.43-2.37-13.01-3.1-19.58-.21-1.92-.38-3.85-.6-5.77-.03-.26-.09-.6-.52-.55-.37.04-.5.33-.57.62-.07.29-.09.61-.08.91.1,1.93.2,3.86.34,5.79.28,3.96,1.02,7.87,1.01,11.85-.1.09-.21.18-.31.26-.17-.25-.4-.47-.51-.74-1.76-4.24-3.48-8.5-4.88-12.88-1.74-5.45-3.22-10.96-4.57-16.52-.18-.72-.12-1.71-1.16-1.96-.53-.13-.7.66-.34,2.38,1.24,6,2.61,11.96,4.58,17.78.32.94.93,1.83.68,3.06-.34-.39-.65-.66-.86-.99-3.7-5.78-8.05-11.07-12.32-16.42-.44-.56-.94-1.07-1.45-1.57-.22-.22-.56-.28-.81-.06-.25.21-.33.54-.13.82,1.46,1.97,2.93,3.93,4.4,5.89,7.57,10.04,14.81,20.3,20.08,31.8.11.24.41.52,0,.79-.77-.02-1.22-.63-1.76-1.06-5.28-4.18-10.48-8.48-16.21-12.03-2.72-1.69-4.69-3.86-6.17-6.61-.34-.63-.67-1.26-1.06-1.86-2.69-4.18-3.63-8.85-3.72-13.72-.08-4.19-.01-8.38-.01-12.57,0-.31.04-.62,0-.92-.06-.45.17-1.16-.59-1.13-.63.02-.62.7-.73,1.17-.39,1.7-.47,3.44-.48,5.18-.02,2.53,0,5.07,0,8.01-.9-1.01-1.11-1.87-1.33-2.72-.99-3.86-1.99-7.71-2.96-11.57-.18-.69-.29-1.41-.75-1.98-.1-.12-.36-.19-.52-.16-.16.03-.41.2-.42.34-.05.5-.12,1.02-.01,1.5,1.31,5.66,2.33,11.4,4.34,16.89.2.55.61,1.07.11,1.82-.94-1.12-1.83-2.22-2.75-3.3-1.39-1.64-2.77-3.28-4.2-4.88-.47-.53-1.04-.98-1.63-1.38-.19-.13-.6-.1-.85.01-.37.17-.23.54-.06.78.23.33.54.6.81.91,4.59,5.22,9.03,10.56,12.75,16.46.6.95,1.25,1.86,1.58,2.96-.22.19-.44.38-.67.57-.19-.06-.4-.1-.58-.2-4.03-2.21-8.06-4.41-12.08-6.64-.62-.34-1.22-.75-1.77-1.19-2.86-2.32-5.69-4.66-8.28-7.29-3.59-3.64-7.01-7.44-10.37-11.29-.39-.44-.64-1.11-1.38-1.07-.42.02-.25,1.07.35,1.92.23.33.5.65.76.97,3.4,4.22,6.93,8.33,10.93,12,.43.39,1.03.68,1,1.5-.86.28-1.56-.24-2.28-.55-5.46-2.32-11-4.4-16.6-6.34-1.54-.53-3.08-1.13-4.73-1.22-.4-.02-.85.04-.85.61,0,.32.16.57.49.68.49.16.97.33,1.45.49,5.15,1.68,10.15,3.78,15.13,5.89.8.34,1.75.55,2.38,1.48-.39.06-.67.17-.92.13-4.05-.69-8.15-.53-12.23-.86-2.34-.19-4.7-.12-7.05-.15-.82-.01-1.65.03-2.38.47-.24.15-.49.41-.31.75.08.15.23.3.39.37.18.08.4.08.6.08,7.58-.12,15.11.63,22.64,1.26,3.6.3,6.97,1.13,10.19,2.95,6.24,3.53,12.13,7.57,17.96,11.71.33.24.64.52.97.75.37.26.6.62.39,1.02-.09.17-.53.25-.79.21-1.82-.23-3.63-.57-5.45-.74-2.23-.22-4.35-.6-6.44-1.59-6.74-3.18-13.74-5.78-20.43-9.09-.18-.09-.37-.18-.56-.26-.41-.16-.88-.17-1.04.25-.16.41.17.75.55.97.44.26.87.54,1.32.77,1.19.59,2.37,1.2,3.58,1.74,4.1,1.84,8.22,3.64,12.31,5.49.47.21,1.29.21,1.12,1.2-3.26,0-6.53.01-9.8-.01-3.31-.02-6.48.69-9.62,1.66-.58.18-1.13.46-1.68.71-.3.14-.4.42-.39.74.02.39.33.56.6.54.81-.03,1.63-.09,2.43-.25,3.52-.71,7.04-1.2,10.65-.95,2.85.2,5.71.39,8.57.44,8.17.13,15.98,1.98,23.66,4.6.98.33,1.85.83,2.64,1.51,1.79,1.52,3.61,3.01,5.4,4.53.35.29.9.54.49,1.39-1.84,0-3.78-.02-5.72,0-.94.01-1.79-.26-2.67-.57-7.55-2.63-15.34-4.23-23.22-5.48-.29-.05-.61-.03-.89.05-.15.04-.31.27-.35.43-.04.17.02.42.13.55.36.42.89.43,1.39.52,5.64.99,11.18,2.41,16.73,3.77.66.16,1.4.21,1.87.88-.16.09-.3.22-.45.23-3.26.23-6.53.42-9.79.68-1.63.13-3.24.38-4.86.6-.43.06-.76.33-.75.81,0,.59.37.92.94,1,.3.04.61.04.92.03,2.14-.1,4.29-.14,6.43-.32,3.67-.31,7.35-.33,11.03-.33.31,0,.4.09.22.46-.17.09-.41.26-.68.35-4.08,1.36-8,3.1-11.94,4.78-.46.2-.89.47-1.29.76-.11.08-.12.39-.06.55.06.16.27.37.41.37.5-.01,1.03-.02,1.49-.19,1.53-.56,3.05-1.17,4.56-1.8,4.91-2.06,9.91-3.8,15.12-4.95,1.51-.33,3.02-.45,4.56-.47,1.06-.01,1.94.26,2.79.99,1.63,1.39,3.4,2.62,5.07,3.96,1.59,1.27,3.34,2.35,4.72,3.88-.31.01-.61.05-.92.03-7.84-.49-15.45,1.04-23.04,2.71-3.59.79-7.18,1.55-10.78,2.31-1.92.41-3.85.36-5.79.04-.8-.14-1.62-.19-2.43-.33-1.01-.17-2.04-.28-3-.59-3.84-1.24-4.26-2.38-4.39-6.01-.06-1.6.43-3.22.7-4.83.14-.8.4-1.58.55-2.39"/>
              </g>
              <g>
                <path class="cls-24" d="M151.17,116.95c-.15.23-.29.47-.46.68-4.49,5.45-7.39,11.79-10.17,18.2-1.32,3.03-2.66,6.05-4,9.07-.72,1.61-1.77,3-3.02,4.23-.52.51-1,1.08-1.52,1.59-.65.64-1.28,1.33-2.01,1.87-2.93,2.14-3.98,1.84-6.69.02-1.19-.8-2.12-2.01-3.14-3.06-.51-.52-.94-1.13-1.44-1.66-.78-.83-1.58-.83-2.32.04-.9,1.05-1.59,2.24-2.23,3.47-1.89,3.64-4.4,6.76-7.73,9.19-1.64,1.2-3.39,2.2-5.41,2.64-2.5.55-4.7.13-6.52-1.87-.72-.79-1.14-1.68-1.33-2.66-.24-1.26-.32-2.54-.49-3.82-.07-.52.18-1.1-.31-1.64-.7.03-.91.74-1.37,1.11-.49.41-.93.89-1.41,1.31-6.61,5.79-14.16,8.67-23.05,7.49-2.87-.38-5.5-1.42-7.9-2.96-2.01-1.29-3.66-3.03-4.86-5.11-.97-1.69-1.33-3.58-1.27-5.54.09-2.72.84-5.27,2.2-7.59,1.4-2.38,3.05-4.55,5.18-6.38,4.5-3.86,9.43-6.98,14.87-9.32.67-.29,1.3-.65,1.94-.99.06-.03.08-.15.17-.35-1.83-1.01-3.57-2.19-4.81-3.9-1.57-2.16-2.99-4.41-2.8-7.27.17-2.58,1.31-4.54,3.59-5.81,1.55-.87,3.22-1.28,4.99-1.41,3.86-.3,7.67.22,11.5.6.45.05.9.19,1.35-.07,0-.26.05-.53.02-.81-.26-3.26,1.25-5.64,3.77-7.5,2.38-1.76,5.13-2.54,8.02-2.5,2.64.04,5.27.44,7.87,1.09,6.61,1.67,12.81,4.44,19.1,6.96,2.81,1.13,5.66,2.14,8.56,2.99,2.9.85,5.81,1.66,8.73,2.44,1.06.28,2.18.31,3.23.6,1.28.36,2.79.28,3.58,1.7-2.94.67-5.97,1.08-8.8,2.07-3.36,1.17-6.47.6-9.64-.43-.78-.25-1.54-.58-2.3-.89-5.54-2.2-10.72-5.13-15.89-8.07-1.51-.86-3-1.75-4.52-2.61-.2-.11-.48-.25-.67.09-.16.29-.02.54.15.74.17.21.39.39.62.54,1.46.94,2.92,1.89,4.39,2.81,3.03,1.88,6.27,3.41,9.16,5.52,0,.12.02.24.03.37-.27,0-.55.04-.81-.02-4.02-.95-8.02-1.95-11.95-3.24-4.88-1.61-9.68-3.44-14.44-5.38-.62-.25-1.31-.81-2.04-.19-.38.32.12.86,1.55,1.5,5.02,2.26,10.09,4.41,15.35,6.05.85.26,1.82.29,2.58,1.11-.46.04-.82.12-1.18.1-6.16-.36-12.3.02-18.45.31-.64.03-1.28.12-1.91.23-.27.05-.49.26-.47.56.02.29.22.53.53.52,2.2-.02,4.41-.06,6.61-.1,11.3-.22,22.59-.07,33.73,2.16.23.05.59-.02.58.42-.43.55-1.1.55-1.7.72-5.83,1.64-11.7,3.16-17.31,5.46-2.66,1.09-5.29,1.38-8.06,1.01-.64-.09-1.28-.18-1.92-.21-4.46-.25-8.35-2.02-11.94-4.53-3.09-2.15-6.11-4.41-9.16-6.62-.22-.16-.43-.36-.67-.49-.36-.19-.75-.74-1.13-.17-.31.47.18.82.47,1.15,1.03,1.18,2.26,2.16,3.52,3.08,1.83,1.35,3.68,2.68,5.83,4.23-1.21.12-1.94-.18-2.68-.47-3.33-1.32-6.66-2.62-9.98-3.94-.6-.24-1.18-.53-1.83-.5-.14,0-.33.16-.39.3-.06.13-.07.4.02.48.33.3.68.63,1.08.8,4.81,2.03,9.53,4.31,14.58,5.75.51.14,1.1.12,1.38.88-1.31.09-2.58.16-3.85.26-1.92.15-3.85.29-5.77.49-.63.06-1.26.24-1.86.46-.2.07-.39.39-.44.62-.07.36.27.45.53.46.36,0,.73-.08,1.09-.11,6.22-.59,12.45-1,18.71-.6,1.01.06,2.02.07,2.98.41.02.26.04.52.07.79-.15.11-.29.24-.45.32-3.73,1.77-7.47,3.54-11.21,5.29-.58.27-1.19.5-1.8.66-3.19.86-6.39,1.69-9.67,2.19-4.55.69-9.11,1.18-13.69,1.6-.53.05-1.14-.12-1.51.44-.21.32.65.74,1.58.76.37,0,.73-.02,1.1-.04,4.87-.25,9.72-.65,14.5-1.63.51-.11,1.04-.39,1.62.06-.25.78-1,1-1.6,1.37-4.56,2.75-9,5.69-13.37,8.74-1.2.84-2.44,1.64-3.38,2.8-.22.28-.42.64,0,.94.23.16.5.19.76,0,.37-.27.75-.53,1.12-.8,3.94-2.86,8.1-5.39,12.27-7.9.67-.4,1.32-.99,2.33-.95-.16.31-.23.57-.39.73-2.64,2.58-4.69,5.65-7.07,8.45-1.37,1.6-2.56,3.36-3.83,5.05-.44.59-.84,1.22-.91,1.98-.02.26.04.57.39.62.15.02.34-.01.47-.09.15-.09.27-.25.37-.39,3.91-5.58,8.42-10.66,12.85-15.82,2.12-2.46,4.49-4.48,7.52-5.86,5.86-2.68,11.91-4.83,17.99-6.9.35-.12.71-.19,1.06-.31.39-.13.77-.11.95.25.08.15-.1.52-.26.69-1.13,1.2-2.33,2.34-3.42,3.58-1.34,1.51-2.73,2.85-4.55,3.85-5.87,3.23-11.46,6.95-17.39,10.08-.16.09-.33.17-.48.27-.33.21-.59.55-.37.89.21.33.64.27,1,.11.42-.19.85-.34,1.26-.55,1.06-.55,2.12-1.1,3.15-1.69,3.5-2.02,6.98-4.06,10.49-6.07.4-.23.83-.83,1.46-.18-1.72,2.37-3.43,4.76-5.17,7.12-1.76,2.4-2.91,5.09-3.86,7.88-.18.52-.27,1.06-.37,1.6-.06.29.09.51.34.68.29.2.58.05.72-.15.4-.61.8-1.24,1.1-1.9,1.34-2.93,2.84-5.76,4.92-8.25,1.65-1.97,3.3-3.95,4.84-6.01,4.4-5.87,9.87-10.59,15.82-14.8.76-.54,1.58-.91,2.49-1.13,2.05-.5,4.09-1.04,6.14-1.54.4-.1.87-.37,1.27.37-.97,1.34-2.01,2.74-3.01,4.16-.49.69-1.14,1.17-1.82,1.65-5.9,4.11-11.17,8.94-16.23,14.01-.19.19-.34.43-.43.67-.05.13.03.37.13.48.1.12.31.2.47.19.49-.04.78-.42,1.11-.74,3.69-3.58,7.65-6.87,11.57-10.19.46-.39.89-.91,1.63-.89-.02.16,0,.34-.07.45-1.55,2.5-3.13,4.97-4.66,7.48-.76,1.25-1.44,2.56-2.13,3.85-.18.34-.16.73.19.97.44.31.86.22,1.22-.15.19-.2.35-.42.5-.65,1.06-1.61,2.16-3.2,3.16-4.85,1.71-2.84,3.64-5.52,5.57-8.2.16-.23.28-.24.45.09-.02.17-.03.44-.1.68-1.16,3.68-1.96,7.45-2.81,11.21-.1.44-.13.89-.13,1.34,0,.12.22.29.37.34.15.04.41,0,.49-.1.25-.37.53-.76.64-1.18.4-1.41.76-2.84,1.09-4.27,1.09-4.66,2.46-9.22,4.37-13.62.55-1.27,1.26-2.44,2.06-3.57.55-.78,1.21-1.28,2.19-1.51,1.87-.45,3.7-1.09,5.56-1.6,1.76-.49,3.47-1.19,5.31-1.39Z"/>
                <path class="cls-1" d="M151.17,116.95c-.15.23-.29.47-.46.68-4.49,5.45-7.39,11.79-10.17,18.2-1.32,3.03-2.66,6.05-4,9.07-.72,1.61-1.77,3-3.02,4.23-.52.51-1,1.08-1.52,1.59-.65.64-1.28,1.33-2.01,1.87-2.93,2.14-3.98,1.84-6.69.02-1.19-.8-2.12-2.01-3.14-3.06-.51-.52-.94-1.13-1.44-1.66-.78-.83-1.58-.83-2.32.04-.9,1.05-1.59,2.24-2.23,3.47-1.89,3.64-4.4,6.76-7.73,9.19-1.64,1.2-3.39,2.2-5.41,2.64-2.5.55-4.7.13-6.52-1.87-.72-.79-1.14-1.68-1.33-2.66-.24-1.26-.32-2.54-.49-3.82-.07-.52.18-1.1-.31-1.64-.7.03-.91.74-1.37,1.11-.49.41-.93.89-1.41,1.31-6.61,5.79-14.16,8.67-23.05,7.49-2.87-.38-5.5-1.42-7.9-2.96,0,0,13.51,1.31,27.18-8.62,13.67-9.93,15.11.33,22.05-3.22s7.38-13.71,17.95-13.08c10.58.64,6.32,2.42,12.48-2.75,6.16-5.17,12.4-14.91,12.4-14.91"/>
                <path class="cls-19" d="M151.17,116.95c-1.84.2-3.55.91-5.31,1.39-1.86.51-3.68,1.15-5.56,1.6-.98.23-1.64.73-2.19,1.51-.8,1.13-1.51,2.29-2.06,3.57-1.91,4.4-3.28,8.96-4.37,13.62-.34,1.43-.69,2.86-1.09,4.27-.12.42-.39.81-.64,1.18-.07.1-.34.14-.49.1-.15-.04-.37-.22-.37-.34,0-.45.03-.91.13-1.34.85-3.76,1.65-7.53,2.81-11.21.08-.24.08-.5.1-.68-.17-.33-.29-.31-.45-.09-1.93,2.68-3.86,5.36-5.57,8.2-.99,1.65-2.1,3.24-3.16,4.85-.15.23-.31.46-.5.65-.36.37-.78.46-1.22.15-.35-.25-.37-.63-.19-.97.69-1.29,1.37-2.6,2.13-3.85,1.53-2.51,3.11-4.99,4.66-7.48.07-.11.05-.28.07-.45-.73-.02-1.16.5-1.63.89-3.92,3.32-7.88,6.61-11.57,10.19-.33.32-.62.7-1.11.74-.15.01-.36-.08-.47-.19-.1-.12-.18-.35-.13-.48.09-.25.25-.49.43-.67,5.06-5.07,10.34-9.9,16.23-14.01.69-.48,1.33-.95,1.82-1.65,1-1.42,2.04-2.82,3.01-4.16-.4-.75-.87-.47-1.27-.37-2.05.5-4.09,1.04-6.14,1.54-.91.22-1.73.59-2.49,1.13-5.95,4.21-11.42,8.92-15.82,14.8-1.54,2.06-3.19,4.04-4.84,6.01-2.09,2.49-3.59,5.32-4.92,8.25-.3.66-.7,1.29-1.1,1.9-.14.2-.42.35-.72.15-.24-.16-.39-.38-.34-.68.1-.54.19-1.09.37-1.6.95-2.79,2.1-5.48,3.86-7.88,1.74-2.37,3.45-4.75,5.17-7.12-.63-.65-1.06-.05-1.46.18-3.51,2-6.99,4.05-10.49,6.07-1.03.6-2.1,1.14-3.15,1.69-.41.21-.84.37-1.26.55-.36.16-.78.21-1-.11-.22-.34.04-.68.37-.89.15-.1.32-.18.48-.27,5.93-3.13,11.52-6.85,17.39-10.08,1.83-1,3.22-2.34,4.55-3.85,1.09-1.23,2.29-2.37,3.42-3.58.16-.17.34-.54.26-.69-.18-.36-.56-.39-.95-.25-.35.12-.71.19-1.06.31-6.09,2.06-12.13,4.21-17.99,6.9-3.02,1.38-5.4,3.4-7.52,5.86-4.43,5.15-8.95,10.24-12.85,15.82-.1.15-.22.3-.37.39-.13.08-.32.11-.47.09-.35-.05-.41-.37-.39-.62.07-.76.47-1.38.91-1.98,1.26-1.69,2.46-3.44,3.83-5.05,2.38-2.79,4.43-5.87,7.07-8.45.16-.16.23-.42.39-.73-1-.04-1.66.55-2.33.95-4.17,2.51-8.33,5.04-12.27,7.9-.37.27-.75.53-1.12.8-.26.19-.52.17-.76,0-.42-.3-.22-.66,0-.94.94-1.15,2.18-1.96,3.38-2.8,4.37-3.05,8.8-5.99,13.37-8.74.6-.36,1.35-.59,1.6-1.37-.57-.45-1.1-.17-1.62-.06-4.79.98-9.64,1.38-14.5,1.63-.37.02-.73.05-1.1.04-.94-.01-1.79-.44-1.58-.76.36-.56.98-.39,1.51-.44,4.57-.42,9.14-.91,13.69-1.6,3.28-.5,6.48-1.33,9.67-2.19.62-.17,1.23-.39,1.8-.66,3.74-1.75,7.47-3.52,11.21-5.29.16-.08.3-.21.45-.32.17-.03.36-.03.51-.11.21-.11.54-.28.54-.43,0-.29-.32-.37-.59-.35-.18.01-.35.06-.52.1-.97-.34-1.98-.34-2.98-.41-6.26-.4-12.48.02-18.71.6-.36.03-.73.12-1.09.11-.26,0-.61-.09-.53-.46.05-.23.24-.55.44-.62.6-.21,1.23-.39,1.86-.46,1.92-.2,3.84-.34,5.77-.49,1.27-.1,2.54-.17,3.85-.26-.28-.75-.88-.74-1.38-.88-5.05-1.43-9.77-3.72-14.58-5.75-.4-.17-.75-.5-1.08-.8-.09-.08-.09-.35-.02-.48.06-.13.25-.29.39-.3.66-.03,1.24.26,1.83.5,3.32,1.32,6.65,2.63,9.98,3.94.74.29,1.47.59,2.68.47-2.14-1.56-3.99-2.88-5.83-4.23-1.26-.93-2.48-1.9-3.52-3.08-.29-.33-.78-.68-.47-1.15.38-.57.78-.02,1.13.17.24.13.44.32.67.49,3.05,2.21,6.07,4.46,9.16,6.62,3.59,2.5,7.48,4.27,11.94,4.53.64.04,1.28.13,1.92.21,2.78.38,5.4.08,8.06-1.01,5.61-2.3,11.48-3.82,17.31-5.46.6-.17,1.27-.17,1.7-.72.01-.44-.35-.37-.58-.42-11.15-2.23-22.43-2.37-33.73-2.16-2.2.04-4.41.08-6.61.1-.31,0-.51-.23-.53-.52-.02-.3.2-.52.47-.56.63-.1,1.27-.2,1.91-.23,6.15-.29,12.29-.67,18.45-.31.35.02.72-.06,1.18-.1-.76-.82-1.74-.85-2.58-1.11-5.27-1.64-10.33-3.78-15.35-6.05-1.43-.65-1.93-1.18-1.55-1.5.73-.63,1.42-.06,2.04.19,4.76,1.94,9.55,3.78,14.44,5.38,3.93,1.29,7.93,2.29,11.95,3.24.26.06.54.01.81.02.24.11.48.25.73.33.15.05.32.03.48.04-.08-.15-.13-.34-.25-.44-.28-.23-.6-.39-.98-.3-2.89-2.11-6.13-3.63-9.16-5.52-1.48-.92-2.93-1.87-4.39-2.81-.23-.15-.45-.33-.62-.54-.17-.2-.31-.45-.15-.74.19-.34.47-.2.67-.09,1.51.86,3.01,1.75,4.52,2.61,5.17,2.94,10.34,5.87,15.89,8.07.76.3,1.52.63,2.3.89,3.17,1.03,6.28,1.6,9.64.43,2.83-.98,5.86-1.4,8.8-2.07,3.16-.51,6.31-1.01,9.47-1.53.45-.08.92-.23,1.32.06.17.13.31.47.27.69-.04.24-.26.49-.47.65-.81.61-1.67,1.12-2.64,1.44-2.34.78-4.68,1.56-7.02,2.37-1.12.39-2.22.83-3.33,1.25ZM116.09,126.87c0,.09,0,.17,0,.26.08-.02.2,0,.24-.05.04-.05,0-.16,0-.25-.08.02-.17.03-.25.05Z"/>
                <path class="cls-24" d="M126.08,111.79c.38-.09.71.07.98.3.12.1.17.29.25.44-.16-.01-.33,0-.48-.04-.25-.09-.49-.22-.73-.33,0-.12-.02-.24-.03-.36Z"/>
                <path class="cls-24" d="M107.32,125.1c.17-.03.35-.09.52-.1.27-.02.59.06.59.35,0,.14-.33.32-.54.43-.15.08-.34.08-.51.11-.02-.26-.04-.52-.07-.79Z"/>
                <path class="cls-24" d="M116.09,126.87c.08-.02.17-.03.25-.05,0,.09.03.2,0,.25-.04.05-.16.04-.24.05,0-.09,0-.17,0-.26Z"/>
              </g>
              <g>
                <path class="cls-19" d="M395.64,127.01c-7.7-4.69-15.89-5.5-24.32-2.4-4.76,1.75-8.71,4.84-12.06,8.68-.99,1.14-1.71,2.43-2.53,3.67-1.66,2.52-2.83,5.27-3.52,8.19-1.58,6.74-.93,13.28,1.99,19.56.25.56.49,1.13.76,1.68,5.25,10.92,17.2,17.71,28.91,16.24,5.41-.68,10.22-2.74,14.2-6.36,4.94-4.49,8.56-9.91,10.08-16.57,1.37-6.02.88-11.89-1.28-17.62-2.41-6.36-6.38-11.52-12.23-15.07Z"/>
                <path class="cls-21" d="M398.76,135.33c-3.8-4.42-8.5-7.29-14.27-8.36-2.58-.48-5.05-.04-7.56.49-4.85,1.02-9.18,2.95-12.63,6.62-3.56,3.79-6.2,8.07-7.18,13.27-1.04,5.54-.38,10.84,1.76,15.32,1.04,2.39,1.81,4.16,2.99,5.73,3.64,4.85,8.5,7.82,14.34,9.22,2.94.71,5.9.65,8.88-.1,2.41-.61,4.66-1.54,6.91-2.56,2.72-1.23,4.89-3.09,6.67-5.44,2.53-3.34,4.31-7.06,5.19-11.16,1.82-8.44.72-16.26-5.09-23.03Z"/>
                <path class="cls-24" d="M378.64,147.02c.59,1.47,1.19,2.94,1.33,4.54.05.54.02,1.05-.3,1.51-.26.37-.56.72-1.07.55-2.52-.84-4.91-1.9-6.63-4.08-.81-1.03-1.07-2.2-1.09-3.45-.01-.91.33-1.77.95-2.4,1.35-1.36,2.94-1.85,4.61-.23.31.3.64.62.86,1,.48.84.9,1.71,1.34,2.57Z"/>
                <path class="cls-24" d="M386.05,151.98c-1.51.7-2.31.37-2.52-.85-.38-2.15-.75-4.31.05-6.47,1.06-2.87,3.62-3.65,6.04-1.81,2.15,1.63,2.41,3.47.79,5.64-.26.35-.57.66-.87.98-1.11,1.15-2.71,1.59-3.48,2.51Z"/>
                <path class="cls-24" d="M391.98,158.8c.27.59.29,1.19.12,1.8-.4,1.52-1.48,2.34-2.88,2.78-1.28.4-2.18-.35-2.99-1.18-1.48-1.52-2.39-3.43-3.5-5.21-.13-.21-.14-.5-.17-.76-.05-.53.39-1.12.89-1.1,2.57.12,5.02.63,7.2,2.1.59.4,1.08.89,1.33,1.57Z"/>
                <path class="cls-24" d="M378.16,156.91c.97-.47,1.6-.22,1.78.49.37,1.44.77,2.89.97,4.36.1.75-.08,1.58-.31,2.32-.62,1.95-2.68,2.83-4.46,1.83-2.29-1.3-3.82-4.41-1.06-6.73,1.07-.9,2.25-1.67,3.07-2.27Z"/>
                <path class="cls-8" d="M403.65,134.28c1.74,2.34,3.14,4.95,4.22,7.81,2.17,5.73,2.66,11.6,1.28,17.62-1.52,6.66-5.14,12.08-10.08,16.57-3.98,3.62-8.78,5.68-14.2,6.36-10.5,1.32-21.2-4.01-27.08-13,0,0,20.91-10.53,31.73-20.17s14.12-15.19,14.12-15.19Z"/>
              </g>
              <g>
                <path class="cls-19" d="M160.55,13.16c-7.7-4.69-15.89-5.5-24.32-2.4-4.76,1.75-8.71,4.84-12.06,8.68-.99,1.14-1.71,2.43-2.53,3.67-1.66,2.52-2.83,5.27-3.52,8.19-1.58,6.74-.93,13.28,1.99,19.56.25.56.49,1.13.76,1.68,5.25,10.92,17.2,17.71,28.91,16.24,5.41-.68,10.22-2.74,14.2-6.36,4.94-4.49,8.56-9.91,10.08-16.57,1.37-6.02.88-11.89-1.28-17.62-2.41-6.36-6.38-11.51-12.23-15.07Z"/>
                <path class="cls-21" d="M163.67,21.48c-3.8-4.42-8.5-7.29-14.27-8.36-2.58-.48-5.05-.04-7.56.49-4.85,1.02-9.18,2.95-12.63,6.62-3.56,3.79-6.2,8.07-7.18,13.27-1.04,5.54-.38,10.84,1.76,15.32,1.04,2.39,1.81,4.16,2.99,5.73,3.64,4.85,8.5,7.82,14.34,9.22,2.94.71,5.9.65,8.88-.1,2.41-.61,4.66-1.54,6.91-2.56,2.72-1.23,4.89-3.09,6.67-5.44,2.53-3.34,4.31-7.06,5.19-11.16,1.82-8.44.72-16.26-5.09-23.03Z"/>
                <path class="cls-24" d="M143.55,33.16c.59,1.47,1.19,2.94,1.33,4.54.05.54.02,1.05-.3,1.51-.26.37-.56.72-1.07.55-2.52-.84-4.91-1.9-6.63-4.08-.81-1.03-1.07-2.2-1.09-3.45-.01-.91.33-1.77.95-2.4,1.35-1.36,2.94-1.85,4.61-.23.31.3.64.62.85,1,.48.84.9,1.71,1.34,2.57Z"/>
                <path class="cls-24" d="M150.96,38.13c-1.51.7-2.31.37-2.52-.85-.38-2.15-.75-4.31.05-6.47,1.06-2.87,3.62-3.65,6.04-1.81,2.15,1.63,2.41,3.47.79,5.64-.26.35-.57.66-.87.98-1.11,1.15-2.71,1.59-3.48,2.51Z"/>
                <path class="cls-24" d="M156.9,44.95c.27.59.29,1.19.12,1.8-.4,1.52-1.48,2.34-2.88,2.78-1.28.4-2.18-.35-2.99-1.18-1.48-1.52-2.39-3.43-3.5-5.21-.13-.21-.15-.5-.17-.76-.05-.53.39-1.12.89-1.1,2.57.12,5.03.63,7.2,2.1.59.4,1.08.89,1.33,1.57Z"/>
                <path class="cls-24" d="M143.07,43.05c.97-.47,1.6-.22,1.78.49.37,1.44.77,2.89.97,4.36.1.75-.08,1.58-.31,2.32-.62,1.95-2.68,2.83-4.46,1.83-2.29-1.3-3.82-4.41-1.06-6.73,1.07-.9,2.25-1.67,3.07-2.27Z"/>
              </g>
              <path class="cls-16" d="M417.36,8.37c3.13-1.5,6.01-1.94,9.02-1.49,4.1.6,6.84,2.92,8.36,6.71.88,2.19.59,4.44-.1,6.61-1.4,4.37-4.54,7.02-8.73,8.65-6.87,2.69-13.95-3.46-14.38-9.36-.14-1.95,0-3.86.73-5.68,1.05-2.61,2.47-4.9,5.1-5.44ZM427.09,15.91c-.95-2-2.47-3.25-4.65-3.79-1.25-.31-2.08-.12-2.84,1.12-1.03,1.68-1.08,3.5-.58,5.34.71,2.61,2.73,3.74,4.82,4.1.58.1,1.1-.1,1.57-.46,2.49-1.93,2.75-3.59,1.68-6.31Z"/>
              <path class="cls-16" d="M198.28,50.78c1.21-3.25,2.98-5.57,5.45-7.34,3.37-2.42,6.95-2.65,10.68-.99,2.16.97,3.51,2.78,4.52,4.82,2.03,4.12,1.61,8.2-.26,12.29-3.08,6.71-12.44,7.2-16.84,3.27-1.46-1.3-2.69-2.78-3.42-4.59-1.06-2.61-1.62-5.24-.12-7.46ZM210.52,49.44c-2.07-.78-4.03-.62-5.98.51-1.11.64-1.58,1.36-1.26,2.78.43,1.92,1.65,3.27,3.29,4.25,2.32,1.38,4.57.79,6.32-.4.48-.33.72-.84.81-1.42.45-3.12-.52-4.49-3.18-5.7Z"/>
              <path class="cls-16" d="M193.62,81.86c3.6-1.67,7.08-1.05,10.39.69,2.35,1.23,3.82,3.33,4.43,5.95.72,3.13.5,6.22-1.33,8.88-2.09,3.03-5.29,5.34-9.67,4.22-3.72-.94-6.56-3.08-8.35-6.38-1.84-3.41-1.57-6.96.31-10.34.66-1.19,1.93-1.75,3.02-2.46.36-.24.8-.37,1.2-.55ZM200.35,89.88c-.64-1.42-2.26-2.41-3.19-2.08-.85.3-1.7,1.76-1.58,2.8.14,1.14.83,1.91,1.82,2.39.7.34,1.43.7,2.23.26.68-.37,1.1-1.51.93-2.55-.05-.34-.18-.67-.22-.82Z"/>
              <g>
                <path class="cls-19" d="M465.41,14.94c-1.1-1.29-2.39-2.03-4.15-2.23-2.39-.27-4.51.19-6.59,1.34-2.47,1.36-4.56,3.16-6.42,5.25-4.22,4.72-7.25,10.11-8.92,16.23-.93,3.42-1.8,6.86-2.69,10.29-.51,1.95-1.1,3.87-1.9,5.72-1.1,2.55-2.64,4.48-5.68,4.37-1.17.34-2.29.59-3.36,1-2.54.96-4.09,2.78-4.46,5.5-.15,1.13-.23,2.29-.26,3.43-.08,3.27.38,6.5.74,9.73.17,1.52.27,3.05.31,4.58.05,1.99-.68,3.55-2.69,4.28-.8.29-1.58.66-2.39.96-3.72,1.37-5.53,3.87-5.55,7.84,0,1.91.09,3.83.56,5.71.53,2.14,1.06,4.28,1.56,6.42.24,1.02.48,2.06.58,3.1.21,2.08-.52,3.77-2.33,4.91-1.3.81-2.56,1.71-3.95,2.32-3.18,1.4-4.51,4-4.94,7.21-.31,2.29-.19,4.6.2,6.87.64,3.68,1.36,7.35,2.1,11.01,1.55,7.77,1.82,15.58.85,23.44-.28,2.3-.84,4.5-1.9,6.59-.87,1.71-1.67,3.45-2.42,5.21-.37.87-.63,1.8-.84,2.73-.17.72.6,1.22,1.32.92.26-.11.58-.21.72-.42,1.81-2.7,4.02-5.13,5.4-8.12,2.88-6.27,6.16-12.35,8.67-18.79.91-2.35,2.51-4.04,4.7-5.21,2.19-1.17,4.34-2.42,6.74-3.17,2.19-.68,4.31-1.61,6.52-2.24,2.01-.58,3.59-1.7,5.08-3.1,3.98-3.73,5.33-8.26,4.34-13.56-.18-.94-.36-1.88-.54-2.82-.54-2.95.54-5.27,2.85-7.05.9-.7,1.91-1.27,2.9-1.84.83-.48,1.74-.83,2.54-1.34,3.48-2.24,5.91-5.11,5.79-9.57-.03-1.24.04-2.48-.1-3.73-.16-1.43-.32-2.86-.39-4.29-.18-4.04,1.31-7.27,4.72-9.55.87-.58,1.72-1.21,2.56-1.84,3.29-2.43,4.4-5.65,3.47-9.61-.13-.56-.27-1.12-.47-1.66-.62-1.71-1.26-3.41-1.9-5.11-1.05-2.78-2.05-5.57-2.68-8.49-.51-2.37-.6-4.72-.27-7.12.56-4,1.7-7.85,2.71-11.74.65-2.5,1.38-4.99,1.94-7.51.88-3.96,1.19-7.95.23-11.96-.43-1.8-1.14-3.45-2.35-4.87Z"/>
                <path class="cls-11" d="M465.83,66.63c.64,1.7,1.28,3.4,1.9,5.11.19.54.33,1.1.47,1.66.93,3.96-.18,7.18-3.47,9.61-.85.62-1.69,1.25-2.56,1.84-3.41,2.28-4.9,5.51-4.72,9.55.06,1.43.23,2.87.39,4.29.14,1.24.06,2.49.1,3.73.11,4.46-2.31,7.33-5.79,9.57-.8.52-1.71.86-2.54,1.34-.99.58-2,1.14-2.9,1.84-2.3,1.78-3.38,4.11-2.85,7.05.17.94.36,1.88.54,2.82.99,5.3-.36,9.83-4.34,13.56-1.49,1.4-3.07,2.52-5.08,3.1-2.2.64-4.32,1.56-6.52,2.24-2.4.75-4.55,2-6.74,3.17-2.19,1.17-3.79,2.87-4.7,5.21-2.5,6.44-5.78,12.52-8.67,18.79-1.38,3-3.59,5.42-5.4,8.12-.14.21-.46.31-.72.42-.72.3-1.49-.2-1.32-.92.21-.93.47-1.86.84-2.73.75-1.76,1.55-3.51,2.42-5.21,1.06-2.08,1.61-4.28,1.9-6.59.97-7.86.7-15.67-.85-23.44-.73-3.66-1.45-7.33-2.1-11.01,0,0,9.09-.31,31.58-25.87,22.5-25.57,31.14-37.27,31.14-37.27Z"/>
                <path class="cls-6" d="M425.12,117.24c.98-.26,1.62-.97,2.28-1.66,2.99-3.09,6.12-6.03,9.51-8.68,1.88-1.47,3.62-3.12,5.49-4.59,1.34-1.06,2.79-2,4.22-2.95.37-.25.83-.43,1.47,0-.76.63-1.47,1.25-2.21,1.82-5.44,4.21-10.63,8.69-15.58,13.48-2.55,2.46-4.89,5.07-7.16,7.77-.94,1.12-1.46,2.48-1.94,3.79-1.1,3.06-2.25,6.08-3.65,9.01-.11.22-.13.62,0,.8.26.34.69.29,1.02.07.4-.25.8-.54,1.14-.86,3.92-3.65,8.31-6.67,12.88-9.45,1.41-.85,2.89-1.46,4.54-1.64h0c-.71.96-1.77,1.43-2.8,1.89-2.29,1.03-4.25,2.57-6.24,4.03-4.09,3-7.93,6.31-11.5,9.93-1.24,1.26-2.15,2.65-2.66,4.35-.54,1.83-1.17,3.64-1.78,5.45-.05.15-.28.36-.4.35-.32-.03-.45-.34-.41-.61.25-1.61.71-3.17,1.25-4.71.41-1.17.74-2.37,1.1-3.56.19-.65.19-1.3.14-1.99-.16-2.28-.21-4.56-.36-6.84-.05-.76-.23-1.51-.36-2.27-.16-.94-.43-1.86-.28-2.84.15-.98-.09-1.89-.6-2.75-.2-.33-.31-.73.21-.91.45-.15.81.16.94.47.7,1.59,1.11,3.3,1.03,5.02-.09,1.77.43,3.41.73,5.1.02.14.22.32.36.33.15.02.37-.08.48-.21.19-.21.36-.46.45-.73,1.7-4.67,3.43-9.33,5.07-14.02.6-1.71.85-3.46.81-5.34-.08-3.62-.37-7.22-.55-10.83-.17-3.48-1.01-6.8-1.6-10.18-.08-.46-.12-.94-.11-1.41,0-.12.24-.25.39-.34.05-.03.2.01.24.07.41.63.97,1.22,1.19,1.92.45,1.46.91,2.96.81,4.5-.07,1.08.09,2.1.29,3.13.31,1.59.63,3.16.54,4.83-.05,1.09.4,2.2.63,3.28.73.03.94-.44,1.09-.87,1.27-3.61,2.49-7.23,3.77-10.83,1.01-2.84,1.05-5.81,1.34-8.76.08-.85.05-1.72.16-2.57.46-3.71.37-7.41.02-11.13-.29-3.03-.46-6.07-.67-9.11,0-.09.04-.18.05-.27.03-.24.17-.37.4-.31.16.04.4.13.45.25.37.99.65,2.02.52,3.08-.09.78-.08,1.54.15,2.28.8,2.59.56,5.31.91,7.96.29,2.24-.06,4.56-.11,6.85,0,.28.08.58.41.59.15,0,.39-.15.45-.29.66-1.48,1.33-2.96,1.92-4.47.83-2.13,1.58-4.3,2.41-6.43,2.36-6.16,4.8-12.29,7.1-18.47,1.17-3.13,2.06-6.37,3.15-9.53,1.94-5.62,3.2-11.43,4.81-17.14.15-.55.37-1.08.57-1.61.03-.07.19-.15.24-.13.15.07.38.19.38.29,0,.47-.03.95-.14,1.4-1.37,5.58-2.75,11.15-4.14,16.72-1.39,5.57-3.03,11.07-4.86,16.52-1.43,4.26-2.57,8.62-4.04,12.86-1.56,4.51-3.37,8.95-5.07,13.41-.2.54-.41,1.07-.63,1.6-.11.28-.13.58.14.76.27.18.55.06.74-.17.86-1.02,1.7-2.06,2.57-3.08,2.99-3.51,6.4-6.55,10.12-9.26,1.23-.9,2.32-1.98,3.51-2.94.89-.72,1.86-1.34,2.94-1.74.15-.05.41,0,.53.11.22.21.24.54.02.74-.64.58-1.3,1.13-1.98,1.66-5.05,3.96-9.87,8.19-14.23,12.89-1.88,2.03-3.7,4.12-5.39,6.3-1.4,1.81-2.57,3.79-3.36,5.98-1.67,4.58-3.44,9.12-5.14,13.69-.13.34-.08.75-.11,1.13-.06.04-.13.08-.17.14-.02.04,0,.1,0,.16.06-.09.13-.19.19-.28Z"/>
                <path class="cls-5" d="M437.12,124.14c.03-.09.06-.26.08-.26.21,0,.19.11-.07.26h0Z"/>
              </g>
              <g>
                <path class="cls-19" d="M223.72,107.39c.12-1.55.68-2.8,1.89-3.9,1.63-1.49,3.46-2.29,5.62-2.55,2.57-.32,5.09-.1,7.59.44,5.68,1.24,10.83,3.61,15.37,7.26,2.54,2.04,5.03,4.13,7.54,6.2,1.43,1.17,2.9,2.28,4.49,3.23,2.19,1.3,4.38,1.9,6.58.19,1.05-.38,2.02-.79,3.04-1.07,2.4-.65,4.54-.14,6.28,1.69.72.76,1.4,1.58,2.04,2.41,1.82,2.38,3.22,5.03,4.69,7.64.69,1.22,1.44,2.42,2.24,3.58,1.04,1.51,2.42,2.27,4.31,1.73.76-.21,1.53-.36,2.29-.57,3.5-.99,6.19-.1,8.35,2.84,1.04,1.42,2,2.9,2.66,4.55.75,1.88,1.51,3.75,2.3,5.62.37.89.75,1.79,1.24,2.62.97,1.66,2.42,2.52,4.37,2.39,1.4-.1,2.82-.11,4.19-.4,3.12-.67,5.51.54,7.55,2.7,1.46,1.54,2.62,3.32,3.55,5.22,1.5,3.08,2.94,6.2,4.37,9.32,3.03,6.61,7.04,12.57,11.99,17.89,1.45,1.56,3.05,2.9,4.96,3.87,1.57.8,3.1,1.67,4.61,2.57.75.45,1.44,1,2.1,1.58.51.44.21,1.23-.49,1.39-.25.06-.55.16-.76.08-2.8-1.03-5.75-1.65-8.39-3.13-5.52-3.11-11.23-5.86-16.56-9.3-1.94-1.25-4.04-1.65-6.3-1.34-2.26.31-4.53.54-6.72,1.27-2,.67-4.07,1.13-6.05,1.84-1.8.65-3.58.67-5.45.43-4.97-.63-8.41-3.27-10.53-7.74-.38-.8-.74-1.6-1.12-2.39-1.19-2.48-3.24-3.63-5.92-3.71-1.05-.03-2.1.09-3.15.19-.87.09-1.74.32-2.61.37-3.8.21-7.15-.62-9.46-3.99-.64-.94-1.37-1.82-1.94-2.82-.65-1.15-1.3-2.3-2.02-3.4-2.04-3.1-4.89-4.7-8.65-4.56-.96.04-1.93.02-2.9.01-3.75-.03-6.32-1.83-7.76-5.27-.2-.49-.4-.98-.55-1.48-.46-1.6-.9-3.22-1.34-4.83-.72-2.63-1.48-5.25-2.58-7.76-.89-2.03-2.09-3.83-3.64-5.44-2.57-2.67-5.49-4.93-8.34-7.27-1.83-1.51-3.71-2.97-5.48-4.54-2.79-2.47-5.16-5.27-6.61-8.76-.65-1.57-1.01-3.18-.87-4.89Z"/>
                <path class="cls-10" d="M234.96,124.18c.58.47,1.15.93,1.73,1.4,2.85,2.35,5.77,4.6,8.34,7.27,1.55,1.61,2.75,3.4,3.64,5.44,1.1,2.51,1.86,5.12,2.58,7.76.44,1.61.88,3.22,1.34,4.83.15.51.34,1,.55,1.48,1.44,3.44,4,5.24,7.76,5.27.97,0,1.93.02,2.9-.01,3.77-.14,6.61,1.46,8.65,4.56.72,1.1,1.37,2.25,2.02,3.4.57,1,1.29,1.88,1.94,2.82,2.32,3.38,5.67,4.21,9.46,3.99.87-.05,1.74-.28,2.61-.37,1.05-.1,2.1-.23,3.15-.19,2.67.09,4.73,1.23,5.92,3.71.38.79.75,1.59,1.12,2.39,2.12,4.48,5.56,7.12,10.53,7.74,1.86.24,3.64.22,5.45-.43,1.98-.72,4.05-1.17,6.05-1.84,2.19-.74,4.46-.96,6.72-1.27,2.26-.31,4.36.09,6.3,1.34,5.33,3.44,11.04,6.19,16.56,9.3,2.64,1.49,5.59,2.1,8.39,3.13.22.08.52-.02.76-.08.7-.17,1-.95.49-1.39-.66-.57-1.35-1.13-2.1-1.58-1.51-.9-3.04-1.77-4.61-2.57-1.91-.97-3.51-2.31-4.96-3.87-4.96-5.32-8.96-11.27-11.99-17.89-1.43-3.12-2.87-6.23-4.37-9.32-.93-1.9-2.09-3.68-3.55-5.22-2.05-2.16-4.43-3.37-7.55-2.7-1.36.29-2.79.3-4.19.4-1.95.13-3.41-.73-4.37-2.39-.48-.83-.86-1.73-1.24-2.62-.79-1.86-1.54-3.74-2.3-5.62-.66-1.65-1.62-3.13-2.66-4.55-2.15-2.95-4.84-3.83-8.35-2.84-.76.21-1.53.36-2.29.57-1.89.54-3.27-.22-4.31-1.73-.79-1.16-1.54-2.35-2.24-3.58,0,0-24.19-7.09-34.52-7.11-10.33-.02-19.36,2.35-19.36,2.35Z"/>
                <path class="cls-6" d="M308.77,161.74c-.86.33-1.72.15-2.59,0-3.89-.69-7.79-1.19-11.74-1.34-2.19-.08-4.37-.37-6.55-.46-1.57-.06-3.15.02-4.73.09-.41.02-.85.13-1.1.78.91.06,1.76.13,2.62.16,6.31.2,12.59.73,18.85,1.63,3.22.46,6.37,1.13,9.51,1.92,1.3.33,2.42,1.05,3.49,1.78,2.46,1.68,4.95,3.31,7.57,4.73.2.11.43.39.43.59,0,.39-.36.58-.72.61-.44.03-.88.03-1.31-.02-4.88-.6-9.77-.49-14.66-.09-1.51.12-2.94.47-4.26,1.22h0c1.04.33,2.08.11,3.1-.1,2.26-.47,4.55-.38,6.81-.36,4.66.03,9.29.42,13.9,1.19,1.6.27,3.03.81,4.32,1.8,1.39,1.07,2.83,2.08,4.26,3.09.12.09.4.12.49.04.22-.19.15-.49-.02-.67-1.06-1.06-2.23-1.97-3.47-2.82-.94-.65-1.83-1.36-2.73-2.06-.49-.38-.84-.87-1.18-1.4-1.11-1.78-2.3-3.51-3.42-5.28-.37-.59-.64-1.25-.95-1.88-.39-.79-.68-1.62-1.32-2.26-.64-.65-.96-1.46-1.04-2.37-.03-.36-.17-.71-.65-.56-.41.13-.52.55-.45.86.34,1.56.95,3.05,1.94,4.28,1.02,1.27,1.52,2.76,2.2,4.18.05.11,0,.36-.09.44-.1.1-.32.14-.47.1-.25-.06-.51-.15-.73-.3-3.78-2.55-7.57-5.09-11.32-7.69-1.37-.95-2.49-2.11-3.47-3.53-1.89-2.74-3.61-5.57-5.42-8.35-1.75-2.68-2.91-5.6-4.29-8.43-.19-.39-.42-.76-.67-1.11-.06-.09-.31-.05-.47-.04-.05,0-.14.12-.14.18.03.69-.06,1.43.15,2.07.45,1.33.92,2.69,1.82,3.78.63.77,1.06,1.61,1.47,2.48.63,1.35,1.24,2.69,2.2,3.88.63.78.89,1.86,1.3,2.78-.52.42-.94.18-1.28-.06-2.89-2-5.74-4.03-8.63-6.02-2.28-1.57-3.91-3.76-5.71-5.79-.52-.59-.96-1.25-1.5-1.83-2.34-2.51-4.27-5.31-6.01-8.26-1.42-2.41-2.93-4.76-4.41-7.14-.04-.07-.13-.11-.19-.18-.15-.16-.33-.18-.47-.01-.1.12-.23.31-.2.43.26.94.6,1.85,1.27,2.57.49.53.89,1.11,1.12,1.77.8,2.36,2.45,4.25,3.61,6.4.99,1.82,2.5,3.36,3.77,5.03.16.2.25.47.01.66-.11.09-.37.1-.49.03-1.29-.75-2.58-1.49-3.84-2.29-1.77-1.14-3.49-2.34-5.25-3.49-5.07-3.3-10.19-6.55-15.23-9.9-2.55-1.7-4.96-3.62-7.48-5.39-4.47-3.14-8.54-6.77-12.81-10.16-.41-.32-.86-.6-1.3-.89-.06-.04-.22-.01-.25.03-.07.13-.18.35-.12.42.26.35.53.69.86.97,4.02,3.41,8.05,6.81,12.09,10.2,4.03,3.4,8.21,6.6,12.51,9.66,3.36,2.39,6.55,5.02,9.93,7.39,3.59,2.51,7.32,4.84,10.99,7.24.44.29.88.57,1.33.86.24.15.41.36.31.64-.1.28-.37.34-.65.27-1.19-.3-2.37-.62-3.57-.91-4.11-1-8.29-1.43-12.51-1.44-1.4,0-2.8-.22-4.2-.3-1.05-.06-2.1,0-3.12.29-.14.04-.31.22-.33.36-.05.27.11.53.39.56.79.08,1.58.14,2.37.17,5.89.22,11.74.77,17.53,1.92,2.49.49,4.97,1.07,7.41,1.78,2.02.59,3.95,1.44,5.72,2.64,3.71,2.5,7.47,4.93,11.2,7.41.28.19.46.51.69.78.07,0,.14,0,.2.01.04.01.06.07.09.11-.1-.04-.19-.07-.29-.11Z"/>
                <path class="cls-5" d="M303.56,173.33c-.07-.05-.18-.16-.2-.15-.15.12-.08.18.19.16h0Z"/>
              </g>
              <g>
                <path class="cls-19" d="M279.39,190.17c-3.63-6.13-6.71-11.56-9.33-17.25-1.98-4.32-4.04-8.6-5.92-12.96-3.12-7.23-5.17-14.76-6.14-22.59-.37-3-.22-5.97.49-8.91.84-3.48,2.82-6.2,5.67-8.28,1.82-1.33,3.97-1.84,6.21-1.92,4.55-.17,8.91.76,13.21,2.14,8.75,2.82,16.84,7.07,24.84,11.51,3.3,1.83,6.64,3.61,9.71,5.83,8.85,6.39,17.5,13.03,24.76,21.27,3.72,4.23,7.22,8.65,10.31,13.36,2.96,4.52,5.12,9.4,5.84,14.84.13.95.55,1.85.69,2.79.75,4.94.3,9.76-1.31,14.52-1.42,4.18-3.75,7.7-6.91,10.71-3.46,3.3-7.65,5.22-12.22,6.39-5.66,1.45-11.46,1.93-17.27,1.89-5.97-.04-11.7-1.3-16.9-4.46-1.43-.87-2.82-1.79-4.07-2.91-6.52-5.83-12.39-12.22-17.24-19.53-1.6-2.42-3.28-4.79-4.43-6.46ZM350.24,172.4c-2.22-3.66-4.75-6.58-7.14-9.62-2.67-3.39-5.59-6.55-8.75-9.46-3.29-3.03-6.81-5.82-10.31-8.62-2.26-1.81-4.61-3.52-7.01-5.15-4.96-3.35-10.24-6.18-15.55-8.93-3.82-1.98-7.71-3.82-11.73-5.38-2.05-.8-4.18-1.38-6.24-2.13-2.87-1.04-5.81-1.35-8.79-1.5-1.31-.07-2.64.07-3.94.26-1.31.19-2.6.57-3.65,1.42-2.51,2.03-4.51,4.42-5.27,7.65-.55,2.33-.75,4.67-.57,7.07.47,6.19,2.04,12.12,4.08,17.94,1.22,3.48,2.79,6.81,4.27,10.18,1.59,3.62,3.27,7.2,5.08,10.69,2.59,4.99,5.17,10,8.4,14.63.4.58.71,1.25,1.19,1.74,2.22,2.28,3.55,5.22,5.68,7.59,1.4,1.56,2.7,3.23,4.1,4.79,2.11,2.36,4.47,4.47,6.79,6.61,3.44,3.17,7.4,5.32,11.91,6.49,3.87,1,7.78,1.4,11.77.94.44-.05.88-.06,1.32-.07,5.4-.14,10.63-1.01,15.68-3.05,2.75-1.11,5.21-2.56,7.22-4.69,2.47-2.61,4.88-5.28,5.85-8.94.31-1.17.69-2.35,1.09-3.51,1.27-3.7,1-7.49.38-11.2-.28-1.7-.64-3.44-1.07-5.14-.11-.43-.14-.88-.3-1.28-1.31-3.35-2.51-6.76-4.48-9.35Z"/>
                <path class="cls-21" d="M350.24,172.4c-2.22-3.66-4.75-6.58-7.14-9.62-2.67-3.39-5.59-6.55-8.75-9.46-3.29-3.03-6.81-5.82-10.31-8.62-2.26-1.81-4.61-3.52-7.01-5.15-4.96-3.35-10.24-6.18-15.55-8.93-3.82-1.98-7.71-3.82-11.73-5.38-2.05-.8-4.18-1.38-6.24-2.13-2.87-1.04-5.81-1.35-8.79-1.5-1.31-.07-2.64.07-3.94.26-1.31.19-2.6.57-3.65,1.42-2.51,2.03-4.51,4.42-5.27,7.65-.55,2.33-.75,4.67-.57,7.07.47,6.19,2.04,12.12,4.08,17.94,1.22,3.48,2.79,6.81,4.27,10.18,1.59,3.62,3.27,7.2,5.08,10.69,2.59,4.99,5.17,10,8.4,14.63.4.58.71,1.25,1.19,1.74,2.22,2.28,3.55,5.22,5.68,7.59,1.4,1.56,2.7,3.23,4.1,4.79,2.11,2.36,4.47,4.47,6.79,6.61,3.44,3.17,7.4,5.32,11.91,6.49,3.87,1,7.78,1.4,11.77.94.44-.05.88-.06,1.32-.07,5.4-.14,10.63-1.01,15.68-3.05,2.75-1.11,5.21-2.56,7.22-4.69,2.47-2.61,4.88-5.28,5.85-8.94.31-1.17.69-2.35,1.09-3.51,1.27-3.7,1-7.49.38-11.2-.28-1.7-.64-3.44-1.07-5.14-.11-.43-.14-.88-.3-1.28-1.31-3.35-2.51-6.76-4.48-9.35Z"/>
                <path class="cls-14" d="M335.49,168.96c-6.25-7.46-16.11-8.59-22.71-5.82-6.06,2.54-10.25,6.79-12.23,12.93-2.06,6.4-1.43,12.67,2.33,18.43.96,1.47,1.93,2.91,3.2,4.17,3.46,3.41,7.61,5.38,12.39,5.85,4.67.47,9.05-.58,13.03-3.2,1.96-1.29,3.25-3.18,4.72-4.91,2.4-2.83,3.62-6.24,4.27-9.77,1.21-6.64-.75-12.61-4.99-17.68Z"/>
                <path class="cls-17" d="M312.9,168.83c-2.88.33-5.29,1.2-6.41,4.17-.25.65-.55,1.29-.86,1.92-1.9,3.85-1.76,7.84-.47,11.77.56,1.73,1.55,3.44,2.95,4.63,2.16,1.83,4.73,2.57,7.62,1.94,1.24-.27,2.3-.83,3.33-1.51.86-.59,1.84-1,2.44-1.96.88-1.43,1.63-2.9,2.12-4.51,1.05-3.46.37-6.79-.9-10.01-1.33-3.35-6.35-6.83-9.81-6.44Z"/>
              </g>
              <path class="cls-19" d="M158.39,179.44c-6.45,7.43-22.46,1.3-26.25,10.37-2.79,6.68,5.12,14.51,2,21.04-3.85,8.07-19.77,4.6-21.82,13.31-1.04,4.41,2.82,8.82,2,13.28-.82,4.47-5.68,6.7-9.25,9.5-11.2,8.79-10.93,25.94-6.74,39.55,3.94,12.78,11.33,25.65,23.71,30.7,1.79.73,3.8,1.28,5.63.66,4.73-1.61,3.88-8.79.86-12.78-3.02-3.99-7.48-7.72-7.24-12.72.2-4.1,3.76-7.37,7.63-8.74,3.87-1.36,8.07-1.27,12.17-1.52,2.5-.15,5.06-.46,7.25-1.67,5.24-2.9,6.6-10.02,5.32-15.87s-4.51-11.08-6.32-16.79c-1.37-4.29-1.68-9.58,1.54-12.73,4.02-3.93,11.19-2.35,15.54-5.91,4.38-3.58,3.74-10.64.95-15.55-2.79-4.91-7.21-8.77-9.85-13.77-2.64-5,2.87-20.37,2.87-20.37Z"/>
              <path class="cls-19" d="M81.47,207c-4.93,3.29-11.56,1.84-17.04-.4-4.57-1.87-9.19-4.24-14.02-4.65-2.03-.17-3.94,1.05-4.69,2.94-1.21,3.01-1.45,6.6-3.38,9.25-2.84,3.92-8.39,4.63-13.21,4.17s-9.74-1.73-14.41-.46c-7.03,1.9-11.4,9.03-13.28,16.07-3.16,11.85-1.05,25,5.65,35.26,2.09.16,3-2.59,3.04-4.69.11-4.8-.53-9.62.04-14.39.57-4.77,2.64-9.69,6.77-12.13,3.85-2.28,8.74-1.95,13.03-.69,4.75,1.4,9.15,3.83,13.99,4.9,1.08.24,2.22.26,3.25-.12,5.75-2.06,1.73-10.78,5.08-15.4,1.89-2.6,5.59-3.07,8.77-2.64,3.18.43,6.32,1.54,9.51,1.22,6.74-.67,10.88-18.25,10.88-18.25Z"/>
              <path class="cls-19" d="M83.59,75.82c-.24-6.67-4.88-12.96-11.18-15.15-3.56-1.24-7.73-1.37-10.46-3.97-4-3.81-2.61-10.3-3.08-15.8-.77-9-8.05-17.04-16.92-18.7-3.24-.61-6.6-.44-9.84-1.1-3.83-.78-7.28-2.67-10.52-4.91-1.94-1.34-4.54.29-4.2,2.62l1.95,13.42c.35,2.38.73,4.87,2.14,6.82,2.3,3.18,6.65,4.08,10.58,4.02,2.39-.03,4.88-.31,7.07.64,4.4,1.91,5.47,7.66,5.16,12.45-.31,4.79-1.28,9.96,1.14,14.1,3.34,5.71,11.3,6.4,17.85,5.45,6.54-.95,13.54-2.82,19.51.03"/>
              <g class="cls-4">
                <path class="cls-19" d="M155.52,199.81c2.64,5,7.06,8.86,9.85,13.77,2.79,4.91,3.43,11.98-.95,15.55-4.35,3.56-11.53,1.98-15.54,5.91-3.22,3.15-2.91,8.44-1.54,12.73,1.81,5.71,5.05,10.94,6.32,16.79s-.09,12.98-5.32,15.87c-2.19,1.21-4.75,1.52-7.25,1.67-4.1.25-8.3.16-12.17,1.52-3.87,1.36-7.42,4.64-7.63,8.74-.25,4.99,4.22,8.73,7.24,12.72,2.67,3.53,3.65,9.56.55,12.02,0,0-25.72-11.26-15.33-28.37,10.4-17.11,23.62-7.5,25.68-24.61,2.06-17.11-12.47-25.55,1.36-36.8,13.83-11.25,15.7-2.05,17.58-11.41,1.87-9.36-2.85-16.1-2.85-16.1Z"/>
              </g>
              <g class="cls-4">
                <path class="cls-19" d="M81.47,207s-4.14,17.58-10.88,18.25c-3.19.32-6.34-.79-9.51-1.22-3.18-.43-6.88.04-8.77,2.64-3.35,4.61.67,13.34-5.08,15.4-1.04.37-2.18.35-3.25.12-4.85-1.07-9.25-3.51-13.99-4.9-4.29-1.26-9.17-1.59-13.03.69-4.13,2.44-6.2,7.37-6.77,12.13-.57,4.77.07,9.59-.04,14.39-.05,2.1-.95,4.85-3.04,4.69,0,0-12.79-28.35,3.62-36.39,16.41-8.04,23.71,1.65,30.02-1.55s5.37-12.35,14.51-13.28c9.14-.94,9.63,3.38,16.64.23,7.01-3.14,9.58-11.18,9.58-11.18Z"/>
              </g>
              <g class="cls-2">
                <path class="cls-19" d="M78.76,74.49c1.38.23,2.74.63,4.04,1.25"/>
              </g>
              <g class="cls-4">
                <path class="cls-19" d="M78.76,74.49c-4.96-.83-10.36.47-15.47,1.22-6.54.95-14.5.26-17.85-5.45-2.43-4.14-1.45-9.31-1.14-14.1.31-4.79-.76-10.54-5.16-12.45-2.19-.95-4.68-.68-7.07-.64-3.93.06-8.28-.84-10.58-4.02-.86-1.19-1.34-2.59-1.66-4.04,0,0,2.14,4.95,10.82,3.47,8.67-1.47,21.09-4.89,22.97,5.84,1.87,10.73-7.97,17.53,2.58,21.51,10.55,3.98,22.58,8.65,22.58,8.65Z"/>
              </g>
            </g>
            <g>
              <path class="cls-20" d="M458.62,129.14c-3.27,4.46-6.78,8.72-10.82,12.53-2.94,2.77-5.84,5.57-8.83,8.28-3.25,2.94-6.5,5.89-9.91,8.64-3.4,2.74-6.91,5.37-10.55,7.79-2.76,1.84-5.47,3.77-8.33,5.46-1.66.98-3.36,1.87-4.98,2.93-2.05,1.33-4.15,2.57-6.24,3.86-.07.05-.14.11-.22.14-2.48.94-4.48,2.76-6.91,3.79-1.29.55-2.58,1.09-3.66,2.06-.51.45-1.23.67-1.87.96-2.08.96-4.17,1.88-6.24,2.85-1.66.78-3.42,1.37-4.84,2.63-.44.39-1.08.57-1.65.82-7.86,3.53-15.72,7.07-23.59,10.6-.88.39-1.75.78-2.73.94-.76.12-1.5.46-2.23.77-2.42,1.05-4.82,2.14-7.24,3.2-1.36.6-2.68,1.35-4.22,1.44-.17.01-.35.07-.5.16-2.71,1.52-5.74,2.18-8.63,3.16-2.22.75-4.4,1.68-6.75,2.12-1.54.29-2.89,1.3-4.52,1.35-4.04,1.72-8.37,2.52-12.57,3.72-4.1,1.18-8.37,1.82-12.58,2.59-2.41.44-4.85.7-7.28,1.01-1.99.26-3.98.52-5.98.72-4.7.48-9.4.99-14.13,1.16-3.25.12-6.49.33-9.74.07-1.84-.15-3.67-.33-5.51-.46-.87-.06-1.76-.17-2.61.16,1.45,2.92,3.37,5.55,5.2,8.22,3.77,5.49,7.76,10.84,12.11,15.9,4.65,5.41,9.65,10.45,15.16,14.96,6.88,5.64,14.26,10.52,22.22,14.54,3.46,1.74,6.98,3.33,10.59,4.69,3.53,1.33,7.11,2.52,10.75,3.55,7.89,2.23,15.9,3.7,24.08,4.21,3.68.23,7.37.3,11.05.45.26-.05.52-.14.78-.14,7.6-.15,14.94-1.88,22.24-3.79,4.07-1.06,8.06-2.41,12.09-3.6,2.79-.82,5.37-2.17,8.22-2.81,1.01-.23,1.97-.76,2.89-1.27,3.22-1.78,6.47-3.53,9.61-5.45,7.63-4.67,15.2-9.43,21.97-15.35,1.12-.98,2.33-1.87,3.27-3.03.63-.78,1.42-1.29,2.37-1.59-.08-.34-.21-.69.05-1,.39-.48.77-.97,1.19-1.41,2.65-2.83,5.01-5.89,7.31-9,5.45-7.4,9.85-15.4,13.45-23.83,2.24-5.26,4.1-10.66,5.52-16.22,1.93-7.53,3.17-15.14,3.68-22.88.69-10.41-.21-20.72-2.04-30.97-.9-5.02-2.05-9.97-3.31-14.91-.63-2.46-1.4-4.89-2.1-7.33-.98.75-1.78,1.63-2.52,2.63Z"/>
              <path class="cls-22" d="M461.14,126.5c-.98.75-1.78,1.63-2.52,2.63-3.27,4.46-6.78,8.72-10.82,12.53-2.94,2.77-5.84,5.57-8.83,8.28-3.25,2.94-6.5,5.89-9.91,8.64-3.4,2.74-6.91,5.37-10.55,7.79-2.76,1.84-5.47,3.77-8.33,5.46-1.66.98-3.36,1.87-4.98,2.93-2.05,1.33-4.15,2.57-6.24,3.86-.07.05-.14.11-.22.14-2.48.94-4.48,2.76-6.91,3.79-1.29.55-2.58,1.09-3.66,2.06-.51.45-1.23.67-1.87.96-2.08.96-4.17,1.88-6.24,2.85-1.66.78-3.42,1.37-4.84,2.63-.44.39-1.08.57-1.65.82-7.86,3.53-15.72,7.07-23.59,10.6-.88.39-1.75.78-2.73.94-.76.12-1.5.46-2.23.77-2.42,1.05-4.82,2.14-7.24,3.2-1.36.6-2.68,1.35-4.22,1.44-.17.01-.35.07-.5.16-2.71,1.52-5.74,2.18-8.63,3.16-2.22.75-4.4,1.68-6.75,2.12-1.54.29-2.89,1.3-4.52,1.35-4.04,1.72-8.37,2.52-12.57,3.72-4.1,1.18-8.37,1.82-12.58,2.59-2.41.44-4.85.7-7.28,1.01-1.99.26-3.98.52-5.98.72-4.7.48-9.4.99-14.13,1.16-3.25.12-6.49.33-9.74.07-1.84-.15-3.67-.33-5.51-.46-.87-.06-1.76-.17-2.61.16-1.36-.33-2.71-.74-4.09-.98-2.19-.39-4.26-1.12-6.25-2.05-2.56-1.19-4.9-2.76-6.74-4.95-1.32-1.57-2.12-3.39-1.09-5.34,1.12-2.11,2.64-3.87,5.33-4.13,6.55-.63,13.1-1.16,19.68-1.53,6.83-.38,13.63-1.16,20.35-2.54,5.32-1.09,10.65-2.1,15.95-3.27,3.42-.75,6.78-1.74,10.18-2.58,3.39-.85,6.81-1.63,10.2-2.49,2.54-.65,5.06-1.38,7.6-2.07,1.01-.28,2.03-.53,3.05-.8,5.1-1.37,9.94-3.39,14.83-5.36,3-1.21,5.98-2.56,9.07-3.52,2.45-.76,4.72-1.93,7.15-2.63,2.21-.64,4.3-1.52,6.38-2.45.96-.43,1.9-.88,2.74-1.55.67-.54,1.53-.85,2.32-1.24,1.73-.85,3.52-1.56,5.08-2.76.95-.73,2.2-1.09,3.3-1.63,1.58-.76,3.25-1.33,4.62-2.51.45-.39,1.09-.57,1.65-.82,1.6-.74,3.22-1.42,4.8-2.21,2.51-1.25,4.9-2.7,7.24-4.24,3.14-2.07,6.32-4.09,9.45-6.17,3.79-2.51,7.62-4.97,11.29-7.66,2.12-1.55,4.38-2.89,6.52-4.41,2.43-1.72,4.81-3.51,7.18-5.31,3.21-2.44,6.41-4.89,9.57-7.38,4.21-3.32,8.16-6.93,11.93-10.74,4.7-4.74,9.56-9.3,14.42-13.87,1.68-1.58,3.56-1.75,5.59-1.49.95.12,1.87.51,2.66,1.1.64.48,1.08,1.03,1.28,1.9,1.08,4.65.43,9.04-1.74,13.25-1.08,2.1-2.11,4.24-3.16,6.36Z"/>
              <path class="cls-22" d="M353.96,291.08c.26-.05.52-.14.78-.14,7.6-.15,14.94-1.88,22.24-3.79,4.07-1.07,8.06-2.41,12.09-3.6,2.79-.82,5.37-2.16,8.22-2.81,1.01-.23,1.97-.76,2.89-1.27,3.22-1.78,6.47-3.53,9.61-5.45,7.63-4.67,15.2-9.43,21.97-15.35,1.12-.98,2.33-1.86,3.27-3.03.63-.78,1.42-1.29,2.37-1.59.76.22,1.12.78,1.34,1.49.57,1.85,1.16,3.68,1.71,5.54.5,1.68.03,3.09-1.24,4.29-2.56,2.41-5.27,4.64-8.15,6.64-5.78,4.01-11.85,7.55-18.07,10.82-1.63.86-3.35,1.55-5.03,2.3-4.81,2.17-9.58,4.4-14.43,6.47-4.44,1.9-9.02,3.44-13.65,4.83-4.29,1.29-8.59,2.52-13.01,3.27-1.9.32-3.83.5-5.74.73-1.74.21-3.07-.44-4-1.95-1.06-1.72-2.14-3.43-3.22-5.13-.5-.79-.03-1.53.07-2.29Z"/>
              <g>
                <path class="cls-22" d="M405.7,209.29c-1.4,2.56-2.21,5.36-3.22,8.07-.49,1.3-.41,2.76-.68,4.14-.95,4.77-3.4,8.61-6.86,11.9-.57.54-1.13,1.11-1.74,1.61-.75.63-1.64,1.03-2.6,1.23-.74.16-1.4-.37-1.49-1.13,0-.09-.02-.18-.02-.26.55-7.45,2.76-14.13,8.76-19.06.68-.55,1.35-1.15,2.12-1.54.86-.44,1.32-1.11,1.62-1.97.49-1.4,1.14-2.74,1.52-4.23-1.44.19-1.44.2-1.94.55-2.69,1.89-5.65,3.14-8.82,3.99-1.77.47-3.52,1.05-5.27,1.6-.61.19-1.21.25-1.82.09-.42-.11-.54-.46-.42-.81.11-.32.33-.62.53-.89,1.16-1.57,2.62-2.84,4.14-4.04,1.92-1.52,3.84-3.09,5.95-4.31,2.5-1.44,5.07-2.91,8.07-3.01,1.46-.05,2.18-.71,2.68-2.03,1.03-2.73,1.52-5.59,2.15-8.41.3-1.35.89-2.67.65-4.17-.24.07-.54.06-.7.21-2.12,1.98-4.53,3.6-6.94,5.18-1.76,1.16-3.72,2.07-5.77,2.57-1.38.34-2.67.84-3.97,1.37-.65.26-1.29.57-1.96.76-.49.14-1.12.25-1.49-.18-.47-.55.11-.98.42-1.34,2.19-2.52,4.58-4.85,7.27-6.85,2.53-1.88,5.16-3.63,8.08-4.89,2.26-.98,4.49-2.04,6.75-3.02,1.19-.52,1.51-.41,2.05.81,1.03,2.32,2.44,4.5,2.73,7.1,1.43,3.24,1.87,6.75,2.66,10.15.48,2.04.52,4.17.74,6.27.03.26,0,.53-.07.79-.08.34-.22.67-.58.83-.37.17-.72.03-.97-.2-.51-.48-1.11-.95-1.4-1.56-1.18-2.45-3.02-4.55-3.88-7.16-.19-.58-.4-1.16-.49-1.76-.12-.8-.42-1.52-.79-2.22-.06-.11-.29-.21-.4-.17-.13.04-.29.21-.32.35-.11.42-.13.87-.24,1.29-.41,1.52-.8,3.06-1.29,4.56-.35,1.06-.17,1.9.72,2.57,1.51,1.13,1.98,2.73,2.44,4.5,1.23,4.78.98,9.58.69,14.41-.02.26-.08.52-.15.77-.14.45-.92.71-1.34.42-.28-.19-.6-.43-.73-.72-.75-1.68-1.63-3.29-2.1-5.11-.61-2.37-1.48-4.67-2.24-6.99.03-.11.06-.21.09-.32-.05.1-.09.2-.14.3Z"/>
                <path class="cls-22" d="M370.28,237.36c-.23-.71-.74-1.14-1.38-1.51-4.12-2.4-7.17-5.84-9.6-9.89-.36-.6-.87-1.1-1.24-1.69-.38-.61-.61-1.3-.11-1.97.54-.71,1.23-.49,1.91-.24,4.28,1.54,7.98,3.95,11.34,7.02,2.25,2.05,3.69,4.65,5.38,7.08,1,1.44.73,3.28-.56,4.59-.98.99-2.05,1.92-3.35,2.51-1.92.87-3.84,1.74-5.78,2.59-.48.21-.98.4-1.49.5-3.36.64-6.76.96-10.17,1.2-.33.02-.7-.06-1.01-.2-.71-.32-.79-1.52-.08-2.01,2.08-1.45,4.13-2.99,6.74-3.41.51-.08,1.06-.2,1.5-.46,1.38-.83,3.03-.8,4.46-1.44-.15-.37-.4-.42-.66-.43-4.14-.15-8.19-.91-12.23-1.8-.56-.12-1.05-.17-1.35.43-1.1,2.22-3.18,2.85-5.35,3.4-3.96.99-7.85.28-11.73-.48-.94-.19-1.87-.45-2.79-.74-.55-.17-.85-.6-.79-1.21.05-.47.3-.84.78-.94,3.93-.84,7.81-2.01,11.89-1.96.26,0,.52-.05.77-.11.06-.01.15-.12.15-.19,0-.16,0-.42-.09-.46-2.71-1.24-5.44-2.44-8.38-3.09-5.19.08-9.42-2.32-13.56-5.11-1.84-1.24-3.31-2.87-5.03-4.23-.7-.55-1.4-1.31-.99-2.23.39-.88,1.35-.98,2.28-.86,1.48.18,2.97.29,4.45.47,2.04.24,3.91.95,5.62,2.09,2.87,1.91,5.49,4.08,7.37,7.03.3.46.62.86,1.13,1.05,2.72,1.02,5.44,2.03,8.16,3.03.15.06.34.03.51.01.08,0,.22-.06.23-.11.04-.15.09-.39.02-.47-.24-.24-.53-.44-.81-.63-2.72-1.84-5.13-4.02-6.8-6.86-1.02-1.73-1.73-3.65-2.55-5.5-.23-.51-.07-1.03.14-1.53.2-.46.51-.72,1.02-.54.33.12.62.33.93.49,4.93,2.61,9.43,5.76,12.98,10.15.85,1.06,1.32,2.27,1.87,3.46,1.67,3.66,1.65,3.72,5.77,4.32,3.04.44,6.1.73,9.15,1.05.42.04.86-.09,1.29-.13.15.07.29.17.45.19.21.03.32-.1.27-.31-.01-.04-.16-.08-.23-.07-.16.03-.32.09-.48.14Z"/>
                <path class="cls-22" d="M303.12,231.04c-.77.34-1.17,1.05-1.58,1.72-.9,1.5-1.72,3.06-2.67,4.53-.51.78-.56,1.5,0,2.18,1.87,2.3,1.84,5.04,1.67,7.73-.2,3.18-1.11,6.22-2.41,9.12-.14.31-.35.6-.57.87-.25.31-.95.23-1.16-.11-.42-.68-.68-1.41-.84-2.2-.63-3-1.4-5.98-1.09-9.1.03-.26-.13-.53-.43-.56-.14-.01-.34.12-.43.24-1.5,2.15-3.12,4.19-3.98,6.77-.88,2.61-2.8,4.65-4.73,6.58-.98.98-2.18,1.76-3.29,2.6-.28.21-.6.36-.92.51-.49.24-1.01.33-1.51.02-.56-.35-.43-.92-.38-1.42.04-.43.15-.87.3-1.28,1.41-3.86,3.54-7.22,6.84-9.78.86-.66,1.8-1.11,2.77-1.49,1.2-.48,2.14-1.21,2.71-2.36.46-.93,1.42-1.55,1.64-2.45-.08-.41-.22-.5-.43-.4-1.46.7-3.03.84-4.61.93-2.63.14-5.26.22-7.89.05-.52-.03-1.04-.17-1.53-.32-.61-.19-.73-.77-.28-1.21.69-.68,1.43-1.27,2.35-1.66,1.78-.76,3.55-1.54,5.29-2.4,1.68-.83,3.47-1.18,5.3-1.46,1.51-.24,2.95-.15,4.39.44.96.4,1.19.29,1.76-.57,1.16-1.76,2.27-3.55,3.38-5.34.08-.12.08-.36.01-.48-.05-.1-.29-.21-.4-.17-2.59.82-5.23,1.4-7.93,1.76-2.18.29-4.37.35-6.56.35-.99,0-1.92-.22-2.78-.71-.48-.27-.64-.97-.26-1.35.37-.36.79-.69,1.22-.98,1.6-1.07,3.2-2.12,4.82-3.15.37-.23.79-.4,1.21-.51,3.62-1.01,7.21-2.14,10.95-2.65,1.21-.17,2.44-.21,3.67-.27,1.6-.07,2.58.81,3.33,2.14,1.3,2.3,1.63,4.81,1.61,7.37-.01,2.28-.11,4.57-.3,6.85-.14,1.75-.56,3.46-1.18,5.11-.15.4-.38.79-.63,1.14-.31.45-1.08.41-1.33-.09-.67-1.33-1.29-2.67-1.65-4.14-.76-3.08-1.16-6.19-1.24-9.36,0-.34-.12-.69-.18-1.03.03-.11.05-.21.08-.31-.04.1-.08.2-.13.3Z"/>
                <path class="cls-22" d="M465.53,183.27c.04.98-.4,1.73-.91,2.44-3.06,4.3-6.3,8.46-10.1,12.14-3.21,3.12-6.36,6.31-9.64,9.35-3.6,3.34-7.49,6.34-11.4,9.31-1.88,1.43-3.67,2.98-5.55,4.42-1.81,1.38-3.64,2.73-5.52,4.01-4.11,2.82-8.17,5.72-12.42,8.33-1.93,1.19-3.9,2.35-5.87,3.48-2.27,1.29-4.7,2.35-6.79,3.97-.55.42-1.22.69-1.86.98-7.62,3.43-15.25,6.86-22.88,10.28-.8.36-1.59.75-2.5.8-.26.01-.55.04-.77.16-2.35,1.24-4.98,1.68-7.43,2.65-1.78.71-3.65,1.23-5.5,1.74-3.88,1.06-7.76,2.14-11.67,3.07-4.17.99-8.37,1.89-12.58,2.71-3.95.77-7.94,1.37-11.91,2.08-4.42.79-8.89,1.05-13.34,1.47-2.71.25-5.43.38-8.14.53-4.75.26-9.48-.03-14.18-.74-.67-.1-1.39-.14-1.98-.58-.06-.04-.09-.15-.09-.23,0-.08.05-.21.11-.23.24-.07.5-.16.75-.16,1.32-.03,2.64-.12,3.95-.03,7.94.53,15.79-.46,23.65-1.27,5.76-.6,11.45-1.57,17.11-2.84,3.24-.73,6.55-1.19,9.8-1.89,2.48-.53,4.92-1.23,7.37-1.87,2.45-.64,4.9-1.3,7.35-1.96,2.28-.61,4.59-1.11,6.77-2.05.64-.28,1.31-.55,2-.64.99-.14,1.85-.56,2.74-.93,1.05-.44,2.06-1.02,3.24-1.05.17,0,.36-.04.51-.12,2.59-1.34,5.51-1.73,8.15-2.98,4.61-2.19,9.3-4.2,13.95-6.31,1.52-.69,3.08-1.28,4.37-2.41.51-.45,1.24-.65,1.87-.96.79-.38,1.61-.7,2.25-1.34.24-.24.54-.48.86-.59,2.51-.89,4.52-2.69,6.93-3.76,1.28-.57,2.36-1.5,3.55-2.23,3.28-2,6.38-4.29,9.63-6.35,4.89-3.11,9.27-6.89,13.94-10.28,5.06-3.67,9.65-7.85,14.27-12.03,3.71-3.35,7.35-6.77,10.79-10.41,2-2.12,3.71-4.46,5.61-6.65.39-.45.69-1.04,1.5-.99Z"/>
                <path class="cls-22" d="M389.78,259.88c-1.12.5-2.24,1.02-3.37,1.51-2.97,1.3-6.1,2.2-9.12,3.39-3.81,1.5-7.81,2.57-11.78,3.61-4.48,1.17-9.01,2.21-13.55,3.13-8.25,1.67-16.59,2.79-24.95,3.77-6.28.74-12.58,1.09-18.89,1.3-1.75.06-3.51-.13-5.27-.22-.26-.01-.6-.05-.6-.39,0-.46.39-.46.73-.5,1.57-.16,3.14-.39,4.72-.47,3.25-.17,6.46-.52,9.68-.98,3.12-.44,6.25-.88,9.38-1.28,6.7-.86,13.32-2.15,19.96-3.34,5.43-.98,10.79-2.25,16.1-3.74,2.7-.76,5.37-1.58,8.04-2.42,4.36-1.36,8.66-2.81,12.85-4.64,1.75-.77,3.72-1.02,5.43-1.97,2.99-1.67,6.08-3.14,9.09-4.75,3.08-1.65,6.11-3.41,9.12-5.2,2.4-1.42,4.63-3.14,7.01-4.61,3.51-2.16,6.75-4.7,10.07-7.13,3.18-2.33,6.23-4.84,9.29-7.32,4.29-3.48,8.59-6.95,12.67-10.67,3.83-3.49,7.69-6.94,11.52-10.42.46-.41.84-.92,1.46-1.08.12-.03.3.07.42.14.05.03.08.19.05.24-.29.44-.56.89-.89,1.29-4.88,5.77-10.37,10.94-15.92,16.06-6.06,5.6-12.45,10.8-18.99,15.81-3.4,2.6-6.83,5.17-10.53,7.38-2.47,1.48-4.69,3.4-7.22,4.75-2.4,1.28-4.55,2.99-7.13,3.95-1.14.43-2.17,1.11-3.2,1.79-1.45.96-3.14,1.57-4.72,2.33-.48.23-.96.43-1.44.65,0,0,0,0,0,0Z"/>
                <path class="cls-22" d="M444.16,177.56c-.23-.81-.88-1.28-1.46-1.82-2.6-2.42-4.73-5.17-6.05-8.5-.1-.25-.2-.49-.3-.73-.13-.35-.14-.7.15-.97.27-.26.63-.35.97-.22.49.18.97.4,1.43.65,3.05,1.66,5.56,3.94,7.66,6.7.96,1.26,1.94,2.52,2.43,4.04.52,1.62,1.65,2.15,3.23,2.13,1.31-.02,2.62.04,3.93.03.11,0,.24-.21.33-.34.03-.05-.02-.16-.06-.23-.04-.08-.09-.16-.15-.2-2.38-1.48-3.99-3.63-5.36-6.02-.39-.68-.93-1.27-1.34-1.94-.22-.37-.36-.8-.46-1.23-.19-.8.46-1.42,1.23-1.16.58.2,1.22.37,1.67.75,1.82,1.51,3.88,2.69,5.58,4.38,1.02,1.01,1.76,2.19,2.55,3.32.57.81.63,1.97.87,2.99.05.22-.12.5-.22.73-1.32,3.07-3.41,5.46-6.11,7.41-1.72,1.25-3.58,2.21-5.51,3.04-.32.14-.65.27-.98.4-.36.14-.71.09-.95-.2-.24-.28-.35-.66-.16-.98.53-.9,1-1.83,1.75-2.61,1.46-1.52,2.95-3,4.55-4.37.33-.28.58-.64,1.03-1.14-1.35-.39-2.55-.29-3.73-.31-.65-.01-1.14.36-1.6.8-4.05,3.88-9.01,4.81-14.37,4.41-.51-.04-1.03-.23-1.5-.45-.66-.3-.9-1.28-.41-1.8.77-.84,1.6-1.62,2.68-2.08,1.45-.62,2.88-1.31,4.31-1.98.13-.06.24-.25.29-.4.11-.34-.15-.49-.4-.55-1.2-.3-2.34-.75-3.37-1.46-.68-.46-1.5-.46-2.28-.57-4.21-.59-7.51-2.78-10.32-5.85-.49-.53-.88-1.09-1.06-1.79-.22-.85.31-1.66,1.19-1.66,1.77,0,3.53.22,5.1,1.09,2.54,1.42,5,3.01,7,5.11,2.28,2.39,5.11,3.26,8.23,3.57.05.04.09.1.15.13.03.02.09-.01.14-.02-.1-.03-.19-.06-.29-.09Z"/>
                <path class="cls-22" d="M314.14,254.29c-1.33-3.07.12-5.53,3.26-6.16,1.35-.27,2.57-.29,3.77.43,1.47.89,2.16,2.3,1.88,4-.59,3.55-3.72,4.91-6.38,3.85-1.19-.47-2.28-.95-2.52-2.13Z"/>
                <path class="cls-22" d="M366.4,204.35c.68-.28,1.3-.63,2.04-.57,1.66.12,2.85,1.01,3.43,2.48,1.21,3.06.05,6.11-3.45,6.99-1.6.4-2.95-.5-3.87-1.75-1.24-1.7-1.15-3.64-.44-5.54.38-1.01,1.49-1.16,2.28-1.6Z"/>
                <path class="cls-22" d="M430.13,201.73c-1-2.5-.12-4.78,2.08-6.45.19-.14.49-.18.74-.2,2.21-.19,4.39,1.74,4.17,4.03-.1,1.08-.43,2.07-.93,2.99-.66,1.21-1.56,2.1-3.14,1.93-1.32-.14-2.3-.86-2.92-2.3Z"/>
                <path class="cls-22" d="M263.28,233.31c1.9-.87,3.4-.64,4.54.69.99,1.16,1.09,2.87.23,4.14-.2.29-.45.54-.64.84-1.49,2.37-5.17,1.49-6.26-.89-.72-1.57.34-3.96,2.13-4.78Z"/>
                <path class="cls-22" d="M331.78,278.53c.17,0,.47-.06.66.06.45.27.86.6,1.26.94,2.67,2.28,5.5,4.3,8.63,5.9.92.47,1.74,1.16,2.57,1.79.35.26.14.85-.3,1.05-.41.18-.83.29-1.27.13-3.91-1.37-7.59-3.1-10.47-6.21-.74-.8-1.2-1.7-1.52-2.71-.11-.36.03-.68.44-.94Z"/>
                <path class="cls-22" d="M456.61,151.06c.79,1.71.07,2.99-.94,4.16-.84.98-2.13,1.25-3.34.78-1.16-.45-2.37-2.06-2.31-3.26.07-1.37.68-2.51,1.75-3.39.13-.11.31-.18.47-.21,1.35-.27,3.89.25,4.37,1.92Z"/>
                <path class="cls-22" d="M443.89,229.89c.03.15.12.49.18.83.64,3.43.26,6.78-.95,10.04-.4,1.07-.8,2.13-1.24,3.18-.13.31-.35.61-.61.81-.17.13-.51.18-.72.1-.2-.08-.47-.38-.45-.55.11-1.03.26-2.07.46-3.09.67-3.42,1.4-6.84,1.19-10.36-.02-.26,0-.53.02-.79.06-.54.16-1.11.81-1.18.58-.06.97.33,1.3,1.01Z"/>
                <path class="cls-22" d="M345.61,280.34c-.07-.25-.19-.51-.19-.76.02-.84-.67-2.03.23-2.43,1.07-.49,1.5.76,2.06,1.51,1.36,1.82,2.78,3.57,4.84,4.69,1.07.58,2.09,1.27,3.11,1.94.36.24.71.52.99.84.25.28.21.66.03.98-.19.32-.51.55-.87.43-.91-.29-1.82-.62-2.71-.97-2.93-1.13-5.3-2.96-7.05-5.59-.14-.22-.29-.43-.45-.65Z"/>
                <path class="cls-22" d="M434.26,240.63c1.09,2.42,1.23,4.9.48,7.44-.39,1.35-.75,2.7-1.17,4.04-.19.59-.48,1.18-1.24,1.17-.57,0-.98-.78-.85-1.69.14-1.04.34-2.08.53-3.12.44-2.27.54-4.53-.06-6.79-.18-.68-.24-1.38-.37-2.07-.07-.39.04-.71.37-.9.42-.25.87-.16,1.23.13.26.21.47.52.64.82.18.3.3.64.44.96Z"/>
                <path class="cls-22" d="M395.98,270.14c.57,1.28,1.17,2.54,1.71,3.84.38.91.21,1.33-.57,1.71-.93.46-1.66.38-2.11-.27-.2-.28-.35-.6-.5-.92-.76-1.67-1.48-3.37-2.29-5.02-.55-1.13-.49-2.39-.95-3.53-.18-.45.04-.85.46-1.1.49-.28.99-.33,1.49-.02.48.29.7.77.92,1.25.62,1.35,1.22,2.71,1.83,4.07,0,0,0,0,0,0Z"/>
                <path class="cls-22" d="M358,275.04c.28-.21.54-.15.75,0,.35.26.69.54.99.85.95,1.02,1.89,2.06,2.83,3.1,1.06,1.17,2.21,2.22,3.57,3.06.96.59,1.92,1.24,2.57,2.2.24.36.37.81-.03,1.19-.28.26-.66.36-.97.2-2.98-1.49-5.91-3.03-7.91-5.85-.81-1.14-1.75-2.19-2.1-3.59-.11-.43-.04-.86.32-1.16Z"/>
                <path class="cls-22" d="M423.72,247.29c.39,1.61.89,3.2,1.14,4.83.44,2.84-.16,5.57-1.19,8.21-.09.23-.26.48-.47.62-.2.14-.5.24-.72.18-.21-.05-.49-.3-.52-.5-.09-.51-.14-1.06-.05-1.56.58-3.23.43-6.45.04-9.68-.1-.86-.16-1.74-.18-2.61,0-.2.24-.45.42-.6.24-.19.5-.04.72.11.37.25.69.54.8,1Z"/>
                <path class="cls-22" d="M414.69,254.96c1.19,3.49,1.83,6.89.95,10.43-.06.25-.15.52-.3.72-.33.45-.8.71-1.36.61-.49-.09-.68-.54-.75-.97-.07-.43-.11-.88-.06-1.31.28-2.74-.12-5.41-.7-8.07-.17-.76-.21-1.56-.22-2.35,0-.32.19-.67.6-.78.38-.1.74.01.95.28.37.48.65,1.03.91,1.44Z"/>
                <path class="cls-22" d="M369.81,272.59c.19,0,.4-.05.51.03.36.25.75.5.99.84,2.03,2.88,4.38,5.45,7.18,7.6.42.32.84.71.57,1.32-.22.5-.98.78-1.59.63-.25-.06-.51-.14-.74-.26-2.76-1.49-5.04-3.46-6.33-6.4-.39-.88-.77-1.76-1.07-2.68-.14-.42.02-.86.48-1.08Z"/>
                <path class="cls-22" d="M448.53,235.04c-.08-.02-.2,0-.24-.06-.11-.12-.26-.28-.25-.41.04-.34.11-.7.25-1.01,1.6-3.64,2.4-7.49,3-11.4.08-.51.06-1.04.41-1.49.32-.42,1.07-.4,1.35.05.54.87.5,1.87.48,2.81-.09,4.31-2.05,7.89-4.57,11.23-.1.13-.28.19-.43.28Z"/>
                <path class="cls-22" d="M319,280.22c.33-.17.65-.18.98.03,1.11.7,2.25,1.35,3.33,2.09,1.81,1.23,3.81,2.11,5.76,3.08,1,.5,2.15.68,3.22,1.04.12.04.28.31.25.41-.08.22-.26.4-.43.58-.05.05-.17.07-.25.06-3.82-.56-7.59-1.28-10.83-3.56-1-.7-1.9-1.55-2.29-2.78-.11-.36-.04-.68.26-.94Z"/>
                <path class="cls-22" d="M381.52,272.61c-.28-.62-.56-1.17-.77-1.74-.11-.31-.13-.68-.1-1.02.05-.76.94-1.13,1.57-.69.59.41,1.02.95,1.29,1.61.98,2.44,2.45,4.59,4,6.69.15.2.33.46.33.69,0,.33-.08.7-.27.96-.21.3-.61.33-.95.15-.94-.49-1.87-1.12-2.36-2.02-.87-1.61-2.29-2.88-2.75-4.65Z"/>
                <path class="cls-22" d="M404.71,262.57c1,1.79,1.49,3.46,1.76,5.2.12.79.2,1.58-.15,2.32-.15.32-.45.57-.83.52-.23-.03-.5-.17-.64-.34-.21-.27-.42-.6-.46-.93-.15-1.32-.78-2.51-1.04-3.77-.27-1.31-.73-2.51-1.22-3.73-.16-.4-.29-.83-.32-1.26-.03-.45.18-.86.63-1.05.48-.19.88-.02,1.09.42.46.94.87,1.91,1.18,2.61Z"/>
                <path class="cls-22" d="M405.7,209.29c.05-.1.09-.2.14-.3-.03.11-.06.21-.09.32l-.05-.02Z"/>
                <path class="cls-22" d="M370.28,237.36c.16-.05.31-.11.48-.14.07-.01.22.02.23.07.05.21-.06.34-.27.31-.16-.02-.3-.13-.45-.19v-.05Z"/>
                <path class="cls-22" d="M303.12,231.04c.04-.1.08-.2.13-.3-.03.1-.06.21-.08.31l-.04-.02Z"/>
                <path class="cls-22" d="M444.16,177.56c.1.03.19.06.29.09-.05,0-.1.04-.14.02-.06-.03-.1-.08-.15-.13h0Z"/>
              </g>
              <g class="cls-3">
                <path class="cls-20" d="M458.62,129.14c-3.27,4.46-6.78,8.72-10.82,12.53-2.94,2.77-5.84,5.57-8.83,8.28-1.33,1.21-2.67,2.41-4.01,3.61.66,2.85,1.26,5.7,1.78,8.58,1.83,10.25,2.73,20.56,2.04,30.97-.51,7.74-1.75,15.36-3.68,22.88-1.43,5.56-3.28,10.96-5.52,16.22-3.6,8.43-8,16.43-13.45,23.83-2.29,3.12-4.66,6.18-7.31,9-.42.45-.8.93-1.19,1.41-.25.31-.12.66-.05,1-.95.29-1.74.81-2.37,1.59-.95,1.16-2.15,2.05-3.27,3.03-5.73,5.01-12.03,9.19-18.46,13.19,1.86-.57,3.72-1.16,5.59-1.71,2.79-.82,5.37-2.16,8.22-2.81,1.01-.23,1.97-.76,2.89-1.27,3.22-1.78,6.47-3.53,9.61-5.45,7.63-4.67,15.2-9.43,21.97-15.35,1.12-.98,2.33-1.87,3.27-3.03.63-.78,1.42-1.29,2.37-1.59-.08-.34-.21-.69.05-1,.39-.48.77-.97,1.19-1.41,2.65-2.83,5.01-5.89,7.31-9,5.45-7.4,9.85-15.4,13.45-23.83,2.24-5.26,4.1-10.66,5.52-16.22,1.93-7.53,3.17-15.14,3.68-22.88.69-10.41-.21-20.72-2.04-30.97-.9-5.02-2.05-9.97-3.31-14.91-.63-2.46-1.4-4.89-2.1-7.33-.98.75-1.78,1.63-2.52,2.63Z"/>
              </g>
            </g>
            <path class="cls-25" d="M115.28,287.21s-.11-.56-.32-1.62c-.2-1.06-.52-2.61-.79-4.6-.27-1.99-.53-4.45-.35-7.27.16-2.8.87-6.05,2.71-9.08.91-1.51,2.12-2.95,3.67-4.11,1.54-1.17,3.44-1.89,5.32-2.49,1.87-.62,3.82-1.18,5.4-2.31,1.6-1.1,2.61-2.89,3.03-4.89.87-4.09-.31-8.43-1.12-12.9-.41-2.24-.67-4.6-.45-6.97.21-2.35.9-4.79,2.44-6.75.18-.25.4-.47.61-.7l.16-.17.18-.17.32-.29c.22-.19.49-.39.73-.58.25-.17.5-.35.75-.51,1.01-.64,2.06-1.16,3.07-1.68,2.03-1.03,3.94-2.11,5.06-3.93.5-.83.86-1.87,1.02-2.89.16-1.04.15-2.11.05-3.17-.2-2.13-.86-4.18-1.51-6.24-.64-2.06-1.29-4.14-1.45-6.3-.04-.54-.06-1.08-.03-1.61.02-.59.1-1.04.16-1.56.21-1.07.47-2.08.9-3.01.79-1.9,1.97-3.51,3.24-4.91,1.28-1.4,2.66-2.59,4.06-3.64,2.79-2.1,5.63-3.53,8.04-4.94,2.43-1.39,4.48-2.7,6.05-3.94,1.58-1.23,2.69-2.36,3.38-3.18.36-.4.6-.74.77-.96.17-.22.26-.33.26-.33,0,0-.08.12-.24.35-.16.22-.38.58-.73.99-.66.85-1.71,2.05-3.27,3.34-1.54,1.31-3.57,2.7-5.95,4.18-2.36,1.5-5.14,3.04-7.83,5.13-1.34,1.05-2.66,2.24-3.86,3.61-1.19,1.37-2.27,2.93-2.97,4.7-.38.87-.59,1.82-.76,2.74-.05.48-.12,1.05-.12,1.48-.01.49.01.98.06,1.48.2,1.98.8,3.98,1.46,6.03.66,2.04,1.37,4.18,1.61,6.48.24,2.27.08,4.74-1.24,6.94-.61,1.01-1.53,1.92-2.49,2.62-.97.71-2.01,1.26-3.03,1.79-1.02.53-2.02,1.04-2.95,1.64-.23.15-.45.31-.67.46-.2.17-.4.31-.61.49l-.32.29-.14.13-.13.15c-.18.2-.36.38-.52.6-1.33,1.66-1.98,3.82-2.19,6-.22,2.2,0,4.41.39,6.62.38,2.21.87,4.41,1.15,6.65.27,2.24.36,4.53-.14,6.74-.25,1.1-.65,2.18-1.24,3.15-.59.99-1.41,1.8-2.33,2.42-1.85,1.25-3.89,1.77-5.76,2.35-1.88.56-3.64,1.19-5.1,2.25-1.45,1.05-2.63,2.37-3.53,3.79-1.8,2.86-2.6,5.95-2.86,8.7-.27,2.76-.09,5.2.1,7.2.21,1.99.44,3.56.6,4.62.16,1.06.25,1.63.25,1.63Z"/>
            <path class="cls-25" d="M14.52,231.23s.27-.19.79-.54c.53-.34,1.31-.84,2.38-1.32,1.07-.49,2.41-1,4.02-1.36,1.6-.36,3.48-.59,5.51-.44,2.04.07,4.24.7,6.39,1.35,1.08.3,2.2.53,3.3.46.27-.02.56-.06.79-.11l.44-.11.37-.13c.51-.19,1.01-.47,1.48-.8.94-.67,1.72-1.61,2.4-2.63.68-1.02,1.21-2.18,1.74-3.37.53-1.19,1.05-2.43,1.71-3.64.64-1.2,1.5-2.41,2.51-3.33,2.19-1.96,4.92-2.87,7.58-3.3,2.67-.43,5.34-.33,7.83-.18,2.5.14,4.89.36,7.14.28,2.25-.07,4.36-.43,6.15-1.19,1.75-.77,3.19-1.92,4.23-3.11,1.03-1.21,1.66-2.49,1.93-3.6.28-1.12.23-2.04.16-2.65-.12-.61-.2-.93-.2-.93,0,0,.11.31.28.92.12.61.26,1.55.03,2.73-.22,1.17-.79,2.54-1.79,3.87-1.02,1.32-2.43,2.61-4.33,3.51-1.86.87-4.08,1.33-6.41,1.49-2.33.16-4.78.05-7.26-.09-2.5-.13-5.03-.18-7.55.25-2.49.41-5,1.35-6.8,3-1.92,1.69-2.92,4.11-4.01,6.51-1.06,2.4-2.42,4.87-4.63,6.46-.55.39-1.15.71-1.79.94l-.5.16-.45.1c-.36.07-.67.09-1.01.1-1.32.03-2.53-.28-3.64-.63-2.21-.75-4.19-1.4-6.16-1.55-3.92-.38-7.22.41-9.37,1.26-1.08.42-1.9.83-2.45,1.13-.54.31-.83.48-.83.48Z"/>
            <path class="cls-25" d="M31.77,30.49s.34-.03.99-.09c.32-.03.72-.07,1.19-.05.47.02,1.02-.01,1.62.09,1.22.11,2.67.45,4.28,1.02,1.59.62,3.32,1.52,4.98,2.84,1.66,1.31,3.25,3.01,4.51,5.1,1.26,2.08,2.16,4.61,2.35,7.27.24,2.66.02,5.36-.05,8.05-.03,1.34-.02,2.69.11,4.02.15,1.32.33,2.68.93,3.69.14.25.32.5.49.68.14.14.23.22.33.3.11.09.23.17.36.25.5.31,1.09.52,1.72.67.31.07.64.14.95.19.34.05.69.12,1,.14.64.08,1.31.13,1.98.16,2.66.13,5.34-.04,7.97.05,1.31.05,2.62.15,3.88.4.67.14,1.22.29,1.83.46.6.22,1.22.38,1.76.65,2.25.96,4.16,2.28,5.71,3.71,1.56,1.43,2.73,2.99,3.58,4.46.86,1.47,1.44,2.85,1.78,4.02.2.58.32,1.1.41,1.57.11.46.17.85.2,1.18.08.64.12.99.12.99,0,0-.07-.34-.19-.97-.05-.32-.15-.7-.29-1.15-.12-.45-.28-.96-.5-1.52-.8-2.25-2.57-5.3-5.64-7.97-1.53-1.32-3.41-2.52-5.57-3.35-.53-.24-1.09-.35-1.64-.54-.57-.14-1.22-.29-1.77-.38-1.19-.18-2.43-.29-3.71-.32-2.55-.06-5.22.14-7.99.04-.69-.02-1.38-.07-2.1-.15-.36-.03-.69-.09-1.03-.14-.37-.05-.71-.12-1.07-.2-1.4-.31-2.98-1.03-3.8-2.52-.78-1.41-.91-2.87-1.06-4.27-.13-1.41-.12-2.81-.07-4.18.1-2.74.34-5.39.14-7.9-.18-2.52-.9-4.84-2.02-6.86-1.11-2.02-2.58-3.69-4.12-5-1.55-1.31-3.16-2.27-4.67-2.96-1.53-.63-2.93-1.06-4.12-1.23-.59-.13-1.12-.14-1.59-.19-.46-.06-.86-.05-1.19-.05-.65,0-.99,0-.99,0Z"/>
          </g>
        </g>
      </g>
    </g>
  </g>
</svg>